<?xml version="1.0" encoding="UTF-8"?>
<svg id="Layer_1" xmlns="http://www.w3.org/2000/svg" version="1.1" viewBox="0 0 400 400">
  <!-- Generator: Adobe Illustrator 30.2.1, SVG Export Plug-In . SVG Version: 2.1.1 Build 1)  -->
  <path d="M379.85,189.16c-5.91-94.77-84.78-169.03-179.58-169.03S20.14,100.82,20.14,200s80.8,179.86,180.13,179.86h112.14c37.19,0,67.45-30.26,67.45-67.45v-123.25h-.01ZM364.86,312.41c0,28.93-23.53,52.46-52.46,52.46h-112.14c-91.06,0-165.14-73.97-165.14-164.88S109.2,35.12,200.27,35.12s159.22,68.08,164.61,154.52v122.77h-.01ZM110.07,147.54c0-4.14,3.36-7.49,7.49-7.49h104.92c4.14,0,7.49,3.36,7.49,7.49s-3.36,7.49-7.49,7.49h-104.92c-4.14,0-7.49-3.36-7.49-7.49ZM289.93,207.49c0,4.14-3.36,7.49-7.49,7.49H117.56c-4.14,0-7.49-3.36-7.49-7.49s3.36-7.49,7.49-7.49h164.88c4.14,0,7.49,3.36,7.49,7.49ZM289.93,267.45c0,4.14-3.36,7.49-7.49,7.49H117.56c-4.14,0-7.49-3.36-7.49-7.49s3.36-7.49,7.49-7.49h164.88c4.14,0,7.49,3.36,7.49,7.49Z"/>
</svg>