<?xml version="1.0" encoding="UTF-8"?>
<svg id="Layer_1" xmlns="http://www.w3.org/2000/svg" version="1.1" viewBox="0 0 400 400">
  <!-- Generator: Adobe Illustrator 30.2.1, SVG Export Plug-In . SVG Version: 2.1.1 Build 1)  -->
  <defs>
    <style>
      .st0 {
        fill: #9b89c4;
        isolation: isolate;
        opacity: .7;
      }
    </style>
  </defs>
  <path class="st0" d="M387.27,129.75v187.27c0,38.72-31.51,70.23-70.23,70.23H82.96c-38.72,0-70.23-31.51-70.23-70.23V114.14c0-38.72,31.51-70.23,70.23-70.23h156.06c4.31,0,7.8,3.5,7.8,7.8s-3.5,7.8-7.8,7.8H82.96c-30.12,0-54.62,24.5-54.62,54.62v39.01h101.44c4.31,0,7.8,3.5,7.8,7.8s-3.5,7.8-7.8,7.8H28.33v148.26c0,30.12,24.5,54.62,54.62,54.62h234.09c30.12,0,54.62-24.5,54.62-54.62v-148.26h-23.41c-4.31,0-7.8-3.5-7.8-7.8s3.5-7.8,7.8-7.8h23.41v-23.41c0-4.31,3.5-7.8,7.8-7.8s7.8,3.5,7.8,7.8v.02h.01ZM59.55,106.34c0,8.61,6.99,15.61,15.61,15.61s15.61-6.99,15.61-15.61-6.99-15.61-15.61-15.61-15.61,6.99-15.61,15.61ZM98.56,309.21c-4.31,0-7.8,3.5-7.8,7.8s3.5,7.8,7.8,7.8h202.88c4.31,0,7.8-3.5,7.8-7.8s-3.5-7.8-7.8-7.8H98.56ZM106.36,106.34c0,8.61,6.99,15.61,15.61,15.61s15.61-6.99,15.61-15.61-6.99-15.61-15.61-15.61-15.61,6.99-15.61,15.61ZM184.39,106.34c0-8.61-6.99-15.61-15.61-15.61s-15.61,6.99-15.61,15.61,6.99,15.61,15.61,15.61,15.61-6.99,15.61-15.61ZM188.34,169.06C299.53,39.03,310.07,26.76,310.65,26.11c17.81-17.74,46.16-17.74,63.58-.34,17.4,17.45,17.31,45.9-.19,63.44l-127.53,137.57s-.08.05-.12.08c-.16,2.45-.14,4.9-.61,7.35-4.93,25.38-28.25,43.81-55.42,43.81h-61.64c-7.15,0-13.69-3.28-17.95-9.02-4.23-5.7-5.49-12.87-3.45-19.68,6.93-22.97,28.59-75.78,80.99-80.18.02-.02.02-.05.05-.08l-.02.02v-.02h0ZM207.1,171.12c10.58,3.01,20.12,8.9,27.25,17.56,4.42,5.35,7.44,11.5,9.54,17.96l32.83-35.41c-6.06-17.82-21.36-30.17-41.12-33.41-8.57,10.03-18.13,21.21-28.5,33.32v-.02h0ZM222.32,198.62c-7.46-9.05-18.43-14.25-30.12-14.25-44.73,1.78-63.81,49.16-69.93,69.45-1.37,4.14,2.11,8.71,6.46,8.58h61.64c19.73,0,36.58-13.11,40.09-31.17,2.28-11.7-.69-23.6-8.13-32.62h-.02.01ZM247.05,124.41c18.52,5.4,33.23,17.54,41.31,34.26l74.42-80.28c11.64-11.67,11.72-30.24.39-41.61-11.31-11.3-29.79-11.31-41.17,0-.09.12-6.04,7.02-74.96,87.61v.02h0Z"/>
</svg>