<?xml version="1.0" encoding="UTF-8"?>
<svg id="Layer_1" xmlns="http://www.w3.org/2000/svg" version="1.1" viewBox="0 0 160 160">
  <!-- Generator: Adobe Illustrator 30.2.1, SVG Export Plug-In . SVG Version: 2.1.1 Build 1)  -->
  <defs>
    <style>
      .st0 {
        fill: #9186bf;
      }

      .st1 {
        fill: #a7c168;
      }

      .st2 {
        fill: #988dc6;
      }

      .st3 {
        stroke: #231f20;
        stroke-width: .04px;
      }

      .st3, .st4 {
        fill: none;
        stroke-linecap: round;
        stroke-linejoin: round;
      }

      .st5 {
        fill: #c2b5e8;
      }

      .st4 {
        stroke: #a7c168;
        stroke-width: 1.64px;
      }
    </style>
  </defs>
  <g>
    <g>
      <path class="st5" d="M58.58,72.53c-6.19-5.44-12.61-10.6-19.23-15.5-5.53-4.09-11.37-8.07-18.06-9.7-1.26-.31-2.99-.29-3.41.95-.17.5-.04,1.05-.2,1.55-.35,1.11-1.85,1.4-2.49,2.38-.94,1.44.38,3.65-.71,4.99-.24.29-.56.5-.78.81-.5.72-.16,1.78.5,2.36s1.55.8,2.41,1.01c7.8,1.85,15.65,3.46,23.35,5.7,2.06.6,4.11,1.25,6.08,2.1,7.23,3.14,13.28,9.06,21,10.65.34-.97-.15-2.07-.9-2.77s-1.73-1.09-2.66-1.54c-2.11-1.01-4.07-2.35-5.79-3.94"/>
      <path class="st2" d="M58.73,72.39c-6.66-5.85-13.59-11.42-20.76-16.63-3.29-2.38-6.68-4.66-10.37-6.38-1.81-.85-3.68-1.56-5.61-2.08-1.18-.31-2.86-.7-3.87.25-.66.63-.37,1.45-.63,2.23s-1.15,1.14-1.76,1.6c-1.3.98-1.1,2.34-1.01,3.8.02.42.04.85-.08,1.26-.14.5-.49.78-.84,1.14-.48.5-.65,1.13-.46,1.8.5,1.76,2.64,2.06,4.16,2.41,4.45,1.04,8.92,2.02,13.36,3.1s8.78,2.12,13.01,3.65c7.29,2.63,13.07,8.22,20.4,10.74.89.3,1.79.55,2.7.75.11.02.22-.03.25-.14.65-2.19-1.52-3.54-3.19-4.32-2.28-1.07-4.36-2.43-6.22-4.13-.19-.18-.49.11-.29.29,1.55,1.43,3.27,2.66,5.14,3.63,1.66.87,4.9,1.91,4.15,4.42l.25-.14c-7.22-1.53-12.85-6.64-19.3-9.86-3.68-1.84-7.68-2.91-11.64-3.97-4.18-1.11-8.41-2.08-12.63-3.04-2.09-.48-4.18-.95-6.27-1.44-.97-.23-2.14-.4-2.91-1.09-.36-.33-.62-.77-.66-1.26-.05-.65.32-.98.75-1.41,1.08-1.08.58-2.58.6-3.93.02-.98.44-1.57,1.22-2.11.5-.34,1.07-.65,1.41-1.18.48-.73.08-1.73.64-2.4.49-.59,1.44-.61,2.14-.54,1.83.17,3.73.96,5.41,1.66,3.64,1.51,7,3.61,10.21,5.86,6.91,4.84,13.53,10.15,19.93,15.64.82.7,1.63,1.41,2.44,2.12.2.17.49-.12.29-.29h0Z"/>
    </g>
    <g>
      <path class="st5" d="M60.6,75.18c-7.01-4.32-13.83-8.95-20.45-13.85-5.53-4.09-11.05-8.51-14.56-14.43-.66-1.12-1.15-2.78-.09-3.54.43-.31,1-.35,1.43-.65.96-.66.8-2.18,1.54-3.08,1.1-1.32,3.6-.71,4.56-2.14.21-.31.31-.69.55-.98.55-.69,1.65-.68,2.4-.21s1.22,1.25,1.67,2.01c4.05,6.91,7.89,13.95,12.29,20.65,1.18,1.79,2.4,3.57,3.79,5.2,5.12,5.99,12.55,10.05,16.33,16.96-.83.61-2.02.46-2.91-.05s-1.55-1.33-2.25-2.09c-1.59-1.72-3.44-3.21-5.47-4.38"/>
      <path class="st2" d="M60.7,75c-7.39-4.57-14.6-9.45-21.55-14.67-3.14-2.35-6.21-4.82-8.91-7.68-1.35-1.43-2.61-2.96-3.7-4.61-.84-1.26-2.62-3.93-.38-4.77.66-.25,1.18-.49,1.51-1.15s.39-1.47.78-2.12c.78-1.27,2.6-1.05,3.81-1.62.68-.32.92-.82,1.28-1.44.57-.99,1.79-.91,2.6-.25s1.24,1.6,1.74,2.45c.54.93,1.09,1.87,1.63,2.81,2.2,3.82,4.38,7.65,6.66,11.42s4.36,7.25,7.03,10.5c4.58,5.56,11.09,9.26,15.29,15.16.5.71.96,1.44,1.38,2.2l.07-.28c-2.14,1.43-4.07-1.26-5.36-2.59-1.5-1.54-3.2-2.85-5.05-3.94-.23-.13-.44.22-.21.35,2.21,1.29,4.12,2.92,5.84,4.81,1.22,1.34,3.14,2.96,4.99,1.72.09-.06.13-.18.07-.28-3.64-6.57-10.31-10.49-15.33-15.85-3.06-3.27-5.42-7.18-7.75-10.98s-4.68-7.93-6.98-11.93c-.56-.97-1.12-1.94-1.68-2.91-.48-.82-.92-1.71-1.54-2.45-.83-.99-2.58-1.73-3.55-.49-.28.36-.38.83-.69,1.16-.27.29-.63.46-1,.59-.7.24-1.45.3-2.15.55-.59.21-1.12.54-1.45,1.08-.41.67-.45,1.5-.82,2.19-.48.89-1.54.76-2.17,1.45-.4.44-.49,1.05-.42,1.63.21,1.75,1.56,3.38,2.59,4.74,2.4,3.19,5.34,5.91,8.44,8.4,3.34,2.69,6.84,5.2,10.35,7.66,3.76,2.64,7.59,5.2,11.47,7.66.98.62,1.96,1.23,2.95,1.84.23.14.43-.22.21-.35h0Z"/>
    </g>
    <g>
      <path class="st5" d="M60.01,77.67c-3.77-6.39-5.23-13.96-5.12-21.38s1.71-14.74,3.72-21.89c.12-.41.27-.87.65-1.06.83-.4,1.57.78,2.48.94.77.14,1.51-.5,2.29-.44.7.05,1.23.62,1.77,1.05s1.37.76,1.91.31c.49.78,1.24,1.39,2.11,1.71-2.71,2.25-3.85,5.85-4.63,9.28-1.3,5.69-1.98,11.51-2.43,17.34-.19,2.44-.34,4.9-.06,7.34.37,3.27,1.48,6.44,1.54,9.73,0,.41-.08.93-.47,1.04-.5.14-.83-.48-1.04-.95-.56-1.22-1.7-2.16-3.01-2.46"/>
      <path class="st2" d="M60.18,77.56c-3.68-6.28-5.14-13.61-5.1-20.84.03-3.96.49-7.9,1.21-11.78.35-1.89.76-3.76,1.22-5.62.23-.93.47-1.86.71-2.79.12-.46.25-.93.38-1.39s.21-1.12.55-1.47c.63-.65,1.59.45,2.18.7.73.3,1.33-.03,2.03-.23,1.18-.33,1.73.6,2.62,1.14.57.34,1.25.5,1.82.11l-.28-.07c.55.84,1.3,1.44,2.23,1.8l-.09-.34c-2.21,1.87-3.39,4.58-4.16,7.31-.97,3.41-1.54,6.94-2.02,10.45s-.86,7.3-1.07,10.97c-.11,1.87-.13,3.75.1,5.62.21,1.73.62,3.43.96,5.14.21,1.05.4,2.12.49,3.19.04.44.09.89.06,1.33-.02.3-.07.77-.57.65-.23-.06-.4-.48-.5-.68-.68-1.34-1.72-2.32-3.2-2.7-.26-.07-.37.33-.11.4.8.21,1.52.61,2.1,1.21.51.54.7,1.21,1.14,1.78.24.31.58.55.98.4.58-.21.58-.94.57-1.45-.1-3.71-1.47-7.25-1.65-10.96s.28-7.68.7-11.45,1.03-7.85,1.91-11.71c.77-3.36,1.86-6.88,4.58-9.19.13-.11.04-.29-.09-.34-.83-.32-1.5-.87-1.98-1.61-.06-.09-.19-.14-.28-.07-.9.61-1.79-.45-2.46-.93-.55-.4-1.13-.56-1.8-.38-.38.1-.74.29-1.14.36-.5.08-.9-.16-1.3-.42-.44-.29-.93-.69-1.5-.57s-.8.62-.96,1.11c-.31.96-.54,1.95-.8,2.93-.52,1.97-.99,3.95-1.4,5.95-1.56,7.57-2.21,15.43-.73,23.07.79,4.08,2.2,8.04,4.31,11.64.13.23.49.02.35-.21h0Z"/>
    </g>
    <g>
      <path class="st5" d="M65.64,73.23c-.36-2.81.99-7.12,2.62-9.44,3.25-4.61,7.5-7.38,12.84-9.23.53-.18,1.08-.35,1.5-.71s.68-.99.43-1.49c-.14-.28-.42-.47-.61-.72-.67-.85-.31-2.13-.79-3.1-.47-.95-1.67-1.41-2.04-2.41-.23-.64-.07-1.36-.28-2.01-.33-1.03-1.47-1.54-2.48-1.93-.98-.37-2.01-.75-3.06-.63-1.14.14-2.12.85-3.01,1.57-3.72,3.01-6.44,4.91-9.1,8.89-.61.91-1.73,3.52-2.16,4.52-1.08,2.52-1.18,5.35-1.11,8.1.09,3.76.46,7.56,1.78,11.09.28.76.66,1.56,1.39,1.92,1.19.59,2.6-.35,3.35-1.45.56-.83.95-1.83.78-2.81"/>
      <path class="st2" d="M65.85,73.23c-.18-1.53.08-3.09.48-4.57s1.01-3.03,1.86-4.37c1.72-2.7,4.2-4.99,6.9-6.68,1.4-.87,2.88-1.61,4.41-2.22.81-.32,1.65-.57,2.45-.91.56-.23,1.07-.6,1.29-1.18s0-1.06-.41-1.52c-.66-.72-.61-1.52-.75-2.42-.1-.67-.38-1.2-.86-1.68-.6-.6-1.36-1.06-1.52-1.96-.13-.73,0-1.48-.42-2.14-.34-.54-.89-.9-1.45-1.17-1.39-.68-3.14-1.36-4.69-.9s-2.82,1.76-4.06,2.74-2.5,2-3.67,3.09-2.2,2.23-3.13,3.48c-.84,1.12-1.46,2.3-2.04,3.57s-1.15,2.48-1.5,3.79c-.47,1.78-.57,3.64-.56,5.47.02,3.82.32,7.74,1.53,11.39.41,1.23.98,2.92,2.52,3,1.44.08,2.65-1.2,3.24-2.38.35-.71.53-1.47.43-2.27-.03-.26-.44-.26-.41,0,.21,1.66-1,3.8-2.72,4.19-2.01.46-2.61-2.36-3-3.75-.97-3.47-1.21-7.15-1.18-10.74.02-1.76.16-3.54.67-5.23.37-1.23.94-2.41,1.48-3.57,1.16-2.51,2.82-4.65,4.83-6.54,1.04-.98,2.15-1.89,3.26-2.78,1.23-.99,2.46-2.23,3.91-2.88,1.64-.74,3.63-.03,5.13.79.76.41,1.28.96,1.36,1.85.07.7.02,1.34.43,1.95.33.48.81.83,1.23,1.23.67.65.79,1.34.88,2.23.06.57.14,1.14.49,1.61.26.35.7.6.68,1.09-.02.55-.49.95-.94,1.17-.7.35-1.49.55-2.22.83-.67.26-1.34.55-2,.85-1.3.61-2.55,1.3-3.73,2.11-2.53,1.73-4.91,4.02-6.45,6.69-1.45,2.52-2.48,5.8-2.14,8.73.03.26.44.26.41,0h0Z"/>
    </g>
    <path class="st3" d="M29.74,68.69"/>
    <g>
      <path class="st5" d="M60.35,76.76c-7.42-4.54-15.22-8.56-23.56-10.89s-17.27-2.92-25.57-.62c-.35.1-.75.25-.87.6-.14.44.25.87.35,1.32.23,1.04-1.1,1.79-1.23,2.85-.16,1.27,1.41,2.15,1.61,3.42.13.84-.38,1.62-.77,2.37s-.66,1.73-.14,2.4c.62.8,2.19.95,2.09,1.96-.02.18-.09.34-.14.51-.26,1,.63,2.01,1.62,2.26s2.02-.03,3-.3c12.59-3.43,25.84-4.44,38.83-2.94,1.63.19,3.26.41,4.89.35.41-.02.89-.09,1.09-.46.14-.25.09-.56.02-.84-.29-1.12-1.01-2.13-1.96-2.78"/>
      <path class="st2" d="M60.46,76.58c-7.67-4.69-15.78-8.86-24.51-11.16-4.39-1.15-8.92-1.82-13.46-1.84-2.23,0-4.45.15-6.65.48-1.15.17-2.29.39-3.42.67-.65.16-1.86.25-2.2.94-.37.76.55,1.42.2,2.23-.29.68-.93,1.17-1.11,1.91-.39,1.67,1.83,2.56,1.55,4.22-.25,1.45-2.18,3.29-.52,4.62.47.38,1.4.59,1.67,1.16.18.39-.12.81-.12,1.21s.14.77.36,1.09c1.2,1.74,3.47,1.02,5.14.57,2.29-.61,4.61-1.14,6.94-1.59,4.64-.9,9.35-1.47,14.07-1.72s9.43-.18,14.12.22c2.37.2,4.73.63,7.11.66.64.01,1.66.12,2.08-.51.39-.58,0-1.46-.27-2.01-.39-.79-.98-1.44-1.7-1.94-.22-.15-.42.2-.21.35.83.58,1.47,1.41,1.79,2.37.07.21.22.64.12.85-.15.31-.49.43-.8.46-.58.06-1.17.02-1.75,0-2.17-.12-4.33-.47-6.49-.65-4.34-.36-8.7-.45-13.06-.26s-8.48.63-12.68,1.34c-2.11.35-4.2.77-6.28,1.26-1.08.25-2.15.52-3.22.81s-2.32.75-3.44.39c-.5-.16-.95-.5-1.22-.96-.33-.56-.1-.97-.03-1.54.06-.48-.21-.84-.59-1.11-.56-.4-1.39-.6-1.68-1.29-.41-.99.4-2.01.79-2.86.3-.67.44-1.37.15-2.07s-.81-1.17-1.17-1.79c-.49-.84-.22-1.49.3-2.22.34-.48.73-1,.66-1.62-.05-.45-.38-.79-.31-1.25.06-.37.24-.43.58-.54.28-.09.58-.16.86-.23,1.01-.26,2.04-.47,3.07-.65,2.16-.37,4.34-.56,6.53-.59,4.31-.06,8.62.48,12.8,1.47,8.2,1.95,15.88,5.63,23.12,9.87.89.52,1.77,1.05,2.65,1.59.23.14.43-.22.21-.35h0Z"/>
    </g>
    <g>
      <path class="st5" d="M62.42,80.83c-6.23-6.07-12.04-12.65-16.36-20.15s-7.08-16.02-6.89-24.63c0-.37.05-.79.37-.99.39-.25.9.03,1.37.02,1.07-.04,1.46-1.51,2.46-1.9,1.2-.47,2.43.84,3.71.71.85-.08,1.48-.77,2.11-1.33s1.51-1.07,2.29-.73c.93.41,1.46,1.89,2.41,1.55.17-.06.31-.17.46-.26.9-.5,2.1.11,2.59,1.01s.47,1.97.45,2.98c-.23,13.05,2.06,26.13,6.71,38.36.58,1.53,1.2,3.06,1.54,4.65.09.41.13.89-.18,1.17-.21.19-.52.23-.81.23-1.16,0-2.32-.45-3.17-1.22"/>
      <path class="st2" d="M62.57,80.69c-5.9-5.76-11.45-11.97-15.71-19.07s-7.26-15.36-7.47-23.79c-.01-.48-.02-.96,0-1.45,0-.25-.01-.52.05-.76.13-.51.82-.4,1.23-.35.6.07,1.06-.21,1.46-.64.52-.55.95-1.33,1.8-1.35s1.58.55,2.36.74c.71.17,1.37.03,1.97-.39.76-.53,1.34-1.38,2.27-1.64,1.55-.43,1.99,2.09,3.45,1.57.42-.15.7-.44,1.18-.42.51.02,1.01.33,1.35.7.72.81.71,2.03.69,3.05-.03,2.18-.01,4.35.08,6.53.19,4.27.65,8.54,1.37,12.75s1.74,8.59,3.02,12.78c.63,2.06,1.32,4.1,2.08,6.12.38,1.02.79,2.04,1.14,3.07.17.52.33,1.04.46,1.57.06.24.16.52.15.76,0,.22-.18.66-.38.78-.11.07-.33.05-.46.06-1.1.03-2.21-.45-3.03-1.16-.2-.17-.49.12-.29.29.7.6,1.53,1.03,2.45,1.2.61.11,1.57.24,1.97-.38.46-.71-.08-1.96-.3-2.66-.35-1.12-.78-2.2-1.2-3.3-1.68-4.43-3.05-8.97-4.1-13.59s-1.79-9.34-2.2-14.07c-.2-2.37-.33-4.76-.36-7.14-.02-1.17-.01-2.33,0-3.5.01-.91.02-1.86-.35-2.71-.31-.72-.94-1.31-1.72-1.5-.3-.07-.63-.08-.93,0-.46.13-.82.58-1.32.33-.64-.31-.96-1.07-1.59-1.42-.71-.39-1.52-.13-2.15.29-.78.53-1.38,1.46-2.35,1.65s-1.81-.49-2.68-.71c-.69-.17-1.32-.04-1.85.43-.6.54-1.02,1.52-1.94,1.47-.68-.04-1.43-.28-1.69.58s-.09,2.03-.06,2.95c.09,2.2.36,4.4.79,6.56.86,4.33,2.37,8.52,4.32,12.48,3.92,7.97,9.63,14.91,15.83,21.21.78.79,1.56,1.57,2.35,2.34.19.18.48-.11.29-.29h0Z"/>
    </g>
    <g>
      <path class="st5" d="M56.92,81.72c-14.97,3.31-29.48,8.66-43.02,15.84-.14.08-.29.15-.45.14-.18-.01-.32-.13-.46-.24-.49-.43-.96-1-.92-1.66.02-.32.16-.62.19-.94.12-1.17-1.18-2.02-1.37-3.18-.13-.81.31-1.62.29-2.44-.04-1.13-.91-2.02-1.65-2.88s-1.42-2.01-1-3.06c.44-1.09,1.79-1.42,2.95-1.62,7.46-1.27,14.8-3.19,22.28-4.38s15.18-1.66,22.57-.02c.51.11,1.03.24,1.44.57,1.17.93.65,2.99-.61,3.79"/>
      <path class="st2" d="M56.86,81.53c-7.48,1.66-14.85,3.82-22.05,6.47-3.54,1.3-7.04,2.73-10.49,4.26-1.75.78-3.49,1.59-5.21,2.43-.83.4-1.65.81-2.47,1.23-.87.44-1.75,1.03-2.65,1.37-.7.26-1.14-.08-1.49-.67-.32-.53-.18-.95-.08-1.51.12-.64-.09-1.18-.42-1.73-.41-.67-.95-1.28-.93-2.11s.43-1.61.26-2.46c-.33-1.65-2.02-2.53-2.58-4.06-.8-2.2,1.71-2.69,3.26-2.96,8-1.39,15.87-3.5,23.92-4.62,4.48-.62,9.02-.94,13.54-.65,2.28.15,4.56.44,6.79.94.99.22,1.92.64,1.95,1.79.02.87-.46,1.72-1.16,2.2-.22.15-.01.5.21.35.98-.67,1.64-2,1.27-3.19-.5-1.62-2.77-1.71-4.14-1.94-4.22-.72-8.52-.81-12.78-.52-8.76.6-17.28,2.81-25.86,4.51-1.08.21-2.16.42-3.24.61-.87.15-1.77.25-2.59.56-1.39.53-2.08,1.76-1.48,3.19.72,1.72,2.85,2.75,2.48,4.85-.14.8-.39,1.52-.07,2.31.28.7.84,1.24,1.11,1.94.31.82-.29,1.59.07,2.41.22.5.81,1.32,1.43,1.35.31.02.6-.19.86-.33.47-.25.95-.5,1.43-.74.92-.47,1.84-.94,2.77-1.4,3.8-1.87,7.67-3.6,11.6-5.19,7.75-3.12,15.73-5.68,23.85-7.63,1.01-.24,2.01-.47,3.02-.7.26-.06.15-.45-.11-.4h0Z"/>
    </g>
    <path class="st4" d="M70.05,83.4c28.12,22.71,6.76,50.75,6.76,50.75"/>
    <path class="st1" d="M56.7,81.78s8.19,6.82,13.26,2.7c5.07-4.12-4.27-12.31-4.27-12.31,0,0-8.19,2.49-8.99,9.61Z"/>
  </g>
  <g>
    <g>
      <path class="st5" d="M91.61,48.96c.25-5.79-3.5-11.25-8.44-14.27-4.95-3.02-10.91-3.94-16.71-3.99-1.21-.01-2.48,0-3.58-.5s-2-1.71-1.72-2.89c.24-.99,1.19-1.66,1.49-2.63.5-1.61-.94-3.42-.25-4.95.71-1.57,2.93-1.52,4.6-1.13,7.19,1.69,14.08,5.13,19.12,10.53,5.04,5.4,8.05,12.85,7.33,20.2-.09.91-.83,2.12-1.59,1.62"/>
      <path class="st2" d="M91.82,48.96c.22-6.13-3.78-11.67-8.91-14.66-2.98-1.74-6.33-2.75-9.73-3.28-1.73-.27-3.47-.42-5.21-.48s-3.79.24-5.31-.68c-.74-.45-1.39-1.28-1.34-2.19s.78-1.52,1.21-2.24c.76-1.26.27-2.52,0-3.85-.17-.81-.19-1.69.44-2.31.54-.54,1.36-.68,2.1-.69,1.51-.02,3.04.48,4.47.91,6.49,1.93,12.66,5.4,17.13,10.56,2.53,2.92,4.48,6.37,5.61,10.07.55,1.8.91,3.67,1.03,5.55.06.95.06,1.91,0,2.86-.03.56-.27,2.83-1.35,2.26-.23-.13-.44.23-.21.35,1.15.62,1.82-1.02,1.91-1.9.18-1.74.11-3.52-.12-5.25-.48-3.54-1.73-6.96-3.55-10.03-3.64-6.13-9.49-10.58-16-13.32-1.68-.7-3.4-1.3-5.15-1.78-1.43-.4-2.96-.86-4.46-.65-1.2.17-2.25.9-2.37,2.19-.16,1.69,1.13,3.29.1,4.89-.39.62-.93,1.16-1.14,1.88-.19.67-.03,1.37.33,1.94.88,1.39,2.53,1.72,4.06,1.78,1.91.07,3.81.07,5.71.26s3.88.54,5.76,1.06c3.57.99,6.96,2.69,9.62,5.31,2.43,2.39,4.26,5.48,4.8,8.87.13.85.18,1.7.15,2.56,0,.26.4.26.41,0h0Z"/>
    </g>
    <g>
      <path class="st5" d="M97.39,51.48c6.26-3.71,14.2-1.83,21.21.15,4.49,1.27,9.47,2.93,11.57,7.09.43.86.73,1.81,1.37,2.52s1.8,1.1,2.57.52c1.05-.79.86-2.89,2.15-3.1.56-.09,1.08.28,1.63.42,1.21.29,2.44-.65,2.92-1.8s.38-2.45.27-3.69c-.08-.94-.23-2-1.02-2.51-.41-.26-.91-.32-1.39-.38-5-.64-9.73-2.52-14.49-4.18-4.76-1.66-9.71-3.12-14.74-2.88s-10.21,2.49-12.82,6.8"/>
      <path class="st2" d="M97.5,51.66c6.55-3.81,14.6-1.67,21.39.27,3.11.89,6.4,1.92,8.88,4.08,1.28,1.11,2.04,2.43,2.74,3.95.55,1.19,1.62,2.62,3.14,2.25,1.23-.3,1.36-1.71,1.86-2.65.15-.29.35-.56.68-.66.5-.14,1.01.2,1.46.34.63.19,1.27.12,1.85-.19,1.43-.76,1.87-2.39,1.87-3.9,0-1.29.05-3.34-1.14-4.19-.7-.5-1.72-.47-2.54-.6-1.03-.17-2.05-.38-3.06-.63-1.96-.49-3.88-1.11-5.78-1.77-3.89-1.34-7.74-2.86-11.76-3.76-6.6-1.48-14.47-1.06-19.29,4.32-.51.56-.95,1.18-1.35,1.82-.14.23.22.43.35.21,3.77-6.12,11.64-7.43,18.21-6.34,7.73,1.29,14.72,5.24,22.46,6.52.85.14,2.07.07,2.71.71s.67,1.74.73,2.59c.13,1.75.03,4.25-2.05,4.83-1.18.33-2.46-1.06-3.44.08-.74.86-.65,2.77-2.06,2.9-1.95.18-2.52-2.4-3.27-3.69-.69-1.19-1.66-2.19-2.75-3.01-2.39-1.79-5.32-2.74-8.16-3.56-6.95-2-15.18-4.18-21.88-.28-.23.13-.02.49.21.35h0Z"/>
    </g>
    <g>
      <path class="st5" d="M96.08,49.47c.17-8.73.3-17.68-2.67-25.89-2.97-8.21-9.77-15.62-18.43-16.7-.51-.06-1.07-.09-1.5.2-1.07.75-.2,2.45-.5,3.72-.29,1.19-1.56,1.8-2.44,2.65s-1.18,2.68,0,3.02c-2.31.35-2.77,3.82-1.3,5.63s3.9,2.45,6.08,3.29c11.28,4.3,18.75,16.92,17.08,28.88"/>
      <path class="st2" d="M96.28,49.47c.19-10,.42-20.75-4.4-29.84-1.94-3.66-4.64-6.96-8.01-9.38-1.63-1.17-3.43-2.12-5.33-2.76-.99-.33-2.01-.58-3.05-.74-.83-.13-1.89-.29-2.45.5-.53.74-.24,1.76-.19,2.59.08,1.43-.8,2.13-1.83,2.95-.72.57-1.29,1.21-1.42,2.16-.1.75.15,1.46.9,1.72v-.4c-2.64.48-2.82,4.15-1.44,5.92,1.07,1.38,2.74,2.11,4.33,2.7,1.67.62,3.32,1.22,4.89,2.08,6.07,3.32,10.66,9.12,12.81,15.67,1.22,3.72,1.65,7.69,1.12,11.57-.04.26.36.37.4.11.88-6.46-.81-13.08-4.36-18.52-1.76-2.7-3.96-5.1-6.52-7.06-1.31-1-2.71-1.88-4.19-2.61s-3.12-1.25-4.68-1.88c-1.74-.7-3.68-1.76-4.15-3.73-.36-1.52.14-3.53,1.88-3.85.22-.04.17-.34,0-.4-.95-.34-.64-1.64-.23-2.29.49-.76,1.39-1.19,2.02-1.82.56-.56.86-1.21.87-2s-.43-2.04.15-2.74c.65-.79,2.37-.24,3.21-.05.9.2,1.78.48,2.64.81,1.8.71,3.5,1.7,5.03,2.88,6.87,5.31,10.08,13.68,11.12,22.07.67,5.42.57,10.89.47,16.33,0,.26.41.26.41,0h0Z"/>
    </g>
    <g>
      <path class="st5" d="M95.83,52.12c4.98-5.88,12.96-8.46,20.65-8.87,7.7-.41,15.35,1.06,23.01,1.88,1.01.11,2.37-.03,2.58-1.03.12-.58-.26-1.12-.42-1.69-.47-1.65.88-3.46.29-5.07-.53-1.45-2.43-2.11-2.78-3.61-.33-1.42.86-3.16-.1-4.26-.74-.85-2.11-.51-3.19-.17-6,1.87-12.47,1.25-18.67,2.22-8.46,1.33-16.39,5.76-21.96,12.25"/>
      <path class="st2" d="M95.98,52.27c4.84-5.66,12.3-8.19,19.54-8.75,4.41-.34,8.84,0,13.22.5,2.26.26,4.52.56,6.78.85,1.09.14,2.18.27,3.27.4.76.09,1.55.2,2.3,0,.51-.14.99-.43,1.16-.96.28-.84-.4-1.6-.47-2.42-.13-1.6,1-3.18.31-4.76-.59-1.34-2.3-1.93-2.69-3.37s.86-3.01-.07-4.29-2.92-.5-4.16-.16c-2.1.59-4.27.89-6.45,1.08-4.18.37-8.41.34-12.55,1.11-7.2,1.34-13.96,4.92-19.15,10.08-.66.66-1.3,1.35-1.91,2.06-.17.2.12.49.29.29,4.73-5.47,11.07-9.48,18.05-11.38,3.85-1.05,7.81-1.28,11.78-1.51,1.99-.11,3.99-.24,5.96-.51,1.03-.14,2.06-.32,3.07-.56.88-.21,1.73-.52,2.62-.71s2.1-.14,2.34.98c.17.78-.17,1.62-.27,2.39-.19,1.49.61,2.35,1.64,3.29.55.51,1.11,1.06,1.27,1.83.18.9-.16,1.83-.35,2.71-.16.74-.23,1.48.02,2.2.14.4.39.82.37,1.26-.02.53-.46.81-.93.94-.82.23-1.73.04-2.56-.05-1.05-.12-2.1-.25-3.15-.38-2.14-.27-4.27-.56-6.41-.8-4.26-.49-8.56-.82-12.85-.54-6.67.43-13.58,2.47-18.58,7.09-.61.57-1.19,1.17-1.73,1.81-.17.2.12.49.29.29h0Z"/>
    </g>
    <g>
      <path class="st5" d="M92.86,50.82c1.8-13.57.64-27.52-3.38-40.6-.39-1.27-.66-2.96.48-3.64.73-.44,1.66-.17,2.51-.21,1.66-.09,2.96-1.37,4.3-2.36s3.27-1.71,4.59-.7c.93.71,1.26,2.1,2.32,2.57,1.48.66,3.95-.56,4.45.99.19.61-.17,1.24-.49,1.79-3.19,5.6-2.62,12.48-3.77,18.82-1.56,8.65-6.33,16.34-11.31,23.58"/>
      <path class="st2" d="M93.07,50.82c1.06-8.03,1.09-16.18.11-24.22-.48-3.94-1.21-7.85-2.17-11.69-.47-1.85-1.14-3.68-1.53-5.55-.15-.74-.27-1.75.29-2.36.69-.75,1.83-.39,2.72-.44,1.56-.09,2.79-1.14,3.96-2.05,1.3-1.01,3.47-2.28,4.96-.91.96.88,1.27,2.32,2.71,2.62.62.13,1.25.07,1.88.04.58-.03,1.43-.13,1.82.4.6.82-.45,2.07-.82,2.82s-.69,1.55-.95,2.35c-.57,1.71-.91,3.5-1.15,5.28-.49,3.61-.59,7.27-1.3,10.86-1.48,7.53-5.37,14.31-9.58,20.62-.53.79-1.07,1.58-1.61,2.37-.15.22.21.42.35.21,4.47-6.5,8.79-13.35,10.77-21.07.96-3.73,1.15-7.56,1.57-11.37.21-1.92.49-3.84,1.01-5.71.26-.95.58-1.88.98-2.77.37-.84.98-1.63,1.24-2.51.38-1.32-.67-1.91-1.81-1.91-.7,0-1.4.12-2.1.03-.89-.12-1.37-.71-1.84-1.41-.38-.57-.77-1.17-1.4-1.51s-1.3-.37-1.96-.26c-1.73.3-2.94,1.55-4.32,2.51-.81.56-1.7.99-2.71.98-.77,0-1.61-.18-2.32.24-1.17.69-.99,2.28-.71,3.4.51,2.02,1.16,3.99,1.65,6.01s.92,4.12,1.28,6.2c1.46,8.46,1.78,17.12.93,25.66-.1,1.05-.23,2.1-.36,3.15-.03.26.38.26.41,0h0Z"/>
    </g>
    <g>
      <path class="st5" d="M93.84,51.07c12.26-6.56,20.55-19.69,33.7-24.22,1.52-.52,3.48-1.59,3-3.13-.39-1.24-2.04-1.41-3.18-2.06-2.83-1.62-2.19-6.18-4.56-8.42-1.92,1.67-4.81.32-7.25-.41-.82-.24-1.99-.22-2.2.61-.08.35.05.7.09,1.06.1,1.14-.87,2.05-1.74,2.79-10.17,8.8-16.6,21.78-17.46,35.2"/>
      <path class="st2" d="M93.94,51.25c7.55-4.07,13.46-10.42,19.98-15.86,3.27-2.74,6.75-5.28,10.63-7.1.99-.47,2.01-.87,3.04-1.24.83-.3,1.67-.66,2.34-1.24,1.33-1.14.99-2.75-.53-3.48-.93-.45-1.95-.67-2.7-1.43-.7-.71-1.08-1.67-1.39-2.6-.59-1.81-.95-3.82-2.37-5.2-.08-.08-.2-.07-.29,0-1.55,1.28-3.68.62-5.39.07-1.02-.33-2.96-1.28-3.88-.22-.55.63-.01,1.5-.22,2.22-.28.95-1.2,1.62-1.9,2.24-1.42,1.25-2.76,2.58-4.02,3.98-4.91,5.43-8.62,11.93-10.86,18.89-1.27,3.96-2.06,8.07-2.33,12.22-.02.26.39.26.41,0,.49-7.37,2.63-14.6,6.17-21.08,1.77-3.24,3.88-6.29,6.31-9.07,1.2-1.37,2.47-2.68,3.81-3.91,1.07-.98,2.9-2.11,2.91-3.74,0-.55-.35-1.26.23-1.62.39-.24.98-.19,1.41-.1.92.21,1.81.59,2.72.85,1.67.48,3.51.75,4.94-.43h-.29c2.34,2.29,1.57,6.64,4.53,8.41.76.46,1.67.62,2.41,1.1,1.03.67.97,1.79.1,2.56-.78.69-1.79,1.02-2.75,1.37-.89.32-1.76.69-2.61,1.09-7.4,3.47-13.22,9.41-19.29,14.72-3.52,3.08-7.19,6.02-11.32,8.24-.23.13-.03.48.21.35h0Z"/>
    </g>
    <path class="st1" d="M88.82,97.36c-3.16-13.38-1.56-27.68,4.5-40.02.46-.95-.95-1.78-1.42-.83-6.26,12.75-7.93,27.46-4.66,41.29.24,1.03,1.83.59,1.59-.44h0Z"/>
    <path class="st1" d="M92.41,57.66c-3.03-2.38-3.85-7.13-1.8-10.39.43-.68,1.03-1.33,1.83-1.42.55-.06,1.08.16,1.59.38,1.79.76,3.57,1.53,5.36,2.29.55.24,1.17.55,1.31,1.14.11.49-.17.98-.44,1.4-1.49,2.36-3.04,4.79-5.37,6.33-.38.25-.8.48-1.25.46s-.92-.38-.89-.83"/>
  </g>
  <g>
    <path class="st1" d="M107.12,92.33c2.36,18.84-3.41,38.39-15.33,53.13-3.35,4.14-7.17,7.88-11.39,11.14-.84.65.34,1.8,1.16,1.16,15.28-11.81,25.11-30,27.29-49.13.62-5.42.59-10.9-.09-16.31-.13-1.04-1.78-1.05-1.64,0h0Z"/>
    <g>
      <path class="st5" d="M117.45,73.68c7.37,12.35,21.14,19.14,34.15,25.26l-2.55,6c-.21.49-.42.99-.81,1.36-.5.48-1.2.65-1.85.9-1.42.54-2.68,1.51-3.56,2.75-.57.8-1.07,1.77-2,2.1-1.2.41-2.43-.48-3.37-1.33-11.4-10.34-19.9-23.84-24.3-38.59,1.44-.08,2.91.39,4.03,1.3"/>
      <path class="st2" d="M117.27,73.78c5.85,9.75,15.67,16.06,25.57,21.13,2.85,1.46,5.75,2.84,8.65,4.2l-.07-.28-1.51,3.55c-.45,1.07-.82,2.26-1.42,3.25s-1.76,1.14-2.74,1.6c-.88.42-1.69,1-2.36,1.71s-1.08,1.57-1.73,2.27c-.98,1.06-2.23.73-3.29-.04-.87-.63-1.64-1.43-2.41-2.17s-1.57-1.54-2.34-2.33c-5.97-6.19-10.99-13.3-14.85-20.99-2.19-4.38-4-8.94-5.41-13.63l-.2.26c1.41-.06,2.77.37,3.88,1.24.21.16.5-.13.29-.29-1.2-.94-2.64-1.42-4.17-1.36-.13,0-.24.13-.2.26,2.59,8.64,6.56,16.85,11.71,24.26,2.56,3.68,5.4,7.16,8.51,10.4,1.51,1.58,3.07,3.25,4.81,4.59.71.54,1.59,1.04,2.52.91s1.51-.83,2-1.55c.73-1.05,1.47-2,2.57-2.7.57-.36,1.18-.63,1.81-.85.46-.17.94-.34,1.33-.65.95-.76,1.3-2.24,1.76-3.31l1.79-4.22c.04-.09.04-.23-.07-.28-10.04-4.73-20.45-9.69-28.31-17.75-2.2-2.26-4.15-4.74-5.77-7.45-.14-.23-.49-.02-.35.21h0Z"/>
    </g>
    <g>
      <path class="st5" d="M103.44,71.79c-.62,2.25-2.22,4.08-3.91,5.69-7.78,7.38-18.59,11.48-29.31,11.12-.83-.03-1.82-.02-2.31.66-.91,1.26.88,2.64,1.73,3.94,1.09,1.66.6,3.84.22,5.79s-.43,4.32,1.15,5.52c.98.75,2.33.8,3.56.64,4.64-.58,8.61-3.5,12.35-6.32,3.65-2.75,7.37-5.59,9.83-9.44,1.13-1.77,1.97-3.72,3.14-5.47,1.21-1.8,2.75-3.36,3.93-5.17s2-4.03,1.52-6.14"/>
      <path class="st2" d="M103.24,71.73c-.55,1.9-1.75,3.48-3.12,4.87s-2.77,2.58-4.28,3.7c-2.98,2.22-6.27,4.02-9.73,5.36s-7.05,2.19-10.71,2.55c-1.81.18-3.62.19-5.44.16-1.14-.02-2.71.39-2.49,1.86.24,1.56,1.95,2.47,2.42,3.96.56,1.78-.1,3.65-.34,5.43-.19,1.36-.21,2.91.53,4.12.83,1.36,2.41,1.74,3.91,1.65,3.71-.22,7.12-2.17,10.1-4.25s6.16-4.43,8.89-7c1.34-1.26,2.57-2.63,3.61-4.15,1.12-1.63,1.93-3.45,2.95-5.14,1.96-3.28,5.39-5.9,6.06-9.85.14-.83.13-1.65-.04-2.48-.05-.26-.45-.15-.4.11.83,4.01-2.44,7.17-4.64,10.06-1.17,1.53-2.03,3.23-2.96,4.91s-1.97,3.2-3.24,4.6c-2.48,2.73-5.48,4.93-8.43,7.13s-6.02,4.34-9.6,5.26c-1.68.43-3.97.85-5.38-.47-1.18-1.1-1.16-2.97-.95-4.45.22-1.58.71-3.14.51-4.75-.1-.79-.37-1.49-.84-2.13-.44-.6-.98-1.14-1.38-1.77-.52-.82-.51-1.82.58-2.14.79-.23,1.7-.08,2.51-.08,1.73,0,3.46-.1,5.18-.31,3.39-.43,6.72-1.27,9.89-2.51s6.21-2.86,8.98-4.85,5.51-4.18,7.24-7.02c.43-.72.77-1.48,1-2.28.07-.25-.32-.36-.4-.11h0Z"/>
    </g>
    <g>
      <path class="st5" d="M111.18,72.87c-.5,13.37.59,27.42,7.69,38.76,1.18,1.89,2.56,3.72,4.44,4.93,1.87,1.21,4.33,1.7,6.37.8,1.59-.7,2.73-2.13,3.8-3.5.73-.94,1.46-1.87,2.19-2.81.54-.69,1.09-1.4,1.42-2.21,1.34-3.22-.94-6.72-3.1-9.46-7.26-9.21-14.52-18.41-21.78-27.62"/>
      <path class="st2" d="M110.98,72.87c-.26,7.06-.09,14.17,1.17,21.13s3.52,13.68,7.61,19.3c1.87,2.57,4.61,4.9,7.99,4.71,3.58-.19,5.59-3.64,7.57-6.17,1.02-1.32,2.13-2.61,2.35-4.32.2-1.55-.28-3.09-.97-4.46-.8-1.6-1.91-3.02-3.01-4.42-1.29-1.63-2.57-3.26-3.86-4.9-5.17-6.56-10.35-13.12-15.52-19.69-.64-.82-1.29-1.63-1.93-2.45-.16-.21-.45.09-.29.29,4.89,6.2,9.78,12.41,14.67,18.61,2.41,3.06,4.84,6.1,7.23,9.17,2.03,2.61,4.52,6.29,2.65,9.63-.88,1.57-2.18,2.97-3.29,4.39-1.01,1.29-2.07,2.66-3.58,3.39-3.36,1.62-6.95-.64-9.04-3.21s-3.71-5.74-4.98-8.83-2.22-6.33-2.89-9.61c-1.53-7.41-1.73-15.03-1.45-22.58,0-.26-.4-.26-.41,0h0Z"/>
    </g>
    <g>
      <path class="st5" d="M103.22,73.94c-1.31,7.22-7.35,12.54-13.28,16.86-5.51,4.02-11.26,7.72-17.21,11.07-1.79,1.01-3.89,2.7-3.2,4.64.99,2.76,5.73,1.22,7.73,3.37.86.92.99,2.32,1.74,3.33,1.09,1.45,3.26,1.7,4.97,1.06s3.04-1.96,4.31-3.25c7.66-7.76,15.32-16.07,18.81-26.39,1.17-3.46,1.79-7.46-.04-10.63"/>
      <path class="st2" d="M103.02,73.88c-1.5,7.96-8.4,13.34-14.62,17.77-3.74,2.67-7.57,5.19-11.51,7.55-1.01.61-2.02,1.2-3.04,1.79-.86.49-1.74.95-2.54,1.55-1.13.85-2.39,2.14-2.07,3.69.57,2.79,4.49,2.21,6.51,2.94.78.28,1.41.76,1.81,1.49.44.8.64,1.72,1.15,2.49.87,1.3,2.5,1.78,4,1.62,1.83-.2,3.36-1.34,4.66-2.57,1.49-1.4,2.89-2.9,4.3-4.38,2.84-2.98,5.59-6.06,8.07-9.36s4.63-6.76,6.27-10.51c1.54-3.52,2.97-7.58,2.19-11.46-.19-.92-.51-1.79-.97-2.61-.13-.23-.48-.02-.35.21,2.03,3.62.97,8-.41,11.66s-3.31,7.13-5.54,10.36-4.87,6.37-7.58,9.31c-1.34,1.46-2.71,2.89-4.1,4.3s-2.71,2.95-4.44,3.91c-1.56.87-3.75,1.14-5.2-.1-1.29-1.11-1.21-3.11-2.59-4.17-1-.76-2.31-.92-3.51-1.09s-2.75-.27-3.5-1.32c-1.21-1.69.59-3.44,1.91-4.34,1.69-1.15,3.55-2.07,5.3-3.13,3.76-2.27,7.44-4.68,11.02-7.22,5.75-4.09,12.03-8.79,14.5-15.7.3-.85.53-1.71.7-2.6.05-.26-.35-.37-.4-.11h0Z"/>
    </g>
    <g>
      <path class="st5" d="M112.23,74.45c.05,13.13,2.82,26.24,8.1,38.26,1.33,3.04,2.85,6.11,3.04,9.42-2.5-1.27-5.56-1.39-8.15-.31-1.61.67-3.33,1.8-4.96,1.16-1.04-.41-1.79-1.51-2.91-1.63-.89-.1-1.94.42-2.61-.18-.35-.31-.43-.82-.46-1.29-.36-4.85,1.88-9.46,2.92-14.21,1.03-4.69.88-9.55.97-14.36.13-7.79.87-15.57,2.22-23.25"/>
      <path class="st2" d="M112.02,74.45c.06,12.78,2.67,25.53,7.66,37.3,1.42,3.35,3.22,6.68,3.47,10.38l.31-.18c-1.85-.92-3.93-1.26-5.98-.97-1.04.15-2.01.48-2.96.91-1.08.49-2.25,1.16-3.48,1.06-1.1-.09-1.79-.96-2.7-1.47-.83-.47-1.57-.29-2.48-.23-.83.05-1.27-.37-1.37-1.19-.07-.57-.07-1.16-.05-1.74.04-1.2.22-2.4.47-3.57.5-2.32,1.28-4.56,1.92-6.84s1.06-4.69,1.26-7.1c.41-5.04.19-10.11.47-15.15.32-5.88,1-11.74,2.01-17.54.05-.26-.35-.37-.4-.11-.9,5.19-1.54,10.43-1.9,15.68s-.2,10.46-.49,15.68c-.15,2.63-.49,5.23-1.16,7.77-.62,2.33-1.42,4.61-1.98,6.95-.27,1.14-.47,2.29-.57,3.45-.08.99-.2,2.21.14,3.17.29.82,1.04,1,1.83.92.5-.05,1-.17,1.5-.05.53.13.97.48,1.39.8.89.67,1.75,1.1,2.9.93s2.21-.79,3.28-1.25c2.6-1.12,5.6-1.03,8.13.23.13.06.32-.01.31-.18-.21-3.08-1.47-5.91-2.7-8.69-1.34-3.01-2.54-6.08-3.58-9.21-2.03-6.14-3.44-12.49-4.2-18.91-.42-3.6-.64-7.23-.66-10.86,0-.26-.41-.26-.41,0h0Z"/>
    </g>
    <g>
      <path class="st5" d="M107.62,71.76c-.19,4.17-1.35,8.23-2.49,12.24-.54,1.88-1.08,3.77-1.83,5.59-3.36,8.12-10.53,13.9-16.71,20.15-.84.85-1.67,1.72-2.47,2.6-.17.18-.34.39-.37.63-.06.5.49.87.99.91s1-.14,1.5-.12c2.01.08,2.93,3.01,4.94,3.19,1.13.1,2.15-.75,3.28-.84,1.97-.15,3.33,1.9,5.09,2.8.37.19.81.32,1.18.13.28-.15.44-.46.67-.68,1.15-1.17,3.31.11,4.74-.7,1.02-.58,1.22-1.93,1.31-3.1,1.21-16.51,2.02-33.05,2.4-49.6"/>
      <path class="st2" d="M107.41,71.76c-.25,4.85-1.68,9.6-3.08,14.22-1.26,4.16-3.21,7.88-5.92,11.27-2.53,3.17-5.45,5.98-8.36,8.79-1.5,1.45-3,2.9-4.45,4.4-.42.43-.83.87-1.23,1.31-.26.29-.65.61-.78.99-.22.64.31,1.18.91,1.31.91.2,1.75-.3,2.64.19.65.36,1.15.96,1.66,1.49,1.06,1.09,2.15,1.74,3.69,1.2.95-.33,1.83-.81,2.86-.53.89.25,1.62.89,2.32,1.45.61.49,1.25,1.05,1.99,1.34.36.14.77.21,1.12.03.32-.16.49-.48.73-.73.66-.65,1.7-.46,2.54-.39.72.06,1.51.1,2.16-.28,1.49-.85,1.39-3.05,1.5-4.52.36-4.95.68-9.91.96-14.87.57-9.92.99-19.84,1.26-29.77.03-1.24.07-2.48.09-3.72,0-.26-.4-.26-.41,0-.23,9.56-.59,19.11-1.09,28.66-.25,4.75-.53,9.5-.85,14.25-.16,2.34-.26,4.69-.5,7.03-.09.9-.27,2.01-1.11,2.54-.72.45-1.64.29-2.44.23-.66-.05-1.4-.1-2.01.24-.31.17-.47.44-.71.68-.59.59-1.23.22-1.8-.15-1.31-.84-2.43-2.26-4.05-2.5s-3.21,1.46-4.83.49c-1.18-.71-1.85-2.09-3.13-2.66-.8-.36-1.51-.03-2.33-.1-.15-.01-.3-.03-.44-.11-.26-.14-.38-.54-.29-.83.07-.22.45-.53.61-.69.41-.44.82-.88,1.23-1.31,1.38-1.43,2.8-2.81,4.23-4.19,2.81-2.72,5.65-5.44,8.14-8.46s4.45-6.17,5.74-9.76c.77-2.16,1.37-4.38,1.98-6.59s1.17-4.43,1.51-6.69c.17-1.09.28-2.18.34-3.28.01-.26-.4-.26-.41,0h0Z"/>
    </g>
    <path class="st0" d="M119.18,74.54c.29-3.51-.57-7.11-2.41-10.12-.95-1.56-2.23-3-3.93-3.67-2.67-1.04-5.83.16-7.75,2.28s-2.8,4.99-3.26,7.82c-.1.65-.19,1.32-.01,1.95s.67,1.22,1.32,1.29c.52.06,1.02-.19,1.53-.26,1.76-.23,3.45,1.7,5.1,1.05.38-.15.7-.42,1.09-.54,1.64-.49,3.21,1.99,4.77,1.28.62-.28,1.12-1.04,1.77-.84.25.07.45.29.7.34.66.13.98-.77,1.02-1.43"/>
  </g>
</svg>