<?xml version="1.0" encoding="UTF-8"?>
<svg id="Layer_1" xmlns="http://www.w3.org/2000/svg" version="1.1" viewBox="0 0 280 280">
  <!-- Generator: Adobe Illustrator 30.2.1, SVG Export Plug-In . SVG Version: 2.1.1 Build 1)  -->
  <defs>
    <style>
      .st0 {
        isolation: isolate;
        opacity: .7;
      }

      .st1 {
        fill: #e07a5f;
      }
    </style>
  </defs>
  <g class="st0">
    <path class="st1" d="M167.39,140c0,15.13-12.27,27.4-27.4,27.4s-27.39-12.27-27.39-27.4,12.27-27.4,27.39-27.4,27.4,12.27,27.4,27.4h0Z"/>
    <path class="st1" d="M140,13.11h0c-70.07,0-126.89,56.81-126.89,126.89h0c0,70.07,56.81,126.89,126.89,126.89h0c70.07,0,126.89-56.81,126.89-126.89h0c0-70.07-56.81-126.89-126.89-126.89ZM220.75,173.73c-.39,8.74-1.79,14.72-3.82,19.94-2.1,5.4-4.92,9.99-9.48,14.56-4.57,4.57-9.16,7.38-14.55,9.47-5.22,2.03-11.21,3.42-19.95,3.82-8.77.4-11.57.5-33.89.5s-25.11-.1-33.88-.5c-8.74-.4-14.72-1.79-19.95-3.82-5.4-2.09-9.98-4.92-14.56-9.47-4.57-4.57-7.38-9.16-9.48-14.56-2.03-5.22-3.42-11.2-3.82-19.94-.4-8.77-.5-11.57-.5-33.89s.1-25.11.5-33.88c.4-8.74,1.79-14.72,3.82-19.95,2.1-5.4,4.92-9.98,9.48-14.55s9.16-7.38,14.56-9.48c5.22-2.03,11.21-3.42,19.95-3.82,8.77-.4,11.57-.5,33.88-.5s25.12.1,33.89.5c8.74.39,14.72,1.79,19.95,3.82,5.4,2.09,9.98,4.92,14.55,9.48,4.57,4.57,7.38,9.16,9.48,14.55,2.03,5.22,3.42,11.21,3.82,19.95.4,8.77.5,11.56.5,33.88s-.1,25.11-.5,33.89h0ZM203.14,91.38c-1.49-3.84-3.27-6.58-6.15-9.45-2.88-2.88-5.61-4.66-9.45-6.15-2.9-1.12-7.24-2.46-15.26-2.82-8.67-.4-11.27-.48-33.21-.48s-24.54.08-33.21.48c-8,.36-12.36,1.7-15.26,2.82-3.84,1.49-6.58,3.27-9.45,6.15-2.88,2.88-4.66,5.61-6.15,9.45-1.12,2.9-2.46,7.24-2.82,15.26-.4,8.66-.48,11.26-.48,33.21s.08,24.54.48,33.21c.37,8,1.7,12.36,2.82,15.26,1.49,3.84,3.27,6.58,6.15,9.45,2.88,2.88,5.61,4.65,9.45,6.14,2.9,1.13,7.24,2.46,15.26,2.83,8.66.4,11.26.48,33.21.48s24.55-.08,33.21-.48c8.02-.37,12.36-1.7,15.26-2.83,3.84-1.49,6.58-3.27,9.45-6.14s4.66-5.61,6.15-9.45c1.12-2.9,2.46-7.24,2.82-15.26.4-8.67.49-11.27.49-33.21s-.08-24.54-.49-33.21c-.37-8.02-1.7-12.36-2.82-15.26h0ZM139.07,182.04c-23.31,0-42.2-18.9-42.2-42.2s18.9-42.2,42.2-42.2,42.2,18.9,42.2,42.2-18.9,42.2-42.2,42.2h0ZM182.94,105.84c-5.45,0-9.87-4.41-9.87-9.86s4.41-9.87,9.87-9.87,9.87,4.42,9.87,9.87-4.42,9.86-9.87,9.86h0Z"/>
  </g>
</svg>