<?xml version="1.0" encoding="UTF-8"?>
<svg id="Layer_1" xmlns="http://www.w3.org/2000/svg" version="1.1" viewBox="0 0 400 400">
  <!-- Generator: Adobe Illustrator 30.2.1, SVG Export Plug-In . SVG Version: 2.1.1 Build 1)  -->
  <path d="M366.51,213.66L224.71,73.21c-11.9-11.79-28.99-17.48-45.5-15.37l-99.41,10.29L25.76,14.08c-3.06-3.05-8-3.05-11.06,0-3.06,3.05-3.05,8,0,11.06l54.01,54.01-11.31,103.78c-1.31,16.09,4.54,31.85,16.04,43.23l141.58,140.08c13.28,13.17,30.85,20.41,49.53,20.41h.28c18.77-.08,36.41-7.47,49.64-20.77l52.4-52.84c27.25-27.5,27.1-72.06-.37-99.36l.02-.02ZM355.78,302.02l-52.4,52.84c-10.28,10.37-23.97,16.1-38.59,16.17h-.22c-14.54,0-28.21-5.62-38.53-15.88L84.44,215.05c-8.22-8.14-12.4-19.37-11.48-30.66l9.93-91.09,27.68,27.68c-2.75,4.64-4.44,10-4.44,15.76,0,17.23,14.01,31.24,31.24,31.24s31.24-14.01,31.24-31.24-14.01-31.24-31.24-31.24c-5.78,0-11.12,1.69-15.76,4.44l-27.58-27.58,86.9-9h.22c11.89-1.62,24.07,2.51,32.6,10.96l141.78,140.44c21.37,21.23,21.49,55.9.28,77.26l-.03-.02ZM137.37,121.13c8.62,0,15.62,7,15.62,15.62s-7,15.62-15.62,15.62-15.62-7-15.62-15.62,7-15.62,15.62-15.62ZM309.67,219.29c-5.19-5.19-12.04-8.03-19.37-8.03h-.16c-7.4.03-14.31,2.97-19.48,8.25l-50.12,51.31c-10.48,10.71-10.36,28.02.27,38.61l22.49,22.41c5.19,5.15,12.04,8,19.35,8h.16c7.36-.05,14.23-2.95,19.38-8.18l50.29-51.09c10.53-10.7,10.45-28.02-.17-38.64l-22.65-22.62v-.02ZM321.36,269.59l-50.29,51.09c-2.22,2.26-5.19,3.5-8.34,3.53h-.06c-3.14,0-6.11-1.22-8.34-3.45l-22.49-22.41c-4.56-4.54-4.62-12.01-.11-16.6l50.12-51.31c2.23-2.28,5.2-3.55,8.39-3.56,3.23.36,6.17,1.2,8.4,3.45l22.65,22.62c4.58,4.58,4.61,12.04.08,16.63v.02Z"/>
</svg>