<?xml version="1.0" encoding="UTF-8"?>
<svg id="Layer_1" xmlns="http://www.w3.org/2000/svg" version="1.1" viewBox="0 0 280 280">
  <!-- Generator: Adobe Illustrator 30.2.1, SVG Export Plug-In . SVG Version: 2.1.1 Build 1)  -->
  <defs>
    <style>
      .st0 {
        fill: #e07a5f;
        isolation: isolate;
        opacity: .7;
      }
    </style>
  </defs>
  <path class="st0" d="M226.11,189.82l-21.57-24.97c-1.13-1.3-1.39-3.15-.66-4.73.72-1.58,2.29-2.58,4.02-2.58h1.39c3.9,0,7.33-2.06,9.14-5.52,1.81-3.47,1.58-7.45-.64-10.65l-26.83-29.52c-1.18-1.29-1.48-3.16-.77-4.76.71-1.61,2.29-2.64,4.04-2.64h7.68c3.43,0,6.4-1.76,7.93-4.72,1.44-2.8,1.22-6.01-.6-8.6l-40.38-45.62c-3.34-3.8-10.11-3.8-13.46,0l-9.49,10.72,26.02,29.43c4.07,5.72,4.53,12.36,1.53,18.15-2.7,5.21-7.79,8.67-13.59,9.37l20.61,22.71c4.42,6.34,4.88,13.93,1.56,20.25-2.18,4.13-5.7,7.24-9.88,8.9l16.73,19.4c4.97,7.17,5.49,15.92,1.66,23.22-.58,1.11-1.4,2.01-2.13,2.98h26.79c5.02,0,9.41-2.65,11.74-7.1h-.02c2.34-4.45,2.03-9.57-.82-13.72Z"/>
  <path class="st0" d="M181.88,189.83l-21.57-24.97c-1.13-1.3-1.39-3.15-.66-4.73.72-1.58,2.29-2.58,4.02-2.58h1.39c3.9,0,7.33-2.06,9.14-5.52,1.81-3.47,1.58-7.45-.64-10.65l-26.83-29.52c-1.18-1.29-1.48-3.16-.77-4.76.71-1.61,2.29-2.64,4.04-2.64h7.68c3.43,0,6.4-1.76,7.93-4.72,1.44-2.81,1.22-6.01-.6-8.6l-40.38-45.62c-3.34-3.8-10.11-3.8-13.46,0l-40.68,46c-1.53,2.21-1.75,5.42-.31,8.22,1.53,2.96,4.5,4.72,7.93,4.72h7.68c1.75,0,3.34,1.03,4.04,2.64.71,1.6.41,3.47-.77,4.76l-27.2,29.98c-1.85,2.74-2.08,6.72-.27,10.19,1.81,3.46,5.24,5.52,9.14,5.52h1.39c1.73,0,3.3,1.01,4.02,2.58.73,1.58.47,3.42-.66,4.73l-21.7,25.17c-2.73,4.11-3,9.14-.69,13.52,2.34,4.44,6.72,7.1,11.74,7.1h48.64v-84.06c0-2.44,1.98-4.42,4.42-4.42s4.42,1.98,4.42,4.42v84.06h48.63c5.02,0,9.41-2.65,11.75-7.11h0c2.33-4.44,2.03-9.57-.82-13.71Z"/>
  <path class="st0" d="M247.96,13.28h0s-215.99.01-215.99.01c-10.2-.11-18.57,8.07-18.7,18.27v216.87c.12,10.22,8.49,18.4,18.7,18.29h215.99c10.23.12,18.63-8.06,18.77-18.29V31.55c-.15-10.23-8.56-18.41-18.77-18.27ZM234.78,207.66c-3.84,7.3-11.34,11.83-19.58,11.83h-48.64v22.12c0,2.44-1.98,4.42-4.42,4.42s-4.42-1.98-4.42-4.42v-22.12h-35.39v22.12c0,2.44-1.98,4.42-4.42,4.42s-4.42-1.98-4.42-4.42v-22.12h-48.64c-8.25,0-15.74-4.53-19.58-11.83-3.84-7.29-3.31-16.04,1.36-22.84.1-.13,17.02-19.78,17.02-19.78-4.18-1.66-7.71-4.77-9.88-8.9-3.32-6.33-2.87-13.91,1.19-19.79l20.99-23.17c-5.8-.71-10.89-4.16-13.6-9.37-3-5.79-2.54-12.43,1.24-17.77l40.98-46.38c6.72-7.6,20.01-7.6,26.73,0l8.75,9.9,8.76-9.9c6.71-7.6,20.01-7.6,26.73,0l40.66,46c4.07,5.72,4.53,12.36,1.53,18.15-2.7,5.21-7.79,8.67-13.59,9.37l20.61,22.71c4.42,6.34,4.88,13.93,1.56,20.25-2.18,4.13-5.7,7.24-9.88,8.9l16.73,19.4h0c4.97,7.18,5.5,15.93,1.66,23.22Z"/>
</svg>