<?xml version="1.0" encoding="UTF-8"?>
<svg id="Layer_1" xmlns="http://www.w3.org/2000/svg" version="1.1" viewBox="0 0 280 280">
  <!-- Generator: Adobe Illustrator 30.2.1, SVG Export Plug-In . SVG Version: 2.1.1 Build 1)  -->
  <defs>
    <style>
      .st0 {
        fill: #9b89c4;
        opacity: .7;
      }
    </style>
  </defs>
  <path class="st0" d="M247.96,13.28h0s-215.99.01-215.99.01c-10.2-.11-18.57,8.07-18.7,18.27v216.87c.12,10.22,8.49,18.4,18.7,18.29h215.99c10.23.12,18.63-8.06,18.77-18.29V31.55c-.15-10.23-8.56-18.41-18.77-18.27ZM154.9,243.5h-29.94v-67.61h29.94v67.61ZM224.26,135.01h-51.22l36.44,35.41-19.98,20.12-49.5-49.74-49.5,49.74-20.04-20.04,36.46-35.41h-51.19v-28.49h50.95l-36.22-34.53,20.04-20.6,34.53,35.49v-50.46h29.94v50.46l34.53-35.41,20.02,20.52-36.2,34.45h50.93v28.49Z"/>
</svg>