<?xml version="1.0" encoding="UTF-8"?>
<svg id="Layer_1" xmlns="http://www.w3.org/2000/svg" version="1.1" viewBox="0 0 280 280">
  <!-- Generator: Adobe Illustrator 30.2.1, SVG Export Plug-In . SVG Version: 2.1.1 Build 1)  -->
  <defs>
    <style>
      .st0 {
        fill: #9b89c4;
      }

      .st1 {
        isolation: isolate;
        opacity: .7;
      }
    </style>
  </defs>
  <g class="st1">
    <path id="Path_2520" class="st0" d="M229.23,229.24h-37.56v-58.81c0-14.03-.25-32.07-19.53-32.07s-22.56,15.28-22.56,31.06v59.83h-37.54v-120.95h36.06v16.52h.5c7.36-12.56,21.02-20.07,35.57-19.53,38.07,0,45.08,25.04,45.08,57.6v66.36h-.02ZM69.66,91.75c-12.04,0-21.79-9.75-21.79-21.79s9.75-21.79,21.79-21.79,21.79,9.75,21.79,21.79-9.75,21.79-21.79,21.79h0M88.44,229.24h-37.59v-120.95h37.59v120.95ZM247.96,13.29H31.97c-10.2-.11-18.57,8.07-18.7,18.27v216.87c.12,10.22,8.49,18.4,18.7,18.29h215.99c10.23.12,18.63-8.06,18.77-18.29V31.55c-.15-10.23-8.56-18.41-18.77-18.27"/>
  </g>
</svg>