<?xml version="1.0" encoding="UTF-8"?>
<svg id="Layer_1" xmlns="http://www.w3.org/2000/svg" version="1.1" viewBox="0 0 251.29 80">
  <!-- Generator: Adobe Illustrator 30.2.1, SVG Export Plug-In . SVG Version: 2.1.1 Build 1)  -->
  <defs>
    <style>
      .st0 {
        fill: #a7c168;
      }

      .st1 {
        fill: #ff8080;
      }

      .st2 {
        fill: #e07a5f;
      }

      .st3 {
        fill: #ffcadc;
      }

      .st4 {
        fill: #ffa9ca;
      }

      .st5 {
        fill: #ffa4a4;
      }
    </style>
  </defs>
  <g>
    <path d="M5.82,61.5c-.17,0-.35-.04-.52-.11-.31-.14-.54-.35-.67-.64-.1-.18-.15-.38-.15-.59,0-.15,1.3-5.21,3.91-15.2.11-.36.32-.63.64-.8.21-.11.44-.16.69-.16.52,0,.9.23,1.14.67.11.21.16.44.16.67,0,.11,0,.23-.04.35l-3.88,14.84-2.44-1.05c1.02-1.64,2.02-3.29,3.01-4.97s2.01-3.35,3.06-5.01c.73-1.24,1.59-2.38,2.58-3.43,1.32-1.32,2.68-2,4.11-2.05,1.02,0,1.8.45,2.35,1.3.28.56.43,1.16.43,1.81,0,1-.16,2.09-.48,3.26l-.07.28c-.18.75-.38,1.48-.59,2.22-.55,1.98-.87,3.42-.98,4.3v-.09c0,.06,0,.11-.02.15-.03.16-.05.48-.07.95v.16c-.06-.15-.17-.28-.34-.39-.1-.06-.18-.09-.26-.09l-.05.02.07.02h.09s0-.02-.02-.02l-.15.04.21-.05c.09,0,.28-.06.57-.19.05-.03.11-.05.16-.05l-.11.04s.06-.05.21-.09l.59-.32.89-.57.09-.07-.07.05c.07-.05.15-.11.21-.16l.39-.32c.66-.59,1.46-1.43,2.38-2.49.38-.45.77-.89,1.17-1.32.26-.26.56-.39.89-.39.03,0,.13,0,.32,0s.41.14.68.38c.26.25.4.54.4.87,0,.03,0,.14,0,.33,0,.19-.14.43-.38.7-.38.41-.77.83-1.16,1.26-.89,1.06-1.86,2.04-2.88,2.94-1.03.91-2.22,1.57-3.58,1.97-.28.09-.56.13-.84.13-.21,0-.49-.04-.84-.12s-.67-.35-.96-.79c-.25-.4-.37-.83-.37-1.3,0-.55.05-1.06.13-1.55l.04-.28c.24-1.43.66-3.14,1.25-5.14.35-1.42.56-2.33.66-2.74,0-.03.04-.17.07-.45.03-.2.05-.31.07-.34l-.02.18c0-.07,0-.12.02-.13,0-.13,0-.23.02-.32v-.48l-.02-.2.02.13.02-.02v-.05s0-.05-.02-.09c0-.04-.02-.08-.03-.13s-.02-.08-.02-.09l-.02-.02s0,.03,0,.04c0,0,0,.04.02.07s.02.05.05.05l-.15-.26.13.18-.02-.02s-.03-.03-.04-.05-.03-.03-.04-.03l.05.02c.07.04.12.07.13.09l-.13-.07.09.04-.13-.02.02-.02.11.04s-.09,0-.13-.02h-.02c-.2.03-.39.07-.57.15-.05,0-.13.03-.23.07l.16-.09-.89.54s-.05.05-.07.05h-.02l.07-.05-.21.18c-.14.11-.26.23-.37.34-.38.38-.69.72-.91,1-.06.1-.11.15-.13.15l.09-.11c-.05.06-.08.1-.08.12s-.05.06-.12.14c-.55.81-1.06,1.61-1.57,2.42l-.05.07c-.82,1.34-1.63,2.68-2.44,4.04-1.02,1.71-2.06,3.41-3.11,5.11-.28.44-.67.66-1.16.66h-.03Z"/>
    <path d="M27.55,60.56l-.46-.02c-1.53-.17-2.6-.97-3.24-2.4-.34-.76-.5-1.53-.5-2.31s.15-1.49.43-2.26c1.32-3.54,3.05-6.01,5.2-7.39.98-.65,2.05-.96,3.2-.96.38,0,.78.05,1.19.13,1.47.34,2.54,1.16,3.22,2.49.32.65.48,1.35.48,2.1v1.97s0-.07.02-.07c0,.13,0,.23.04.32.04.15.05.28.05.39,0,.65-.32,1.08-.96,1.3-.13.04-.25.05-.37.05-.96,0-1.44-.85-1.44-2.55l-.05-1.73c0-.3-.04-.5-.07-.59.03.04.04.08.04.13l-.25-.43h.04l.04.09-.09-.09c-.16-.2-.3-.34-.41-.41,0,0,0,.02.02.03,0,0,.02,0,.03.02,0,0,.02,0,.03,0s.02,0,.02.02v-.02s-.1-.04-.23-.11c-.23-.14-.36-.22-.43-.25.03.03.05.04.07.04-.31-.11-.54-.16-.67-.16l.15.02c-.18,0-.36,0-.54-.02-.1,0-.22,0-.35.02-.4.07-.7.16-.91.28,0,0,0-.02.02-.02h.03s.02-.02.05-.03c-.05.05-.15.11-.3.18-.23.11-.44.24-.66.37-.03.03-.05.05-.06.05s-.03,0-.04.02l-.06.06v-.02l.07-.04c-.07.04-.16.11-.28.23-.3.26-.57.56-.82.87,0,0-.02,0-.03.02,0,0,0,.02-.02.03,0,0-.03.04-.06.08,0-.03.03-.04.04-.04,0,0-.02,0-.02.02l-.21.3c-.67.98-1.28,2.09-1.85,3.33l-.09.21c-.27.68-.44,1.26-.48,1.75l-.05.69c0,.08.06.32.18.69l-.04-.05c.17.36.27.55.31.56.03.02.05.04.06.06-.05-.06-.07-.11-.07-.13,0,0,0,.02,0,.03,0,0,0,.02.02.03,0,0,.05.05.12.13.15.15.24.23.26.23l-.05-.04s.06.05.08.06.07.05.15.08c.03,0,.04.03.04.04,0,0-.03-.02-.05-.03-.03,0-.04,0-.05-.02,0,0-.02-.02-.03-.03.04.04.16.08.37.13l-.11-.02c.2,0,.34,0,.43-.02l-.11.02c.26-.08.41-.13.45-.13l-.07.04c.25-.13.49-.26.73-.43,0,0,.03,0,.05-.03.02-.02.05-.04.08-.05.1-.06.15-.11.15-.13,0,0,0,.04-.04.05,2.74-2.28,5.22-4.84,7.45-7.67.21-.27.49-.41.84-.41s.65.1.89.3c.35.3.52.64.52,1,0,.23-.05.46-.16.71-.14.33-.26.66-.39.99-.51,1.43-.85,2.64-1,3.65h-.02l.02-.11c.07.65.28,1.14.64,1.47l-.05-.02h.04c.14.14.3.2.5.2l-.13.02.13-.04c1.14-.25,2.16-.71,3.06-1.37h-.02l-.05.05c1.14-.92,2.41-2.28,3.79-4.06.2-.26.46-.39.78-.39.04,0,.16,0,.37.02.21,0,.45.14.7.38.25.25.38.52.38.83,0,.04,0,.15-.02.34,0,.18-.13.42-.35.71-1.12,1.49-2.31,2.78-3.58,3.89-1.22,1.06-2.61,1.75-4.19,2.05-.14.03-.28.05-.45.05-.82.1-1.65-.1-2.48-.59-1.16-.71-1.75-1.75-1.75-3.13,0-.51.06-1.02.18-1.53.37-1.63.9-3.21,1.58-4.77l2.1,1.64c-2.07,2.66-4.39,5.09-6.93,7.3-1.36,1.18-2.59,1.76-3.72,1.73v-.03Z"/>
    <path d="M49.69,60.71c-.57,0-1.15-.08-1.73-.26-1.18-.38-2.06-1.13-2.63-2.24-.38-.89-.57-1.82-.57-2.78,0-1.16.24-2.61.71-4.34.95-3.98,2.26-7.7,3.93-11.17,1.14-2.46,2.47-4.35,3.97-5.68,1.13-.99,2.29-1.49,3.49-1.49l.39.02c1.64.18,2.72,1,3.24,2.46.14.42.21.85.21,1.26,0,1.29-.62,3.15-1.87,5.57-2.26,4.43-5.73,8.24-10.43,11.41-.21.13-.43.18-.66.18-.5,0-.89-.23-1.19-.67-.13-.21-.18-.43-.18-.66,0-.48.23-.88.69-1.2.46-.32.92-.65,1.37-.99,0,0,.03,0,.05-.03.03-.02.05-.03.05-.04,0,0,.05-.04.13-.1l-.05.04s.15-.12.32-.25c.83-.68,1.47-1.24,1.94-1.67.96-.92,1.94-1.97,2.92-3.13l.28-.37v.02l-.05.05s0-.03.04-.04l.11-.16c1.19-1.57,2.21-3.35,3.06-5.31,0-.05.03-.1.05-.14.03-.05.05-.09.07-.14l.02-.07v.04l-.04.04.04-.07c.27-.65.46-1.25.57-1.81.03-.07.04-.15.04-.23v.13h-.02l.02-.48c0-.16,0-.25-.02-.25l.02.05v.09h.02c0-.07-.02-.13-.05-.15v-.08s-.02-.04-.03-.06-.02-.05-.02-.07l.05.11-.05-.09s-.07-.09-.07-.13c0,0,.03.02.05.05l-.28-.28s.03.05.07.07c-.1-.07-.16-.12-.18-.13-.03,0-.04-.03-.04-.04h.04l.02.02-.52-.13h.02s.06.02.13.02c-.23,0-.42,0-.57.02l.09-.02s-.07.04-.15.04c-.06.03-.1.04-.12.04s-.05,0-.06.02c-.03,0-.05.02-.07.02l-.13.05.07-.04-.15.07c-.13.06-.25.13-.35.21-.06.05-.13.09-.21.13l-.05.02.07-.05s-.07.06-.09.08c-.03.02-.04.04-.04.05-.54.44-1,.91-1.39,1.44l-.04.05h-.02l-.05.07-.04.05c-.52.67-1.03,1.48-1.53,2.44-.58,1.13-1.12,2.29-1.62,3.49l-.05.15.04-.11v.04l-.23.5c-1.16,2.93-2.1,6.15-2.83,9.66,0,.11-.03.22-.05.32v.11l-.02.05.02-.15c0,.07,0,.11-.02.11-.04.38-.05.77-.05,1.16,0,.25,0,.49.04.73v.04l-.02-.04v-.02s.02.03.02.09c.09.41.15.64.21.69,0,.03,0,.05.04.07-.04,0-.05-.04-.05-.11h-.02l.02.02s0,.03,0,.05c0,.02.04.06.08.12.05.06.09.13.11.21l.02.04v-.02s-.02,0-.03-.02c0,0,0-.03-.02-.05,0-.02-.02-.03-.05-.03l.39.39s-.05-.03-.11-.09l.15.11.41.23s-.08-.02-.13-.05h-.02s.05.03.09.04l.16.05.37.09c.06,0,.11,0,.13.02h.05v.02s-.03,0-.05,0c-.03,0-.05-.02-.05-.03h-.05s.13.05.23.05c.23,0,.36,0,.41-.04.2,0,.32,0,.35-.02h.05l-.02.02h-.05l.04-.02h.05c.42-.06.82-.17,1.19-.34.06-.03.11-.04.13-.04l-.13.05.04-.02s.05-.04.07-.05c.03,0,.05-.02.07-.03.58-.25,1.61-.94,3.09-2.07.04-.05.09-.09.15-.11-.04.04-.07.05-.09.05v.02c.06-.05.1-.07.11-.08,0,0,.03-.02.04-.05l.23-.16c1.59-1.3,2.64-2.31,3.15-3.03.03,0,.05-.03.05-.05,0-.03.03-.04.04-.05,0,0,.02-.02.02-.03l-.04.05.05-.07c.32-.44.7-.66,1.14-.66.21,0,.44.05.69.16.46.27.69.67.69,1.21,0,.23-.07.44-.21.64-.38.51-.79,1-1.23,1.47-1.63,1.67-3.43,3.14-5.4,4.4-.89.59-1.87,1.03-2.92,1.3-.48.13-.96.18-1.46.18h-.04ZM62.64,42.42l-16.43-.23c-.38,0-.7-.15-.94-.4-.25-.25-.37-.56-.4-.94,0-.37.14-.69.4-.95.26-.26.58-.39.94-.39l16.43.23c.38,0,.7.15.94.39.25.25.37.56.4.95,0,.37-.13.68-.39.94s-.57.39-.95.4Z"/>
    <path d="M62.25,60.56l-.46-.02c-1.53-.17-2.6-.97-3.24-2.4-.34-.76-.5-1.53-.5-2.31s.15-1.49.43-2.26c1.32-3.54,3.05-6.01,5.2-7.39.98-.65,2.05-.96,3.2-.96.38,0,.78.05,1.19.13,1.47.34,2.54,1.16,3.22,2.49.32.65.48,1.35.48,2.1v1.97s0-.07.02-.07c0,.13,0,.23.04.32.04.15.05.28.05.39,0,.65-.32,1.08-.96,1.3-.13.04-.25.05-.37.05-.96,0-1.44-.85-1.44-2.55l-.05-1.73c0-.3-.04-.5-.07-.59.03.04.04.08.04.13l-.25-.43h.04l.04.09-.09-.09c-.16-.2-.3-.34-.41-.41,0,0,0,.02.02.03,0,0,.02,0,.03.02,0,0,.02,0,.03,0s.02,0,.02.02v-.02s-.1-.04-.23-.11c-.23-.14-.36-.22-.43-.25.03.03.05.04.07.04-.31-.11-.54-.16-.67-.16l.15.02c-.18,0-.36,0-.54-.02-.1,0-.22,0-.35.02-.4.07-.7.16-.91.28,0,0,0-.02.02-.02h.03s.02-.02.05-.03c-.05.05-.15.11-.3.18-.23.11-.44.24-.66.37-.03.03-.05.05-.06.05s-.03,0-.04.02l-.06.06v-.02l.07-.04c-.07.04-.16.11-.28.23-.3.26-.57.56-.82.87,0,0-.02,0-.03.02,0,0,0,.02-.02.03,0,0-.03.04-.06.08,0-.03.03-.04.04-.04,0,0-.02,0-.02.02l-.21.3c-.67.98-1.28,2.09-1.85,3.33l-.09.21c-.27.68-.44,1.26-.48,1.75l-.05.69c0,.08.06.32.18.69l-.04-.05c.17.36.27.55.31.56.03.02.05.04.06.06-.05-.06-.07-.11-.07-.13,0,0,0,.02,0,.03,0,0,0,.02.02.03,0,0,.05.05.12.13.15.15.24.23.26.23l-.05-.04s.06.05.08.06.07.05.15.08c.03,0,.04.03.04.04,0,0-.03-.02-.05-.03-.03,0-.04,0-.05-.02,0,0-.02-.02-.03-.03.04.04.16.08.37.13l-.11-.02c.2,0,.34,0,.43-.02l-.11.02c.26-.08.41-.13.45-.13l-.07.04c.25-.13.49-.26.73-.43,0,0,.03,0,.05-.03.02-.02.05-.04.08-.05.1-.06.15-.11.15-.13,0,0,0,.04-.04.05,2.74-2.28,5.22-4.84,7.45-7.67.21-.27.49-.41.84-.41s.65.1.89.3c.35.3.52.64.52,1,0,.23-.05.46-.16.71-.14.33-.26.66-.39.99-.51,1.43-.85,2.64-1,3.65h-.02l.02-.11c.07.65.28,1.14.64,1.47l-.05-.02h.04c.14.14.3.2.5.2l-.13.02.13-.04c1.14-.25,2.16-.71,3.06-1.37h-.02l-.05.05c1.14-.92,2.41-2.28,3.79-4.06.2-.26.46-.39.78-.39.04,0,.16,0,.37.02.21,0,.45.14.7.38.25.25.38.52.38.83,0,.04,0,.15-.02.34,0,.18-.13.42-.35.71-1.12,1.49-2.31,2.78-3.58,3.89-1.22,1.06-2.61,1.75-4.19,2.05-.14.03-.28.05-.45.05-.82.1-1.65-.1-2.48-.59-1.16-.71-1.75-1.75-1.75-3.13,0-.51.06-1.02.18-1.53.37-1.63.9-3.21,1.58-4.77l2.1,1.64c-2.07,2.66-4.39,5.09-6.93,7.3-1.36,1.18-2.59,1.76-3.72,1.73v-.03Z"/>
    <path d="M84.39,60.71c-.57,0-1.15-.08-1.73-.26-1.18-.38-2.06-1.13-2.63-2.24-.38-.89-.57-1.82-.57-2.78,0-1.16.24-2.61.71-4.34.95-3.98,2.26-7.7,3.93-11.17,1.14-2.46,2.47-4.35,3.97-5.68,1.13-.99,2.29-1.49,3.49-1.49l.39.02c1.64.18,2.72,1,3.24,2.46.14.42.21.85.21,1.26,0,1.29-.62,3.15-1.87,5.57-2.26,4.43-5.73,8.24-10.43,11.41-.21.13-.43.18-.66.18-.5,0-.89-.23-1.19-.67-.13-.21-.18-.43-.18-.66,0-.48.23-.88.69-1.2.46-.32.92-.65,1.37-.99,0,0,.03,0,.05-.03s.05-.03.05-.04c0,0,.05-.04.13-.1l-.05.04s.15-.12.32-.25c.83-.68,1.47-1.24,1.94-1.67.96-.92,1.94-1.97,2.92-3.13l.28-.37v.02l-.05.05s0-.03.04-.04l.11-.16c1.19-1.57,2.21-3.35,3.06-5.31,0-.05.03-.1.05-.14.03-.05.05-.09.07-.14l.02-.07v.04l-.04.04.04-.07c.27-.65.46-1.25.57-1.81.03-.07.04-.15.04-.23v.13h-.02l.02-.48c0-.16,0-.25-.02-.25l.02.05v.09h.02c0-.07-.02-.13-.05-.15v-.08s-.02-.04-.03-.06-.02-.05-.02-.07l.05.11-.05-.09s-.07-.09-.07-.13c0,0,.03.02.05.05l-.28-.28s.03.05.07.07c-.1-.07-.16-.12-.18-.13-.03,0-.04-.03-.04-.04h.04l.02.02-.52-.13h.02s.06.02.13.02c-.23,0-.42,0-.57.02l.09-.02s-.07.04-.15.04c-.06.03-.1.04-.12.04s-.05,0-.06.02c-.03,0-.05.02-.07.02l-.13.05.07-.04-.15.07c-.13.06-.25.13-.35.21-.06.05-.13.09-.21.13l-.05.02.07-.05s-.07.06-.09.08c-.03.02-.04.04-.04.05-.54.44-1,.91-1.39,1.44l-.04.05h-.02l-.05.07-.04.05c-.52.67-1.03,1.48-1.53,2.44-.58,1.13-1.12,2.29-1.62,3.49l-.05.15.04-.11v.04l-.23.5c-1.16,2.93-2.1,6.15-2.83,9.66,0,.11-.03.22-.05.32v.11l-.02.05.02-.15c0,.07,0,.11-.02.11-.04.38-.05.77-.05,1.16,0,.25,0,.49.04.73v.04l-.02-.04v-.02s.02.03.02.09c.09.41.15.64.21.69,0,.03,0,.05.04.07-.04,0-.05-.04-.05-.11h-.02l.02.02s0,.03,0,.05c0,.02.04.06.08.12.05.06.09.13.11.21l.02.04v-.02s-.02,0-.03-.02c0,0,0-.03-.02-.05,0-.02-.02-.03-.05-.03l.39.39s-.05-.03-.11-.09l.15.11.41.23s-.08-.02-.13-.05h-.02s.05.03.09.04l.16.05.37.09c.06,0,.11,0,.13.02h.05v.02s-.03,0-.05,0c-.03,0-.05-.02-.05-.03h-.05s.13.05.23.05c.23,0,.36,0,.41-.04.2,0,.32,0,.35-.02h.05l-.02.02h-.05l.04-.02h.05c.42-.06.82-.17,1.19-.34.06-.03.11-.04.13-.04l-.13.05.04-.02s.05-.04.07-.05c.03,0,.05-.02.07-.03.58-.25,1.61-.94,3.09-2.07.04-.05.09-.09.15-.11-.04.04-.07.05-.09.05v.02c.06-.05.1-.07.11-.08,0,0,.03-.02.04-.05l.23-.16c1.59-1.3,2.64-2.31,3.15-3.03.03,0,.05-.03.05-.05,0-.03.03-.04.04-.05,0,0,.02-.02.02-.03l-.04.05.05-.07c.32-.44.7-.66,1.14-.66.21,0,.44.05.69.16.46.27.69.67.69,1.21,0,.23-.07.44-.21.64-.38.51-.79,1-1.23,1.47-1.63,1.67-3.43,3.14-5.4,4.4-.89.59-1.87,1.03-2.92,1.3-.48.13-.96.18-1.46.18h-.04Z"/>
    <path d="M96.49,60.61c-.96,0-1.8-.3-2.51-.86-.95-.74-1.42-1.82-1.42-3.26,0-1,.26-2.31.8-3.93l.09-.34c.54-1.77,1.14-3.53,1.83-5.25.26-.63.7-.95,1.32-.95.5,0,.87.22,1.14.66.13.21.18.42.18.64,0,.13-.02.25-.05.37-.71,1.77-1.33,3.58-1.87,5.4l-.02.04c-.23.73-.42,1.47-.59,2.24-.05.21-.09.4-.11.56,0,.03,0,.04-.02.04l.02-.11c0,.06,0,.11-.02.15l-.02.8.02.11-.04-.11.13.52.04.11-.05-.15c.04.07.06.13.08.15.02.03.03.05.04.05,0,0,.02.03.03.04.05.05.07.08.07.11l-.07-.09v.02s.03.03.05.04.03.03.04.05c0,.02.03.04.05.05s.05.02.06.03c0,0,.03.02.04.03l-.11-.05.26.16s-.05-.04-.06-.04h0l.5.13-.13-.02h.56l.05-.02c.26-.04.52-.11.78-.23l-.07.04.05-.04s.07-.04.11-.04c.61-.31,1.32-.76,2.14-1.34l.54-.39.18-.15c1.22-.98,2.33-2.06,3.33-3.24.25-.26.55-.39.89-.39.03,0,.13,0,.32.02.18,0,.42.14.69.37.26.26.39.56.39.89,0,.03,0,.13-.02.31,0,.18-.14.41-.37.7-1.3,1.52-2.77,2.87-4.4,4.04-.71.55-1.47,1.04-2.29,1.47-.82.44-1.69.66-2.6.67h.03ZM98.2,42.55c-.18,0-.36-.04-.52-.11-.16-.06-.3-.15-.43-.28l-.25-.25c-.16-.16-.27-.36-.34-.59l-.05-.35c0-.3.11-.56.28-.79.17-.23.36-.37.56-.44.15-.07.32-.11.5-.11s.36.04.52.11c.15.05.32.16.5.35.27.27.44.53.5.76l.05.35c0,.3-.07.54-.23.73l-.15.2c-.11.13-.26.23-.45.3-.16.07-.34.11-.52.11h0Z"/>
    <path d="M107.81,60.56l-.46-.02c-1.53-.17-2.6-.97-3.24-2.4-.34-.76-.5-1.53-.5-2.31s.15-1.49.43-2.26c1.32-3.54,3.05-6.01,5.2-7.39.98-.65,2.05-.96,3.2-.96.38,0,.78.05,1.19.13,1.47.34,2.54,1.16,3.22,2.49.32.65.48,1.35.48,2.1v1.97s0-.07.02-.07c0,.13,0,.23.04.32.04.15.05.28.05.39,0,.65-.32,1.08-.96,1.3-.13.04-.25.05-.37.05-.96,0-1.44-.85-1.44-2.55l-.05-1.73c0-.3-.04-.5-.07-.59.03.04.04.08.04.13l-.25-.43h.04l.04.09-.09-.09c-.16-.2-.3-.34-.41-.41,0,0,0,.02.02.03,0,0,.02,0,.03.02,0,0,.02,0,.03,0s.02,0,.02.02v-.02s-.1-.04-.23-.11c-.23-.14-.36-.22-.43-.25.03.03.05.04.07.04-.31-.11-.54-.16-.67-.16l.15.02c-.18,0-.36,0-.54-.02-.1,0-.22,0-.35.02-.4.07-.7.16-.91.28,0,0,0-.02.02-.02h.03s.02-.02.05-.03c-.05.05-.15.11-.3.18-.23.11-.44.24-.66.37-.03.03-.05.05-.06.05s-.03,0-.04.02l-.06.06v-.02l.07-.04c-.07.04-.16.11-.28.23-.3.26-.57.56-.82.87,0,0-.02,0-.03.02,0,0,0,.02-.02.03,0,0-.03.04-.06.08,0-.03.03-.04.04-.04,0,0-.02,0-.02.02l-.21.3c-.67.98-1.28,2.09-1.85,3.33l-.09.21c-.27.68-.44,1.26-.48,1.75l-.05.69c0,.08.06.32.18.69l-.04-.05c.17.36.27.55.31.56.03.02.05.04.06.06-.05-.06-.07-.11-.07-.13,0,0,0,.02,0,.03,0,0,0,.02.02.03,0,0,.05.05.12.13.15.15.24.23.26.23l-.05-.04s.06.05.08.06.07.05.15.08c.03,0,.04.03.04.04,0,0-.03-.02-.05-.03-.03,0-.04,0-.05-.02,0,0-.02-.02-.03-.03.04.04.16.08.37.13l-.11-.02c.2,0,.34,0,.43-.02l-.11.02c.26-.08.41-.13.45-.13l-.07.04c.25-.13.49-.26.73-.43,0,0,.03,0,.05-.03.02-.02.05-.04.08-.05.1-.06.15-.11.15-.13,0,0,0,.04-.04.05,2.74-2.28,5.22-4.84,7.45-7.67.21-.27.49-.41.84-.41s.65.1.89.3c.35.3.52.64.52,1,0,.23-.05.46-.16.71-.14.33-.26.66-.39.99-.51,1.43-.85,2.64-1,3.65h-.02l.02-.11c.07.65.28,1.14.64,1.47l-.05-.02h.04c.14.14.3.2.5.2l-.13.02.13-.04c1.14-.25,2.16-.71,3.06-1.37h-.02l-.05.05c1.14-.92,2.41-2.28,3.79-4.06.2-.26.46-.39.78-.39.04,0,.16,0,.37.02.21,0,.45.14.7.38.25.25.38.52.38.83,0,.04,0,.15-.02.34,0,.18-.13.42-.35.71-1.12,1.49-2.31,2.78-3.58,3.89-1.22,1.06-2.61,1.75-4.19,2.05-.14.03-.28.05-.45.05-.82.1-1.65-.1-2.48-.59-1.16-.71-1.75-1.75-1.75-3.13,0-.51.06-1.02.18-1.53.37-1.63.9-3.21,1.58-4.77l2.1,1.64c-2.07,2.66-4.39,5.09-6.93,7.3-1.36,1.18-2.59,1.76-3.72,1.73v-.03Z"/>
    <path d="M144.77,64.65c-.38,0-.76-.1-1.12-.3-.57-.36-.9-.85-.98-1.47-.03-.21-.04-.42-.04-.64,0-.4.05-.79.15-1.19.44-1.67,1.57-3.23,3.39-4.7,3.06-2.56,6.54-4.2,10.47-4.93l.32-.02c.62,0,1.06.32,1.32.96.04.11.05.23.05.35,0,.21-.07.46-.23.75-.15.28-.4.46-.76.54-.93.16-1.85.38-2.76.67-.37.13-.93.33-1.66.61h-.04l-.05.04.11-.05s-.03.02-.05.03c-.02,0-.04.02-.06.03-.03,0-.05.02-.05.02-1.46.63-2.82,1.44-4.11,2.42l-.11.05.07-.05-.13.13c-.23.16-.48.37-.76.64-.51.44-.95.87-1.32,1.3l-.25.28.07-.09s0,.03-.04.04c-.45.69-.67,1.06-.67,1.1l-.02.07.05-.13c-.05.11-.09.23-.11.34-.1.26-.15.45-.15.56l-.02.07v-.09s.02.04.02.11c0,.1,0,.17-.02.23v.13l-.02-.11.04.11-.05-.09c-.05-.13-.13-.23-.25-.32l-.32-.07v-.02l.04.02h.11s-.04-.02-.11-.02l-.02.04.07-.02s.09-.02.16-.05c.07-.04.13-.05.15-.05h-.02l-.11.07c.66-.33,1.28-.7,1.88-1.14l.07-.05v.02l-.07.05.25-.21c.55-.49.95-.88,1.19-1.16l.39-.46s.02-.04.05-.06.05-.05.05-.06v.02l-.07.09.05-.09c.11-.11.33-.45.66-1,.33-.56.55-.99.66-1.28l-.05.13.05-.11c.24-.67.4-1.2.49-1.59.09-.39.15-.63.15-.7s.02-.15.02-.21v.09c.04-.38.06-.77.07-1.16,0-.4-.02-.69-.05-.87,0,0,.02.04.02.06s0,.05.02.06v-.04s-.09-.18-.11-.41c0-.03,0-.05-.02-.07s-.02-.05-.03-.05c0,0-.02-.05-.03-.09l.05.11-.15-.28s-.05-.06-.05-.09l-.02-.02s.05.03.05.09l-.05-.09-.25-.23s.02,0,.02,0,.03.03.09.06c-.03,0-.05-.02-.09-.05-.04-.03-.07-.05-.11-.07s-.09-.04-.16-.06l.13.05s-.03,0-.05-.02c-.02,0-.05-.02-.07-.03s-.05,0-.07-.02c-.02,0-.04-.02-.05-.03l-.11-.02s-.06,0-.07-.02c-.28,0-.45,0-.48.02h-.09l.11-.02s-.05.02-.08.02-.18.04-.46.11l-.09.04c-.23.08-.54.27-.95.56,0,0-.03,0-.04.02,0,0-.03.03-.04.04h-.02l-.02.02-.15.13c-.99.82-2.02,1.9-3.08,3.26.03-.04.05-.06.05-.07h.02-.02v.02s-.04.05-.07.09c-.09.09-.16.19-.23.3-1.09,1.46-2.04,3.1-2.83,4.93-.21.44-.59.66-1.14.66-.18,0-.36-.04-.54-.11-.31-.14-.54-.35-.67-.64-.1-.2-.15-.4-.15-.61,0-.11,0-.23.04-.34.88-3.75,1.89-7.47,3.04-11.16,1.06-3.35,2.41-6.58,4.08-9.68.31-.61.75-1.38,1.32-2.31,1.12-1.77,2.41-2.88,3.88-3.29.3-.08.59-.13.87-.13.58,0,1.16.17,1.71.52,1.09.79,1.64,1.9,1.64,3.33,0,1.12-.49,2.44-1.47,3.97-2.36,3.62-5.32,6.38-8.88,8.27-.24.11-.46.16-.69.16-.11,0-.27-.03-.49-.08-.22-.05-.44-.25-.66-.56-.13-.2-.18-.41-.18-.63,0-.55.23-.95.67-1.19,1.09-.58,2.13-1.25,3.11-1.99l-.05.05h-.02l.16-.13h.02c.78-.62,1.58-1.37,2.4-2.24.42-.47.82-.95,1.19-1.42l-.04.05.04-.07.23-.28c.76-1.05,1.33-1.98,1.71-2.81.05-.07.07-.13.07-.15v.05l-.04.05v-.05c.09-.16.16-.44.25-.82l.02-.11h.02v.07l-.02.02s-.02-.11-.02-.21l.02-.13c0-.06-.02-.14-.02-.23v.05l-.13-.39s.02,0,.02.02c0,0,0,.04.04.07-.06-.13-.13-.25-.21-.35l.05.09-.18-.23.02.02s.03.03.05.05.04.03.05.03c-.15-.07-.24-.13-.26-.15v-.02l.09.04v.02h-.04c-.09-.04-.17-.05-.26-.05h.15l-.09.02h-.21l.04.02s.06,0,.07-.02h.02s0-.02-.02-.02c0,0-.04.03-.08.04-.05,0-.09.03-.14.05-.05.02-.1.04-.15.05l.11-.05h.02l-.04.02c-.17.08-.35.19-.54.32-.04.04-.06.06-.07.06s-.02.02-.02.03l.09-.09c-.09.09-.15.15-.18.16-.11.1-.23.21-.34.34l-.46.52.05-.07s0,.04-.04.06-.05.06-.07.11-.05.08-.07.1c-1.3,1.91-2.5,4.15-3.59,6.71l-.13.3s.04-.05.04-.05,0-.03.02-.04c0,0-.02.03-.02.05s-.02.05-.05.08c-.3.74-.57,1.47-.84,2.19-1.24,3.35-2.56,7.94-3.95,13.76l-2.44-1.05c.89-2.05,2.03-3.95,3.4-5.7,1.63-2.15,3.22-3.65,4.79-4.5.77-.36,1.55-.54,2.35-.54.26,0,.73.05,1.41.15.67.1,1.35.65,2,1.64.46.82.69,1.72.69,2.7v.82c0,.52-.14,1.24-.37,2.14-.42,1.75-1.18,3.35-2.29,4.8-1.1,1.45-2.45,2.59-4.04,3.46-.77.44-1.46.66-2.05.66l-.03.05Z"/>
    <path d="M162.78,60.56c-.76,0-1.51-.15-2.28-.43-1.4-.55-2.41-1.5-3.01-2.87-.42-.93-.64-1.9-.64-2.9,0-.44.04-.88.11-1.34.47-2.64,1.74-4.83,3.79-6.55,1.05-.86,2.19-1.49,3.45-1.88.69-.21,1.41-.32,2.14-.32,2.12,0,3.39.63,3.78,1.9.06.2.09.4.09.62,0,.58-.21,1.18-.62,1.81-1.85,2.79-4.91,4.48-9.2,5.04-.36.05-.69.07-.98.07-1.32,0-1.97-.49-1.97-1.49,0-.26.05-.56.15-.91.31,0,.74-.03,1.28-.09l.54-.07c1.3-.17,2.57-.49,3.79-.95l.45-.16c.86-.34,1.57-.73,2.16-1.19v-.02l-.09.09c.59-.47,1.05-.92,1.36-1.34l-.07.07.13-.18c.2-.26.32-.46.35-.57v.04h-.02l.02-.02v-.05s.02-.03.03-.05c0-.03,0-.05,0-.09l-.02.15v-.11c0,.11.05.25.16.39l.02.02-.05-.02s.06,0,.09.04l-.82-.18s.09,0,.11.02c-.21-.03-.43-.04-.66-.04-.31,0-.55,0-.71.02l.07-.02s-.02.02-.05.02-.07,0-.12.02c-.73.19-1.14.31-1.23.35,0,0-.04.02-.07.02l.07-.02-.04.02c-.47.21-1,.53-1.6.95l.11-.09c-.66.54-1.18,1.05-1.57,1.55l-.05.05.04-.05c-.46.65-.83,1.26-1.1,1.85,0,.03-.02.05-.03.06,0,.02,0,.04,0,.05-.2.46-.36,1.06-.5,1.78l-.02.09c-.03.09-.04.47-.04,1.16,0,.27,0,.43.04.46v.04l-.04-.15s.02.05.02.09c0,.15.08.44.25.86,0,.05.03.08.04.09,0,0-.02,0-.02-.02v-.05l-.02-.02c.13.27.26.52.41.73,0,0,.02,0,.02.02v-.03s-.03-.03-.06-.06l.54.52h-.02l-.07-.07h.02s.05.05.15.11c.25.17.46.3.66.37l-.13-.05h.04c.06.06.34.15.82.26.06,0,.13.02.21.02l-.15-.02h.09l.02.02h.95s.08-.04.16-.04l-.02.02-.07.02h-.04s0-.02.04-.02c.07,0,.13,0,.15-.04.58-.08,1.21-.36,1.88-.82l.28-.2-.05.05v-.02c.24-.14.65-.55,1.23-1.23l.02-.02-.02.04c.24-.27.47-.67.71-1.21l.05-.11v.04s0-.03,0-.05c0-.03,0-.05.02-.06,0-.02,0-.03.02-.03s.05-.19.15-.56l.13-.54c0,.09,0,.13-.02.13l.02-.84c0-.08,0-.14-.02-.15,0,0,.02.03.02.05s0,.04.02.05v.05l-.16-.64s.02.03.02.04v.05s.02.04.03.04l-.28-.48h.02l.07.07v.02s-.12-.05-.21-.16c-.03-.04-.05-.06-.09-.09l1.9-1.9.41.34.26.23c.05.2.35.52.91.96l.11.07.07.02c.93.42,2.1.66,3.5.73,1.29.05,1.97.35,2.03.91.11.89-.53,1.34-1.92,1.32-1.32,0-2.49-.12-3.54-.35-1.1-.26-2.35-1.05-3.72-2.35-.26-.25-.38-.54-.37-.87v-.32c0-.19.13-.41.37-.68s.54-.39.87-.38h.32c.18,0,.41.13.67.39.95.89,1.42,2.06,1.42,3.49,0,.69-.2,1.54-.58,2.53-.39.99-1.06,1.95-1.98,2.87-1,.99-2.17,1.69-3.52,2.08-.59.17-1.19.26-1.79.26l.05-.03Z"/>
    <path d="M174.99,60.97c-.17,0-.35-.04-.5-.11-.55-.24-.82-.65-.82-1.23,0-.11,0-.23.04-.35l3.37-14.38c.1-.36.31-.63.64-.8.23-.11.46-.16.69-.16.52,0,.9.23,1.14.67.11.23.16.46.16.69,0,.16-1.14,5.06-3.4,14.7l-2.46-1.03c.96-2.17,2.02-4.29,3.19-6.33,1.06-1.88,2.34-3.61,3.82-5.18,1.39-1.49,2.67-2.4,3.84-2.74.25-.07.5-.11.76-.11.5,0,1,.15,1.51.43.62.4,1.02.95,1.21,1.66.06.3.1.59.13.89l.04.32-.02-.07.02.16c.1.37.16.58.18.65.03.05.04.1.04.14l-.02-.07.26.52.28.41-.07-.09c.34.34.54.53.59.57l.04.05-.02-.02s0-.02-.03-.03c-.02,0-.03,0-.04-.02s-.02,0-.03,0v-.02h.02s0,.02.04.03.05.04.08.06.28.18.76.46c.3.16.46.25.46.25h.04l-.04-.04s-.08-.02-.13-.02c.04,0,.07,0,.1.03.03.02.05.03.08.03.16.06.32.11.48.13l.23.05h.05c-.06,0-.1,0-.11-.02h-.02.05c.5.05.99.07,1.47.07.38,0,.7.15.96.41s.38.59.38.99c0,.35-.13.65-.39.89s-.57.38-.95.39h-.37c-.85,0-1.67-.11-2.49-.34-2.14-.75-3.55-2.07-4.25-3.97-.25-.71-.37-1.37-.37-2.01v.13l-.04-.23v-.11l.02.11-.05-.09.02.02.13.09-.16-.11.13.05-.18-.05h.15-.02s-.05.02-.09.02c0,0-.03,0-.05,0-.02,0-.05,0-.09,0s-.06,0-.06-.02h.16l-.45.11s.03-.04.09-.04l-.04.02s-.08.07-.23.15c-.14.07-.28.17-.45.3l.07-.05-.02.02s-.06.05-.11.07l-.05.05c-1.01.81-1.91,1.72-2.7,2.74l-.16.18c-.03.07-.05.13-.09.15l-.05.04s.02,0,.03-.02c0,0,0-.02.02-.03,0,0,.02-.02.03-.05l-.91,1.28c-1.34,2.02-2.77,4.71-4.27,8.08-.23.45-.62.67-1.17.67l-.02.03Z"/>
    <path d="M193.67,76.46c-.62,0-1.22-.16-1.81-.48-1.19-.67-1.78-1.73-1.78-3.17.36-2.53,3.45-6.95,9.27-13.26,1.98-2.01,4.99-4.42,9.01-7.23.25-.11.47-.16.69-.16.44,0,.81.23,1.12.67.14.2.21.42.21.66,0,.55-.23.93-.67,1.16-3.3,1.63-6.44,4.2-9.43,7.72-2.98,3.52-5.13,6.15-6.43,7.89l.07-.09v-.02l-.07.07c-.16.18-.46.7-.87,1.55l.05-.11s-.06.09-.07.15c-.14.38-.21.67-.21.86h-.02l.02-.15-.02.43c0,.1,0,.15.02.16l-.02-.16c.03.15.05.24.05.25s.03.08.05.2h-.02l-.05-.13s.02,0,.03.02c0,0,.02.03.03.05,0,.02.02.04.03.05,0,0,.04.05.08.13l-.07-.09v-.02s.02,0,.02,0c0,0,0,.02.02.03.03.06.05.1.06.1s.03,0,.03.02c0,0,.02.02.05.05.03.03.05.05.08.05.03,0,.04.03.04.04l-.13-.07s.04,0,.06.04c.03.03.06.05.11.05.05,0,.06.04.06.07,0,0-.04-.02-.06-.03-.04,0-.05-.02-.05-.05l.04.02c.13.05.23.07.32.07h-.15s0-.02.02-.02h.2c.19,0,.3,0,.35,0h-.11c.36-.07.66-.16.87-.26l-.09.04s.09-.07.21-.13c.48-.26.79-.44.91-.54h.02l-.11.07c.06-.04.12-.08.16-.13.69-.58,1.36-1.28,1.99-2.1l-.07.09.07-.11c.58-.81,1.14-1.75,1.67-2.83.03-.05.05-.1.07-.14.03-.05.05-.08.05-.12s.03-.06.04-.07l-.04.11.04-.13c.35-.85.61-1.72.78-2.63.03-.14.05-.27.09-.41l-.02.07v.04c.05-.38.07-.79.07-1.23,0-.14,0-.25-.02-.36,0-.11-.02-.2-.02-.29l-.02-.02v-.15s.02.05.02.09c-.04-.04-.06-.11-.07-.2-.05-.27-.11-.54-.18-.8,0,0-.03-.02-.04-.06s-.03-.08-.04-.1l.02.02c-.15-.33-.35-.65-.57-.96,0,0,.03.05.07.09t0,0c-.07-.07-.12-.13-.13-.15-.25-.25-.44-.42-.56-.52l.07.07h.02l-.04-.02c-.14-.14-.33-.26-.56-.39-.05-.03-.12-.05-.2-.05v-.02l.13.05c-.16-.06-.33-.12-.5-.16-.05,0-.11-.02-.16-.02l-.02-.02s-.02,0-.02.02h.11c-.71,0-1.17-.28-1.39-.84-.06-.16-.09-.32-.09-.48,0-.32.13-.64.39-.95l5.32-6.37c.36-.42.64-.83.82-1.23l-.02.07.04-.07c.07-.18.13-.46.15-.8,0,.03.02.05.02.09l-.13-.45c.42.34.85.66,1.28.98-.77-.05-1.54-.07-2.31-.07-1.47,0-2.76.11-3.84.34s-1.88.95-2.39,2.17c-.42,1-.87,1.81-1.36,2.42-.14.19-.32.28-.54.28-.48,0-.87-.23-1.17-.69-.14-.2-.18-.4-.13-.62.23-.88.47-1.74.76-2.57s.56-1.52.86-2.07c.56-.99,1.69-1.57,3.41-1.73,1.51-.15,2.96-.23,4.34-.23.79,0,1.59.03,2.38.09.99.09,1.49.85,1.49,2.28,0,1.29-.8,2.85-2.4,4.68l-4.71,5.36c-.31-.77-.63-1.53-.95-2.29,1.19.08,2.23.49,3.1,1.2s1.53,1.62,1.97,2.71c.36.92.54,1.87.54,2.83,0,1.38-.28,2.82-.86,4.32-.72,1.91-1.73,3.66-3.02,5.23-1.44,1.77-2.97,2.87-4.58,3.31-.38.1-.76.15-1.14.15l-.03-.04Z"/>
    <path d="M206.37,77.55c-.37,0-.74-.05-1.1-.16-1.02-.41-1.62-1.09-1.8-2.05-.08-.42-.13-.85-.13-1.26,0-.54.07-1.07.21-1.62.55-2.31,1.76-4.44,3.63-6.41,1.74-1.81,3.6-3.47,5.61-4.96s4.03-2.95,6.09-4.35c1.97-1.34,3.91-2.72,5.82-4.15.2-.14.41-.2.64-.2.51,0,.91.23,1.19.69.13.21.18.43.18.66,0,.45-.23.84-.67,1.17-1.28.99-3.62,2.66-7.02,4.99-2.25,1.55-3.79,2.68-4.66,3.37-.04,0-.07.04-.1.06s-.06.05-.1.08l.05-.05h.02l-.26.21c-2,1.49-3.81,3.15-5.44,4.99l-.28.34v.02c-.06.06-.09.1-.09.11h-.02l.05-.07v.02l-.07.09c-.48.65-.91,1.34-1.28,2.08-.13.25-.19.4-.2.45l.04-.07-.09.2c-.19.48-.35,1.01-.48,1.58-.03.2-.05.34-.07.41v.07h-.02l.02-.11-.02.71c0,.14,0,.23.02.28,0,0-.02-.03-.02-.07l-.02-.07h.02v.07l.02.05c.05.13.07.21.07.26,0,0-.02,0-.03-.02,0,0,0-.03-.02-.05,0-.02,0-.05,0-.1l.11.2h-.02s-.06-.06-.08-.09c-.02-.03-.03-.05-.03-.05,0,0,.03,0,.04.02,0,0,.03.03.05.04s.04.03.05.05c0,0-.03,0-.05-.03s-.05-.04-.08-.06l-.05-.04s.06.03.08.05c.02.02.04.04.06.05.03,0,.04.02.05.02s0,0,0,.02l-.18-.07v-.02s.05.02.07.03c.03,0,.05,0,.09.02s.07,0,.1.02c.04,0,.05.02.05.03l-.02-.02-.23-.02h.56s-.08.02-.16.02h-.04c.06,0,.12,0,.16-.04.08,0,.28-.05.57-.15l.15-.05.18-.09c.28-.13.66-.35,1.12-.66,0,0,0-.03.04-.05.03-.02.05-.04.07-.05s.05-.03.05-.04h-.02c-.06.06-.1.09-.1.09,0,0,0,0,0,.02l.48-.43c.56-.56,1.08-1.15,1.57-1.77l-.04.05.37-.5c.83-1.18,1.65-2.6,2.44-4.27.2-.42.35-.74.43-.95l.02-.04s0-.05.02-.07c0-.03.03-.05.04-.05l-.04.07.09-.2s0-.05.02-.05c1.06-2.68,2.55-7.12,4.43-13.3.44-1.44.88-2.88,1.34-4.32.96.42,1.78.76,2.44,1.02-.82,1.87-1.85,3.62-3.09,5.23-1.42,1.87-2.77,3.25-4.06,4.13-.95.64-1.96.95-3.03.95-.78,0-1.52-.24-2.19-.71-.89-.71-1.4-1.59-1.51-2.64-.04-.37-.05-.74-.05-1.1,0-.68.06-1.37.18-2.05.31-1.97.95-3.8,1.9-5.53.24-.44.62-.66,1.16-.66.24,0,.46.05.67.16.44.24.66.62.66,1.16,0,.24-.05.46-.16.67-.24.42-.45.86-.64,1.3l-.07.16c-.44,1.16-.71,2.17-.84,3.04l-.07.39.02-.04v-.04s-.02.06-.02.11c-.06.55-.09,1.08-.09,1.6,0,.28,0,.48.02.57l-.02-.11.11.43s.02.03.02.05l-.04-.11s.02.08.05.13l.02.02s.02.05.05.08c.03.04.05.05.05.06l-.09-.09v-.02h.02s0,0,0,.02c0,0,.04.04.1.1,0,0,0,.03.04.05s.05.03.05.03v.02l-.13-.07s.05.03.07.05.05.04.07.05.05.02.06.03c.02,0,.04.02.06.03.03,0,.05.02.05.03,0,0,.02.02.02.03l-.02-.02s-.06-.03-.13-.04c.26.08.43.14.5.15l.11.02s-.06,0-.07-.02c-.06,0-.09,0-.09-.02.05.03.11.04.16.04.07,0,.15,0,.2-.02h.09l.2-.04c.19-.04.37-.09.56-.16l-.09.04.05-.04s.05-.04.09-.04c.26-.13.52-.28.76-.48,0,0,.02,0,.03,0l.06-.06-.07.05s.1-.1.18-.15c.15-.13.3-.26.45-.41,2.28-2.18,4.07-4.74,5.34-7.67.21-.44.59-.66,1.16-.66s.94.25,1.21.75c.08.17.13.36.13.56s-.23.96-.67,2.35l-2.68,8.55c-.65,2.12-1.36,4.23-2.14,6.32-.83,2.25-1.9,4.38-3.2,6.39-.56.86-1.18,1.69-1.87,2.48-1.33,1.53-2.79,2.5-4.4,2.94-.37.11-.75.16-1.12.16h.05Z"/>
    <path d="M225.45,60.78c-.46,0-.83-.19-1.1-.57-.15-.2-.23-.45-.23-.75.46-4.7,1.41-9.29,2.85-13.8,1.16-3.79,2.29-6.79,3.4-9.01l.09-.18c.37-.79.83-1.57,1.37-2.3.55-.74,1.26-1.21,2.16-1.43.2-.04.39-.05.57-.05.67,0,1.26.25,1.77.76.49.62.76,1.34.8,2.14,0,.77-.08,1.46-.25,2.05l-.02.05c-.55,2.41-1.49,4.81-2.83,7.23-1.74,3.03-3.78,5.84-6.12,8.44-.25.26-.55.39-.89.39-.03,0-.13,0-.32-.02-.18,0-.41-.14-.67-.37-.26-.24-.39-.52-.39-.84v-.34c0-.2.14-.44.37-.73.69-.78,1.47-1.7,2.31-2.76.03-.05.05-.09.09-.13v.02l-.07.07s.31-.38.86-1.14c1.64-2.28,2.92-4.5,3.86-6.69l-.02.07s0-.06.04-.1c.03-.05.05-.09.06-.15.02-.05.04-.12.06-.19.59-1.47.99-2.82,1.19-4.04,0-.15.03-.27.07-.37-.04.07-.05.14-.05.18l.04.02c0-.15,0-.25.02-.28l-.02-.43.02.02v.11s-.02-.06-.03-.11c0-.05-.02-.11-.05-.16-.03-.06-.05-.13-.05-.19,0,.07.02.12.03.13,0,0,.02.03.05.05l-.02-.07h-.02c-.05-.1-.07-.16-.07-.19l.11.13v.04s-.04-.02-.07-.05l-.05-.05.18.15s-.05-.05-.05-.05v-.02h.04l.07.05s.02,0,.02.02l-.09-.02h.15s.02,0,.02.02h-.15l.07-.04h.09s-.12.05-.28.09l.11-.04s-.03.02-.05.03c-.02,0-.04,0-.05,0l-.18.13v-.02l.09-.05s-.03,0-.05.04c-.03.03-.05.04-.05.05,0,0-.02.02-.02.03-.07.06-.14.13-.18.21,0,0,0-.03.02-.04,0,0,.02-.03.03-.04,0,0,.02-.03.03-.04,0,.03-.03.07-.07.13-.67,1.02-1.26,2.08-1.78,3.2-.23.52-.35.79-.35.81s-.02.04-.02.06l-.02.04h-.02l.05-.09s-.02.03-.02.05c-.67,1.64-1.29,3.37-1.87,5.2-1.12,3.34-1.93,6.45-2.44,9.35-.35,1.87-.59,3.56-.73,5.05-.77-.31-1.53-.63-2.29-.95l1.46-1.6c2.69-2.94,4.7-5.19,6.03-6.72,1.06-1.26,2.17-2.47,3.29-3.63.93-1.03,1.86-1.59,2.78-1.69.85,0,1.55.25,2.12.77.57.52.86,1.14.86,1.86,0,.16,0,.33-.04.48-.24,1.12-.67,2.15-1.3,3.1-.64.95-1.38,1.79-2.26,2.52-1.77,1.47-3.76,2.53-5.98,3.17l.8-1.97c.3.51.62,1,.96,1.49l-.02-.02c.08.08.22.25.39.46.18.2.38.38.59.56l.07.07s-.04,0-.05-.03c-.03-.02-.04-.04-.04-.05l.46.3s.03,0,.04.02c0,0,.03.02.04.02s.05.03.13.07l-.07-.05.04.02c.07.04.13.06.15.06s.05.02.06.03c.14.04.27.06.41.07-.05,0-.09,0-.11-.02h.13l.07.02c.14,0,.21,0,.23-.02h.07l.09-.02s.09,0,.12-.02c.03,0,.06-.02.1-.02.24-.07.46-.15.69-.25l-.07.04.13-.05c.83-.38,1.67-.91,2.51-1.57l.15-.13c.48-.37.99-.82,1.53-1.33.54-.52.98-1.01,1.34-1.48.03,0,.05-.03.05-.05,0-.03.03-.05.05-.06s.04-.04.05-.05v.02h-.02l-.05.09v-.02l.39-.56c.32-.42.69-.63,1.12-.63.23,0,.46.05.71.16.45.24.67.64.67,1.19,0,.23-.06.44-.18.64-1.36,2.01-3.23,3.8-5.64,5.38-1.38.88-2.68,1.36-3.89,1.42-1.34-.03-2.48-.48-3.4-1.38-.93-.89-1.71-1.88-2.33-2.98-.13-.23-.18-.45-.18-.67,0-.66.33-1.09.98-1.3.54-.15,1.06-.33,1.57-.52,0,0,0-.02.02-.02,0,0,.03,0,.05,0,.02,0,.04,0,.05-.02,0,0,.03-.02.04-.03h-.02l-.04.04h-.04l-.02.02.15-.07c.24-.08.57-.25,1.02-.5.58-.31,1.16-.67,1.71-1.1l.04-.02h-.02s-.02.03-.03.04c0,0-.02.02-.03.02l-.02.02.2-.16c.58-.47,1.11-.99,1.58-1.57l.13-.18v.02l.18-.26c.3-.46.53-.86.69-1.21l.04-.07c.15-.34.26-.67.35-1.02l.02-.07s0-.08.04-.13v-.02s-.02.03-.02.07v.09s.02.11.05.18v-.02l-.05-.07s0,.04.04.05l.04.04s-.04,0-.05-.03c0-.02,0-.04,0-.05h-.04v-.02s.02,0,.02,0c0,0,0,.02.03.04s.04.03.05.03h-.03s-.02,0-.03-.02c0,0-.02-.02-.02-.03h-.02s-.02-.02-.03-.03-.04-.02-.08-.03l.13.04-.23-.07h.04s.05.02.09.02h-.19c.06,0,.11,0,.15-.02h.09l-.11.02.15-.07-.02.02-.15.07-.37.26.09-.07-.13.09-.07.07c-.47.44-.91.89-1.32,1.37-.36.36-1.97,2.16-4.8,5.4-1.23,1.37-2.47,2.72-3.7,4.06l-1.53,1.67c-.24.25-.56.37-.95.37h.08Z"/>
  </g>
  <g>
    <g>
      <g>
        <path class="st0" d="M126.13,32.75c7.83,11.39,7.42,25.8,4.07,38.66-.17.64.82.91.99.27,3.41-13.11,3.8-27.84-4.17-39.45-.37-.54-1.26-.03-.88.52h0Z"/>
        <path class="st0" d="M126.47,32.98c1.71-.15,2.51-2.01,3.14-3.39.83-1.83,1.38-3.76,1.63-5.75.51-3.98-.17-8.02-1.97-11.61-.3-.59-1.18-.07-.88.52,1.54,3.06,2.19,6.48,1.95,9.9-.12,1.67-.46,3.32-1.01,4.91-.28.82-.63,1.62-1.03,2.39-.38.73-.88,1.93-1.83,2.01-.65.06-.66,1.08,0,1.02h0Z"/>
        <path class="st0" d="M126.48,32.34c-7.49,4.56-15.57-1.3-20.78-6.52-.47-.47-1.19.26-.72.72,3.02,3.03,6.35,5.93,10.43,7.43,3.76,1.38,8.11,1.38,11.6-.75.56-.34.05-1.23-.52-.88h0Z"/>
        <path class="st0" d="M127.2,32.51c.61-3.56-.33-7.57-1.44-10.95s-2.9-6.84-5.14-9.81c-.39-.52-1.28-.01-.88.52,2.11,2.8,3.79,5.91,4.92,9.23s2.15,7.27,1.55,10.74c-.11.64.88.92.99.27h0Z"/>
        <path class="st0" d="M126.34,31.79c-7.93-.25-15.54-4.27-20.18-10.71-.38-.53-1.27-.02-.88.52,4.86,6.75,12.74,10.96,21.06,11.22.66.02.66-1,0-1.02h0Z"/>
        <path class="st0" d="M126.6,31.56c-4.57-3.46-8.16-8.16-10.3-13.47-.24-.6-1.23-.34-.99.27,2.26,5.58,5.97,10.44,10.77,14.08.53.4,1.04-.49.52-.88h0Z"/>
        <path class="st0" d="M127.23,32.88c1.46.12,2.62-.8,3.69-1.67,1.18-.96,2.27-1.97,3.03-3.3.72-1.26,1.2-2.66,1.67-4.03.54-1.56.96-3.18.79-4.85-.07-.65-1.09-.66-1.02,0,.15,1.46-.17,2.85-.63,4.22-.42,1.27-.87,2.56-1.48,3.74s-1.44,2.11-2.45,2.96-2.19,2.01-3.6,1.89c-.66-.05-.65.97,0,1.02h0Z"/>
        <path class="st0" d="M126.2,32.83c-.22,1.26-1.18,2.06-2.31,2.55-1.27.56-2.72.92-4.08,1.21-2.9.6-5.72-.01-8.49-.89-.63-.2-.9.79-.27.99,3.18,1.01,6.32,1.55,9.61.76,2.44-.59,6.02-1.4,6.53-4.34.11-.64-.88-.92-.99-.27h0Z"/>
      </g>
      <g>
        <path class="st5" d="M129.01,13.09c.59-1.09,1.03-2.06.94-3.3-.04-.49-.45-1.54-.69-1.97-.28-.5-.77-.84-1.26-1.14-.32-.2-.67-.4-1.05-.42-.74-.05-1.36.53-1.8,1.12-.33.43-.62.91-.71,1.45-.19,1.09.49,2.14,1.3,2.89.89.82,2.05,1.44,3.27,1.38"/>
        <path class="st1" d="M126.11,7.64c.34-.19.73-.3,1.12-.32.22-.01.48.02.6.22.1.17.04.39-.06.56-.28.48-.83.76-1.37.9-.28.07-.63.1-.82-.12-.13-.15-.14-.39-.07-.58s.2-.35.33-.51"/>
      </g>
      <g>
        <path class="st2" d="M105.98,21.51c.18-1.23.27-2.29-.23-3.43-.2-.45-.94-1.3-1.32-1.62-.43-.37-1.01-.53-1.57-.65-.37-.08-.76-.15-1.13-.04-.71.2-1.1.96-1.32,1.66-.16.52-.28,1.07-.18,1.61.19,1.09,1.19,1.85,2.2,2.28,1.12.47,2.42.66,3.54.2"/>
        <path class="st1" d="M101.41,17.36c.26-.3.59-.53.95-.68.2-.09.46-.14.63,0,.15.13.17.36.13.55-.11.55-.52.99-.98,1.31-.24.16-.56.31-.81.17-.18-.1-.27-.32-.27-.52s.07-.4.14-.59"/>
      </g>
      <g>
        <path class="st5" d="M135.82,19.41c.92-.52,1.69-1.01,2.19-1.95.2-.37.39-1.32.41-1.74.02-.49-.17-.96-.38-1.4-.14-.29-.3-.59-.56-.78-.51-.37-1.22-.24-1.81-.02-.43.16-.87.37-1.18.72-.63.7-.63,1.77-.39,2.68.27,1,.82,1.98,1.72,2.49"/>
        <path class="st1" d="M136.23,14.15c.33.02.66.12.96.28.17.09.34.24.33.43,0,.17-.15.3-.3.37-.43.22-.94.16-1.4.02-.24-.08-.5-.22-.53-.46-.03-.17.07-.34.21-.45s.31-.16.48-.21"/>
      </g>
      <g>
        <path class="st5" d="M120.47,12.4c.48-.89.84-1.69.77-2.7-.03-.4-.37-1.26-.57-1.61-.23-.41-.63-.69-1.03-.93-.26-.16-.55-.32-.86-.35-.6-.04-1.11.43-1.47.91-.27.36-.51.75-.58,1.19-.15.89.4,1.75,1.07,2.36.73.67,1.68,1.18,2.67,1.13"/>
        <path class="st1" d="M118.1,7.94c.28-.16.6-.25.92-.27.18-.01.39.02.49.18.08.14.03.32-.05.46-.23.39-.68.62-1.12.73-.23.06-.51.08-.67-.1-.11-.13-.12-.32-.06-.47s.17-.29.27-.42"/>
      </g>
      <g>
        <path class="st5" d="M116,18.75c.41-.76.72-1.44.66-2.31-.02-.34-.31-1.08-.48-1.38-.2-.35-.54-.59-.88-.8-.23-.14-.47-.28-.73-.3-.51-.04-.95.37-1.26.78-.23.3-.43.64-.5,1.01-.13.76.34,1.5.91,2.02.62.57,1.44,1,2.28.96"/>
        <path class="st1" d="M113.97,14.95c.24-.13.51-.21.79-.23.16,0,.34.02.42.15.07.12.03.27-.04.39-.2.34-.58.53-.96.63-.2.05-.44.07-.57-.08-.09-.11-.1-.27-.05-.41s.14-.25.23-.36"/>
      </g>
      <g>
        <path class="st5" d="M111.24,36.26c-.21-.84-.44-1.55-1.06-2.15-.25-.24-.96-.59-1.28-.69-.38-.12-.79-.07-1.18,0-.26.05-.53.11-.74.27-.4.32-.45.91-.41,1.42.04.38.11.76.31,1.09.41.65,1.26.88,2.03.88.85,0,1.74-.22,2.34-.82"/>
        <path class="st1" d="M107.18,34.81c.09-.26.24-.5.43-.7.11-.11.26-.21.41-.17.13.04.2.18.23.32.08.38-.07.78-.29,1.11-.11.17-.28.35-.48.32-.14-.02-.26-.13-.31-.27s-.06-.28-.07-.42"/>
      </g>
      <g>
        <path class="st5" d="M106.45,26.96c-.11-.86-.25-1.59-.8-2.26-.22-.27-.88-.7-1.19-.84-.36-.17-.78-.17-1.18-.14-.27.02-.54.04-.77.18-.44.27-.56.85-.58,1.36-.01.38.01.77.18,1.11.33.69,1.14,1.02,1.91,1.12.84.11,1.75,0,2.42-.53"/>
        <path class="st1" d="M102.6,25.03c.12-.25.3-.47.51-.64.12-.1.28-.18.43-.12.13.06.18.21.19.35.03.39-.17.76-.42,1.06-.13.16-.32.31-.51.26-.14-.03-.24-.16-.28-.3s-.03-.28-.01-.43"/>
      </g>
    </g>
    <g>
      <g>
        <path class="st0" d="M145.81,24.82c-6.86,5.27-11.83,12.72-14.01,21.09-.17.64.82.91.99.27,2.11-8.1,6.89-15.38,13.54-20.48.52-.4,0-1.29-.52-.88h0Z"/>
        <path class="st0" d="M145.63,25.54c1,2.22,3.32,3.37,5.55,3.99,3.02.83,6.22,1,9.32.59.64-.09.65-1.11,0-1.02-2.88.38-5.8.26-8.62-.44-2.14-.53-4.41-1.49-5.37-3.63-.27-.6-1.15-.08-.88.52h0Z"/>
        <path class="st0" d="M145.8,25.21c4.2,3.1,9.74,1.67,13.59-1.24.52-.39,0-1.28-.52-.88-3.59,2.71-8.63,4.14-12.56,1.24-.53-.39-1.04.5-.52.88h0Z"/>
        <path class="st0" d="M146.72,24.99c.55-1.43,1.66-2.52,2.77-3.54s2.33-2,3.6-2.86c2.47-1.69,5.16-3.03,7.99-4,.62-.21.35-1.2-.27-.99-3.07,1.05-5.99,2.51-8.64,4.39-1.29.91-2.52,1.91-3.67,2.99s-2.19,2.25-2.76,3.74c-.24.62.75.88.99.27h0Z"/>
        <path class="st0" d="M146.48,24.48c-.62-1.94-.95-3.95-.94-5.99,0-.99.08-1.98.24-2.96.13-.79.21-2.13.95-2.61.55-.36.04-1.24-.52-.88-.82.53-1.07,1.44-1.26,2.34-.24,1.13-.38,2.29-.42,3.44-.09,2.34.25,4.7.97,6.93.2.63,1.19.36.99-.27h0Z"/>
        <path class="st0" d="M146.55,25.34c0-4.37,3.09-7.81,6.56-10.08.55-.36.04-1.25-.52-.88-3.78,2.47-7.07,6.21-7.07,10.96,0,.66,1.02.66,1.02,0h0Z"/>
        <path class="st0" d="M146.72,25.56c2.38-.83,4.78-1.59,7.21-2.27.63-.18.36-1.17-.27-.99-2.42.68-4.83,1.44-7.21,2.27-.62.22-.35,1.21.27.99h0Z"/>
        <path class="st0" d="M145.88,24.63c-1.54-.05-2.73-2.18-3.36-3.39-.68-1.32-1.1-2.78-1.21-4.26-.23-3.04.84-6.07,2.86-8.34.44-.49-.29-1.22-.72-.72-2.36,2.65-3.56,6.22-3.09,9.76.23,1.75.83,3.44,1.76,4.94.84,1.34,2.03,2.99,3.76,3.05.66.02.66-1,0-1.02h0Z"/>
      </g>
      <g>
        <path class="st3" d="M159.91,29.69c.78.9,1.5,1.63,2.63,1.98.45.14,1.54.13,2.01.06.54-.08,1.02-.4,1.45-.73.29-.22.58-.46.74-.79.3-.64,0-1.4-.38-2-.28-.44-.61-.87-1.05-1.14-.91-.54-2.09-.3-3.04.17-1.04.52-2,1.35-2.36,2.45"/>
        <path class="st4" d="M165.79,28.96c.05.37.02.76-.1,1.12-.07.2-.19.42-.4.46-.19.03-.36-.1-.48-.25-.33-.42-.39-1-.33-1.53.03-.28.13-.6.39-.69.18-.07.4,0,.55.13s.25.3.34.48"/>
      </g>
      <g>
        <path class="st3" d="M160.55,14.16c1.02.61,1.93,1.08,3.12,1.05.47-.01,1.5-.36,1.92-.58.49-.25.84-.7,1.15-1.15.21-.3.41-.62.45-.99.08-.7-.45-1.32-.99-1.78-.4-.33-.85-.64-1.36-.75-1.03-.23-2.08.37-2.83,1.12-.83.82-1.47,1.91-1.47,3.07"/>
        <path class="st4" d="M165.91,11.62c.17.34.26.71.26,1.09,0,.21-.04.46-.23.56-.17.09-.38.02-.53-.09-.45-.29-.69-.83-.8-1.35-.06-.27-.07-.61.15-.78.15-.12.38-.12.56-.04s.33.21.47.34"/>
      </g>
      <g>
        <path class="st3" d="M143.46,8.72c1.18-.19,2.18-.41,3.07-1.2.36-.31.92-1.24,1.1-1.67.21-.51.19-1.08.14-1.62-.03-.36-.09-.74-.29-1.05-.39-.59-1.19-.73-1.9-.73-.52,0-1.06.06-1.52.3-.94.49-1.35,1.62-1.45,2.67-.11,1.16.09,2.41.84,3.3"/>
        <path class="st4" d="M145.94,3.34c.35.15.66.38.9.67.14.16.26.38.18.58-.07.18-.28.26-.47.28-.53.06-1.06-.19-1.48-.52-.22-.17-.44-.42-.39-.69.04-.19.21-.33.4-.39s.39-.05.58-.04"/>
      </g>
      <g>
        <path class="st3" d="M145.98,13c.8.04,1.48.02,2.18-.37.28-.16.77-.69.95-.95.21-.3.27-.68.31-1.04.03-.24.04-.5-.05-.72-.17-.44-.68-.64-1.15-.73-.34-.07-.7-.11-1.04-.01-.68.19-1.11.88-1.31,1.56-.23.75-.26,1.59.11,2.28"/>
        <path class="st4" d="M148.33,9.8c.21.15.38.34.5.56.07.13.12.29.04.4-.07.11-.22.13-.34.12-.36-.03-.67-.27-.9-.54-.12-.14-.23-.34-.16-.51.05-.12.19-.19.32-.2s.26.02.39.05"/>
      </g>
      <g>
        <path class="st3" d="M158.75,23.84c.75.27,1.41.45,2.19.27.31-.07.94-.44,1.18-.63.29-.23.46-.57.6-.91.1-.23.19-.46.17-.71-.04-.47-.47-.81-.89-1.03-.31-.16-.64-.3-.99-.31-.71-.01-1.31.52-1.71,1.11-.43.65-.71,1.45-.56,2.21"/>
        <path class="st4" d="M161.92,21.46c.15.2.26.43.32.68.03.14.03.31-.08.4-.1.08-.24.06-.36.02-.33-.13-.56-.45-.7-.78-.07-.17-.13-.39,0-.53.08-.1.23-.13.36-.1s.24.09.36.16"/>
      </g>
      <g>
        <path class="st3" d="M153.51,22.82c.46.39.88.69,1.47.77.24.03.77-.06,1-.13.26-.09.47-.28.66-.48.13-.13.25-.28.3-.45.1-.34-.12-.69-.35-.96-.17-.2-.37-.38-.62-.48-.5-.2-1.06.02-1.49.33-.48.34-.88.83-.97,1.41"/>
        <path class="st4" d="M156.38,21.98c.06.18.07.38.04.56-.02.11-.06.23-.16.26-.09.03-.19-.02-.26-.08-.2-.18-.28-.47-.29-.73,0-.14.01-.31.14-.38.09-.05.2-.03.28.02s.15.13.21.21"/>
      </g>
      <g>
        <path class="st3" d="M152.5,15.03c.58.14,1.09.23,1.66.03.23-.08.67-.4.84-.57.2-.19.3-.46.38-.73.05-.18.1-.36.07-.54-.07-.35-.41-.57-.74-.7-.24-.1-.5-.18-.77-.16-.53.05-.94.49-1.19.96-.27.52-.42,1.14-.24,1.7"/>
        <path class="st4" d="M154.69,13c.13.14.23.3.29.49.03.1.05.23-.03.3-.07.07-.18.07-.27.04-.26-.07-.45-.29-.59-.53-.07-.12-.12-.28-.05-.4.06-.08.16-.11.26-.11s.19.05.28.09"/>
      </g>
    </g>
  </g>
</svg>