<?xml version="1.0" encoding="UTF-8"?>
<svg id="Layer_1" xmlns="http://www.w3.org/2000/svg" version="1.1" viewBox="0 0 400 400">
  <!-- Generator: Adobe Illustrator 30.2.1, SVG Export Plug-In . SVG Version: 2.1.1 Build 1)  -->
  <defs>
    <style>
      .st0 {
        fill: #9b89c4;
        isolation: isolate;
        opacity: .7;
      }
    </style>
  </defs>
  <path class="st0" d="M366.65,77.82l-45.04-45.04c-13.09-13.09-31.19-20.59-49.7-20.59h-79.9c-38.75-.02-70.28,31.52-70.28,70.27v124.57c0,4.31,3.5,7.81,7.81,7.81s7.81-3.5,7.81-7.81v-124.57c0-30.14,24.52-54.66,54.66-54.66h79.9c2.01,0,4,.37,6,.61v53.68c0,21.54,17.51,39.05,39.05,39.05h54.02c.25,2.12.64,4.23.64,6.37v142c0,13.34-4.86,26.16-13.67,36.14-2.86,3.23-2.55,8.17.69,11.03,1.5,1.31,3.33,1.95,5.17,1.95,2.17,0,4.31-.91,5.86-2.64,11.34-12.84,17.57-29.36,17.57-46.5V127.5c0-18.51-7.5-36.61-20.59-49.7v.02h0ZM316.95,105.51c-12.92,0-23.43-10.51-23.43-23.43v-49.71c6.31,2.72,12.14,6.54,17.04,11.45l45.04,45.04c4.79,4.79,8.53,10.5,11.25,16.65h-49.9ZM51.43,11.8c-21.54,0-39.05,17.51-39.05,39.05v152.4c0,14.38,5.84,28.47,16.01,38.66l17.51,17.51c1.53,1.53,3.53,2.28,5.53,2.28s4-.77,5.53-2.28l17.51-17.51c10.17-10.17,16.01-24.27,16.01-38.66V50.85c0-21.54-17.51-39.05-39.05-39.05ZM74.86,203.25c0,10.28-4.17,20.34-11.43,27.61l-11.99,11.99-11.99-11.99c-7.28-7.28-11.43-17.32-11.43-27.61V50.85c0-12.92,10.51-23.43,23.43-23.43s23.43,10.51,23.43,23.43v152.4h-.02ZM270.09,230.46h-93.71c-30.14,0-54.66,24.52-54.66,54.66v46.86c0,30.14,24.52,54.66,54.66,54.66h93.71c30.14,0,54.66-24.52,54.66-54.66v-46.86c0-30.14-24.52-54.66-54.66-54.66h0ZM176.38,246.08h93.71c11.85,0,22.37,5.42,29.53,13.79l-55.77,55.76c-11.01,11.01-30.21,11.01-41.22,0l-55.77-55.76c7.17-8.37,17.66-13.79,29.53-13.79h-.02.01ZM309.14,331.98c0,21.54-17.51,39.05-39.05,39.05h-93.71c-21.54,0-39.05-17.51-39.05-39.05v-46.86c0-3.83.72-7.45,1.75-10.93l52.51,52.49c8.47,8.47,19.69,13.12,31.64,13.12s23.18-4.65,31.64-13.12l52.49-52.49c1.03,3.5,1.75,7.12,1.75,10.93v46.86h.03Z"/>
</svg>