<?xml version="1.0" encoding="UTF-8"?>
<svg id="Layer_1" xmlns="http://www.w3.org/2000/svg" version="1.1" viewBox="0 0 252.87 80">
  <!-- Generator: Adobe Illustrator 30.2.1, SVG Export Plug-In . SVG Version: 2.1.1 Build 1)  -->
  <defs>
    <style>
      .st0 {
        fill: #a7c168;
      }

      .st1 {
        fill: #ff8080;
      }

      .st2 {
        fill: #ffcadc;
      }

      .st3 {
        fill: #fff;
      }

      .st4 {
        fill: #ffa9ca;
      }

      .st5 {
        fill: #ffa4a4;
      }
    </style>
  </defs>
  <g>
    <path class="st3" d="M6.41,61.72c-.17,0-.35-.04-.52-.11-.31-.14-.54-.35-.68-.64-.1-.18-.15-.39-.15-.6,0-.15,1.32-5.27,3.96-15.37.11-.37.32-.64.64-.81.21-.11.44-.17.7-.17.52,0,.91.23,1.15.68.11.21.17.44.17.68,0,.11,0,.23-.04.36l-3.92,15.01-2.47-1.06c1.03-1.66,2.04-3.33,3.05-5.03s2.03-3.39,3.09-5.07c.74-1.25,1.61-2.41,2.61-3.47,1.33-1.33,2.71-2.02,4.16-2.07,1.03,0,1.82.45,2.37,1.32.29.57.43,1.18.43,1.83,0,1.01-.17,2.12-.49,3.29l-.07.29c-.18.75-.39,1.5-.6,2.25-.55,2.01-.88,3.46-.99,4.35v-.09c0,.06,0,.11-.02.15-.03.17-.05.49-.07.96v.17c-.06-.15-.17-.29-.34-.4-.1-.06-.18-.09-.27-.09l-.06.02.07.02h.09s0-.02-.02-.02l-.15.04.21-.06c.09,0,.29-.06.58-.19.05-.03.11-.05.17-.06l-.11.04s.06-.05.21-.09l.6-.32.9-.58.09-.07-.07.06c.07-.05.15-.11.21-.17l.4-.32c.66-.6,1.47-1.44,2.41-2.52.39-.45.78-.9,1.19-1.33.27-.27.56-.4.9-.4.03,0,.13,0,.32,0s.41.14.69.39c.27.25.4.54.4.88,0,.03,0,.14,0,.33,0,.19-.14.43-.39.71-.39.41-.78.84-1.17,1.28-.9,1.07-1.88,2.06-2.92,2.97-1.04.92-2.25,1.58-3.62,2-.29.09-.57.13-.85.13-.21,0-.5-.04-.85-.12s-.68-.35-.98-.8c-.25-.4-.38-.84-.38-1.32,0-.55.05-1.08.13-1.56l.04-.29c.24-1.44.66-3.18,1.26-5.2.35-1.44.57-2.36.66-2.77,0-.03.04-.17.07-.45.03-.2.05-.31.07-.34l-.02.18c0-.07,0-.12.02-.13,0-.13,0-.23.02-.32v-.49l-.02-.2.02.13.02-.02v-.06s0-.06-.02-.09c0-.04-.02-.08-.03-.13s-.02-.08-.02-.09l-.02-.02s0,.03,0,.04c0,0,0,.04.02.07s.02.06.05.06l-.15-.27.13.18-.02-.02s-.03-.03-.04-.05-.03-.03-.04-.03l.06.02c.07.04.12.07.13.09l-.13-.07.09.04-.13-.02.02-.02.11.04s-.09,0-.13-.02h-.02c-.2.03-.4.07-.58.15-.05,0-.13.03-.23.07l.17-.09-.9.54s-.05.05-.07.06h-.02l.07-.06-.21.18c-.14.11-.27.23-.38.34-.39.39-.7.73-.92,1.01-.06.1-.11.15-.13.15l.09-.11c-.05.06-.08.1-.08.12s-.05.06-.12.14c-.55.82-1.08,1.63-1.58,2.45l-.06.07c-.83,1.35-1.65,2.71-2.47,4.09-1.03,1.73-2.08,3.45-3.15,5.16-.29.44-.68.66-1.17.66h-.03Z"/>
    <path class="st3" d="M28.38,60.76l-.47-.02c-1.55-.17-2.63-.98-3.28-2.43-.34-.76-.51-1.55-.51-2.34s.15-1.51.43-2.28c1.33-3.58,3.08-6.07,5.26-7.47.99-.65,2.07-.98,3.24-.98.39,0,.79.05,1.21.13,1.48.34,2.57,1.18,3.26,2.52.32.65.49,1.36.49,2.13v2s0-.07.02-.07c0,.13,0,.23.04.32.04.15.06.29.06.4,0,.65-.32,1.1-.98,1.32-.13.04-.25.06-.38.06-.97,0-1.45-.86-1.45-2.58l-.06-1.75c0-.3-.04-.51-.07-.6.03.04.04.08.04.13l-.25-.43h.04l.04.09-.09-.09c-.17-.2-.3-.34-.41-.41,0,0,0,.02.02.03,0,0,.02,0,.03.02,0,0,.02,0,.03,0s.02,0,.02.02v-.02s-.1-.04-.23-.11c-.23-.14-.37-.22-.43-.25.03.03.05.04.07.04-.31-.11-.54-.17-.68-.17l.15.02c-.18,0-.37,0-.54-.02-.1,0-.22,0-.36.02-.4.07-.71.17-.92.29,0,0,0-.02.02-.02h.03s.02-.02.05-.03c-.05.05-.15.11-.3.18-.23.11-.44.24-.66.38-.03.03-.05.05-.06.05s-.03,0-.04.02l-.06.06v-.02l.07-.04c-.07.04-.17.11-.29.23-.3.27-.58.56-.83.88,0,0-.02,0-.03.02,0,0,0,.02-.02.03,0,0-.03.04-.06.08,0-.03.03-.04.04-.04,0,0-.02,0-.02.02l-.21.3c-.68.99-1.3,2.12-1.87,3.37l-.09.21c-.28.69-.44,1.28-.49,1.77l-.06.7c0,.08.06.32.18.7l-.04-.06c.17.37.28.55.31.57.03.02.06.04.06.06-.05-.06-.07-.11-.07-.13,0,0,0,.02,0,.03,0,0,0,.02.02.03,0,0,.05.06.12.13.15.15.24.23.27.23l-.06-.04s.06.05.08.06.07.05.16.08c.03,0,.04.03.04.04,0,0-.03-.02-.06-.03-.03,0-.04,0-.05-.02,0,0-.02-.02-.03-.03.04.04.17.08.38.13l-.11-.02c.2,0,.34,0,.43-.02l-.11.02c.27-.08.41-.13.45-.13l-.07.04c.25-.13.5-.27.74-.43,0,0,.03,0,.05-.03.02-.02.05-.04.08-.05.1-.06.15-.11.15-.13,0,0,0,.04-.04.06,2.77-2.31,5.28-4.9,7.54-7.76.21-.28.5-.41.85-.41s.65.1.9.3c.35.3.52.64.52,1.01,0,.23-.06.47-.17.72-.14.33-.27.66-.4,1-.52,1.44-.86,2.67-1.01,3.69h-.02l.02-.11c.07.65.29,1.15.64,1.49l-.06-.02h.04c.14.14.3.2.51.2l-.13.02.13-.04c1.15-.25,2.18-.72,3.09-1.39h-.02l-.06.06c1.15-.93,2.44-2.3,3.84-4.1.2-.27.46-.4.79-.4.04,0,.17,0,.38.02.21,0,.45.14.71.39.26.25.39.52.39.84,0,.04,0,.15-.02.34,0,.18-.13.42-.36.72-1.13,1.51-2.34,2.82-3.62,3.94-1.23,1.08-2.64,1.77-4.23,2.07-.14.03-.29.05-.45.06-.83.1-1.67-.1-2.5-.6-1.18-.72-1.77-1.77-1.77-3.17,0-.52.06-1.03.18-1.55.38-1.65.91-3.25,1.6-4.82l2.13,1.66c-2.1,2.69-4.44,5.14-7,7.38-1.37,1.2-2.62,1.78-3.76,1.75v-.03Z"/>
    <path class="st3" d="M50.77,60.92c-.58,0-1.16-.08-1.75-.27-1.2-.39-2.08-1.14-2.66-2.26-.39-.9-.58-1.84-.58-2.81,0-1.18.24-2.64.72-4.39.96-4.02,2.28-7.79,3.98-11.3,1.15-2.48,2.49-4.4,4.01-5.74,1.14-1,2.32-1.51,3.52-1.51l.4.02c1.66.18,2.75,1.01,3.28,2.48.14.42.21.86.21,1.28,0,1.31-.63,3.18-1.89,5.63-2.28,4.48-5.8,8.33-10.55,11.54-.21.13-.43.18-.66.18-.51,0-.9-.23-1.21-.68-.13-.21-.18-.43-.18-.66,0-.49.23-.89.7-1.21.46-.32.93-.65,1.39-1,0,0,.03,0,.06-.03.03-.02.05-.03.06-.04,0,0,.06-.04.13-.1l-.06.04s.15-.12.32-.25c.84-.69,1.49-1.25,1.96-1.69.98-.93,1.96-1.99,2.95-3.17l.29-.38v.02l-.06.06s0-.03.04-.04l.11-.17c1.21-1.59,2.24-3.39,3.09-5.37,0-.05.03-.1.06-.14.03-.05.05-.09.07-.14l.02-.07v.04l-.04.04.04-.07c.28-.65.47-1.26.58-1.83.03-.07.04-.15.04-.23v.13h-.02l.02-.49c0-.17,0-.25-.02-.25l.02.06v.09h.02c0-.07-.02-.13-.06-.15v-.08s-.02-.04-.03-.06-.02-.05-.02-.07l.06.11-.06-.09s-.07-.09-.07-.13c0,0,.03.02.06.06l-.29-.29s.03.05.07.07c-.1-.07-.17-.12-.18-.13-.03,0-.04-.03-.04-.04h.04l.02.02-.52-.13h.02s.06.02.13.02c-.23,0-.42,0-.58.02l.09-.02s-.07.04-.15.04c-.06.03-.1.04-.12.04s-.05,0-.06.02c-.03,0-.05.02-.07.02l-.13.06.07-.04-.15.07c-.13.06-.25.13-.36.21-.06.05-.13.09-.21.13l-.06.02.07-.06s-.07.06-.09.08c-.03.02-.04.04-.04.05-.54.44-1.01.92-1.41,1.45l-.04.06h-.02l-.06.07-.04.06c-.52.68-1.04,1.5-1.55,2.47-.59,1.14-1.13,2.32-1.64,3.52l-.06.15.04-.11v.04l-.23.51c-1.17,2.96-2.13,6.22-2.86,9.77,0,.11-.03.22-.06.32v.11l-.02.06.02-.15c0,.07,0,.11-.02.11-.04.39-.06.78-.06,1.17,0,.25,0,.5.04.74v.04l-.02-.04v-.02s.02.03.02.09c.09.41.16.64.21.7,0,.03,0,.05.04.07-.04,0-.06-.04-.06-.11h-.02l.02.02s0,.03,0,.05c0,.02.04.06.08.12.05.06.09.13.11.21l.02.04v-.02s-.02,0-.03-.02c0,0,0-.03-.02-.05,0-.02-.02-.03-.05-.03l.4.4s-.05-.03-.11-.09l.15.11.41.23s-.08-.02-.13-.06h-.02s.05.03.09.04l.17.06.38.09c.06,0,.11,0,.13.02h.06v.02s-.03,0-.06,0c-.03,0-.05-.02-.06-.03h-.06s.13.06.23.06c.23,0,.37,0,.41-.04.2,0,.32,0,.36-.02h.06l-.02.02h-.06l.04-.02h.06c.42-.06.83-.17,1.21-.34.06-.03.11-.04.13-.04l-.13.06.04-.02s.05-.04.07-.05c.03,0,.05-.02.07-.03.59-.25,1.63-.95,3.13-2.09.04-.05.09-.09.15-.11-.04.04-.07.06-.09.06v.02c.06-.05.1-.07.11-.08,0,0,.03-.02.04-.05l.23-.17c1.61-1.32,2.67-2.34,3.18-3.06.03,0,.05-.03.06-.06,0-.03.03-.04.04-.05,0,0,.02-.02.02-.03l-.04.06.06-.07c.32-.44.71-.66,1.15-.66.21,0,.44.06.7.17.46.28.7.68.7,1.22,0,.23-.07.44-.21.64-.39.52-.8,1.01-1.24,1.49-1.65,1.69-3.47,3.18-5.46,4.45-.9.6-1.89,1.04-2.95,1.32-.49.13-.98.18-1.47.18h-.04ZM63.87,42.42l-16.61-.23c-.39,0-.71-.15-.95-.4-.25-.26-.38-.57-.4-.95,0-.38.14-.7.4-.96.27-.27.59-.4.95-.4l16.61.23c.39,0,.71.15.95.4.25.25.38.57.4.96,0,.38-.13.69-.4.95s-.58.4-.96.4Z"/>
    <path class="st3" d="M63.48,60.76l-.47-.02c-1.55-.17-2.63-.98-3.28-2.43-.34-.76-.51-1.55-.51-2.34s.15-1.51.43-2.28c1.33-3.58,3.08-6.07,5.26-7.47.99-.65,2.07-.98,3.24-.98.39,0,.79.05,1.21.13,1.48.34,2.57,1.18,3.26,2.52.32.65.49,1.36.49,2.13v2s0-.07.02-.07c0,.13,0,.23.04.32.04.15.06.29.06.4,0,.65-.32,1.1-.98,1.32-.13.04-.25.06-.38.06-.97,0-1.45-.86-1.45-2.58l-.06-1.75c0-.3-.04-.51-.07-.6.03.04.04.08.04.13l-.25-.43h.04l.04.09-.09-.09c-.17-.2-.3-.34-.41-.41,0,0,0,.02.02.03,0,0,.02,0,.03.02,0,0,.02,0,.03,0s.02,0,.02.02v-.02s-.1-.04-.23-.11c-.23-.14-.37-.22-.43-.25.03.03.05.04.07.04-.31-.11-.54-.17-.68-.17l.15.02c-.18,0-.37,0-.54-.02-.1,0-.22,0-.36.02-.4.07-.71.17-.92.29,0,0,0-.02.02-.02h.03s.02-.02.05-.03c-.05.05-.15.11-.3.18-.23.11-.44.24-.66.38-.03.03-.05.05-.06.05s-.03,0-.04.02l-.06.06v-.02l.07-.04c-.07.04-.17.11-.29.23-.3.27-.58.56-.83.88,0,0-.02,0-.03.02,0,0,0,.02-.02.03,0,0-.03.04-.06.08,0-.03.03-.04.04-.04,0,0-.02,0-.02.02l-.21.3c-.68.99-1.3,2.12-1.87,3.37l-.09.21c-.28.69-.44,1.28-.49,1.77l-.06.7c0,.08.06.32.18.7l-.04-.06c.17.37.28.55.31.57.03.02.06.04.06.06-.05-.06-.07-.11-.07-.13,0,0,0,.02,0,.03,0,0,0,.02.02.03,0,0,.05.06.12.13.15.15.24.23.27.23l-.06-.04s.06.05.08.06.07.05.16.08c.03,0,.04.03.04.04,0,0-.03-.02-.06-.03-.03,0-.04,0-.05-.02,0,0-.02-.02-.03-.03.04.04.17.08.38.13l-.11-.02c.2,0,.34,0,.43-.02l-.11.02c.27-.08.41-.13.45-.13l-.07.04c.25-.13.5-.27.74-.43,0,0,.03,0,.05-.03.02-.02.05-.04.08-.05.1-.06.15-.11.15-.13,0,0,0,.04-.04.06,2.77-2.31,5.28-4.9,7.54-7.76.21-.28.5-.41.85-.41s.65.1.9.3c.35.3.52.64.52,1.01,0,.23-.06.47-.17.72-.14.33-.27.66-.4,1-.52,1.44-.86,2.67-1.01,3.69h-.02l.02-.11c.07.65.29,1.15.64,1.49l-.06-.02h.04c.14.14.3.2.51.2l-.13.02.13-.04c1.15-.25,2.18-.72,3.09-1.39h-.02l-.06.06c1.15-.93,2.44-2.3,3.84-4.1.2-.27.46-.4.79-.4.04,0,.17,0,.38.02.21,0,.45.14.71.39.26.25.39.52.39.84,0,.04,0,.15-.02.34,0,.18-.13.42-.36.72-1.13,1.51-2.34,2.82-3.62,3.94-1.23,1.08-2.64,1.77-4.23,2.07-.14.03-.29.05-.45.06-.83.1-1.67-.1-2.5-.6-1.18-.72-1.77-1.77-1.77-3.17,0-.52.06-1.03.18-1.55.38-1.65.91-3.25,1.6-4.82l2.13,1.66c-2.1,2.69-4.44,5.14-7,7.38-1.37,1.2-2.62,1.78-3.76,1.75v-.03Z"/>
    <path class="st3" d="M85.87,60.92c-.58,0-1.16-.08-1.75-.27-1.2-.39-2.08-1.14-2.66-2.26-.39-.9-.58-1.84-.58-2.81,0-1.18.24-2.64.72-4.39.96-4.02,2.28-7.79,3.98-11.3,1.15-2.48,2.49-4.4,4.01-5.74,1.14-1,2.32-1.51,3.52-1.51l.4.02c1.66.18,2.75,1.01,3.28,2.48.14.42.21.86.21,1.28,0,1.31-.63,3.18-1.89,5.63-2.28,4.48-5.8,8.33-10.55,11.54-.21.13-.43.18-.66.18-.51,0-.9-.23-1.21-.68-.13-.21-.18-.43-.18-.66,0-.49.23-.89.7-1.21.46-.32.93-.65,1.39-1,0,0,.03,0,.06-.03s.05-.03.06-.04c0,0,.06-.04.13-.1l-.06.04s.15-.12.32-.25c.84-.69,1.49-1.25,1.96-1.69.98-.93,1.96-1.99,2.95-3.17l.29-.38v.02l-.06.06s0-.03.04-.04l.11-.17c1.21-1.59,2.24-3.39,3.09-5.37,0-.05.03-.1.06-.14.03-.05.05-.09.07-.14l.02-.07v.04l-.04.04.04-.07c.28-.65.47-1.26.58-1.83.03-.07.04-.15.04-.23v.13h-.02l.02-.49c0-.17,0-.25-.02-.25l.02.06v.09h.02c0-.07-.02-.13-.06-.15v-.08s-.02-.04-.03-.06-.02-.05-.02-.07l.06.11-.06-.09s-.07-.09-.07-.13c0,0,.03.02.06.06l-.29-.29s.03.05.07.07c-.1-.07-.17-.12-.18-.13-.03,0-.04-.03-.04-.04h.04l.02.02-.52-.13h.02s.06.02.13.02c-.23,0-.42,0-.58.02l.09-.02s-.07.04-.15.04c-.06.03-.1.04-.12.04s-.05,0-.06.02c-.03,0-.05.02-.07.02l-.13.06.07-.04-.15.07c-.13.06-.25.13-.36.21-.06.05-.13.09-.21.13l-.06.02.07-.06s-.07.06-.09.08c-.03.02-.04.04-.04.05-.54.44-1.01.92-1.41,1.45l-.04.06h-.02l-.06.07-.04.06c-.52.68-1.04,1.5-1.55,2.47-.59,1.14-1.13,2.32-1.64,3.52l-.06.15.04-.11v.04l-.23.51c-1.17,2.96-2.13,6.22-2.86,9.77,0,.11-.03.22-.06.32v.11l-.02.06.02-.15c0,.07,0,.11-.02.11-.04.39-.06.78-.06,1.17,0,.25,0,.5.04.74v.04l-.02-.04v-.02s.02.03.02.09c.09.41.16.64.21.7,0,.03,0,.05.04.07-.04,0-.06-.04-.06-.11h-.02l.02.02s0,.03,0,.05c0,.02.04.06.08.12.05.06.09.13.11.21l.02.04v-.02s-.02,0-.03-.02c0,0,0-.03-.02-.05,0-.02-.02-.03-.05-.03l.4.4s-.05-.03-.11-.09l.15.11.41.23s-.08-.02-.13-.06h-.02s.05.03.09.04l.17.06.38.09c.06,0,.11,0,.13.02h.06v.02s-.03,0-.06,0c-.03,0-.05-.02-.06-.03h-.06s.13.06.23.06c.23,0,.37,0,.41-.04.2,0,.32,0,.36-.02h.06l-.02.02h-.06l.04-.02h.06c.42-.06.83-.17,1.21-.34.06-.03.11-.04.13-.04l-.13.06.04-.02s.05-.04.07-.05c.03,0,.05-.02.07-.03.59-.25,1.63-.95,3.13-2.09.04-.05.09-.09.15-.11-.04.04-.07.06-.09.06v.02c.06-.05.1-.07.11-.08,0,0,.03-.02.04-.05l.23-.17c1.61-1.32,2.67-2.34,3.18-3.06.03,0,.05-.03.06-.06,0-.03.03-.04.04-.05,0,0,.02-.02.02-.03l-.04.06.06-.07c.32-.44.71-.66,1.15-.66.21,0,.44.06.7.17.46.28.7.68.7,1.22,0,.23-.07.44-.21.64-.39.52-.8,1.01-1.24,1.49-1.65,1.69-3.47,3.18-5.46,4.45-.9.6-1.89,1.04-2.95,1.32-.49.13-.98.18-1.47.18h-.04Z"/>
    <path class="st3" d="M98.11,60.82c-.98,0-1.82-.3-2.54-.87-.96-.75-1.44-1.84-1.44-3.29,0-1.01.27-2.34.81-3.98l.09-.34c.54-1.79,1.15-3.57,1.85-5.31.27-.64.71-.96,1.33-.96.51,0,.88.22,1.15.66.13.21.18.42.18.64,0,.13-.02.25-.06.38-.72,1.79-1.34,3.62-1.89,5.46l-.02.04c-.23.74-.42,1.49-.6,2.26-.05.21-.09.4-.11.56,0,.03,0,.04-.02.04l.02-.11c0,.06,0,.11-.02.15l-.02.81.02.11-.04-.11.13.52.04.11-.06-.15c.04.07.06.13.08.15.02.03.03.05.04.06,0,0,.02.03.03.04.05.05.07.08.07.11l-.07-.09v.02s.03.03.05.04.03.03.04.05c0,.02.03.04.06.05s.06.02.06.03c0,0,.03.02.04.03l-.11-.06.27.17s-.06-.04-.06-.04h0l.51.13-.13-.02h.56l.06-.02c.27-.04.52-.11.79-.23l-.07.04.06-.04s.07-.04.11-.04c.62-.31,1.33-.76,2.16-1.35l.54-.4.18-.15c1.23-.99,2.36-2.08,3.37-3.28.25-.27.55-.4.9-.4.03,0,.13,0,.32.02.18,0,.42.14.7.38.27.27.4.56.4.9,0,.03,0,.13-.02.31,0,.18-.14.41-.38.71-1.32,1.54-2.8,2.9-4.45,4.09-.72.55-1.49,1.05-2.32,1.49-.83.44-1.71.66-2.63.68h.03ZM99.84,42.55c-.18,0-.37-.04-.52-.11-.17-.06-.3-.16-.43-.29l-.25-.25c-.17-.17-.28-.37-.34-.6l-.06-.36c0-.3.11-.57.29-.8.17-.23.37-.38.56-.44.15-.07.32-.11.51-.11s.37.04.52.11c.15.05.32.17.51.36.28.28.44.53.51.77l.06.36c0,.3-.07.54-.23.74l-.15.2c-.11.13-.27.23-.45.3-.17.07-.34.11-.52.11h0Z"/>
    <path class="st3" d="M109.56,60.76l-.47-.02c-1.55-.17-2.63-.98-3.28-2.43-.34-.76-.51-1.55-.51-2.34s.15-1.51.43-2.28c1.33-3.58,3.08-6.07,5.26-7.47.99-.65,2.07-.98,3.24-.98.39,0,.79.05,1.21.13,1.48.34,2.57,1.18,3.26,2.52.32.65.49,1.36.49,2.13v2s0-.07.02-.07c0,.13,0,.23.04.32.04.15.06.29.06.4,0,.65-.32,1.1-.98,1.32-.13.04-.25.06-.38.06-.97,0-1.45-.86-1.45-2.58l-.06-1.75c0-.3-.04-.51-.07-.6.03.04.04.08.04.13l-.25-.43h.04l.04.09-.09-.09c-.17-.2-.3-.34-.41-.41,0,0,0,.02.02.03,0,0,.02,0,.03.02,0,0,.02,0,.03,0s.02,0,.02.02v-.02s-.1-.04-.23-.11c-.23-.14-.37-.22-.43-.25.03.03.05.04.07.04-.31-.11-.54-.17-.68-.17l.15.02c-.18,0-.37,0-.54-.02-.1,0-.22,0-.36.02-.4.07-.71.17-.92.29,0,0,0-.02.02-.02h.03s.02-.02.05-.03c-.05.05-.15.11-.3.18-.23.11-.44.24-.66.38-.03.03-.05.05-.06.05s-.03,0-.04.02l-.06.06v-.02l.07-.04c-.07.04-.17.11-.29.23-.3.27-.58.56-.83.88,0,0-.02,0-.03.02,0,0,0,.02-.02.03,0,0-.03.04-.06.08,0-.03.03-.04.04-.04,0,0-.02,0-.02.02l-.21.3c-.68.99-1.3,2.12-1.87,3.37l-.09.21c-.28.69-.44,1.28-.49,1.77l-.06.7c0,.08.06.32.18.7l-.04-.06c.17.37.28.55.31.57.03.02.06.04.06.06-.05-.06-.07-.11-.07-.13,0,0,0,.02,0,.03,0,0,0,.02.02.03,0,0,.05.06.12.13.15.15.24.23.27.23l-.06-.04s.06.05.08.06.07.05.16.08c.03,0,.04.03.04.04,0,0-.03-.02-.06-.03-.03,0-.04,0-.05-.02,0,0-.02-.02-.03-.03.04.04.17.08.38.13l-.11-.02c.2,0,.34,0,.43-.02l-.11.02c.27-.08.41-.13.45-.13l-.07.04c.25-.13.5-.27.74-.43,0,0,.03,0,.05-.03.02-.02.05-.04.08-.05.1-.06.15-.11.15-.13,0,0,0,.04-.04.06,2.77-2.31,5.28-4.9,7.54-7.76.21-.28.5-.41.85-.41s.65.1.9.3c.35.3.52.64.52,1.01,0,.23-.06.47-.17.72-.14.33-.27.66-.4,1-.52,1.44-.86,2.67-1.01,3.69h-.02l.02-.11c.07.65.29,1.15.64,1.49l-.06-.02h.04c.14.14.3.2.51.2l-.13.02.13-.04c1.15-.25,2.18-.72,3.09-1.39h-.02l-.06.06c1.15-.93,2.44-2.3,3.84-4.1.2-.27.46-.4.79-.4.04,0,.17,0,.38.02.21,0,.45.14.71.39.26.25.39.52.39.84,0,.04,0,.15-.02.34,0,.18-.13.42-.36.72-1.13,1.51-2.34,2.82-3.62,3.94-1.23,1.08-2.64,1.77-4.23,2.07-.14.03-.29.05-.45.06-.83.1-1.67-.1-2.5-.6-1.18-.72-1.77-1.77-1.77-3.17,0-.52.06-1.03.18-1.55.38-1.65.91-3.25,1.6-4.82l2.13,1.66c-2.1,2.69-4.44,5.14-7,7.38-1.37,1.2-2.62,1.78-3.76,1.75v-.03Z"/>
    <path class="st3" d="M146.94,64.91c-.39,0-.76-.1-1.13-.3-.58-.37-.91-.86-.99-1.49-.03-.21-.04-.42-.04-.64,0-.4.05-.8.15-1.21.44-1.68,1.58-3.27,3.42-4.75,3.09-2.59,6.62-4.25,10.58-4.99l.32-.02c.63,0,1.08.32,1.33.98.04.11.06.23.06.36,0,.21-.07.47-.23.75-.15.29-.4.47-.77.54-.94.17-1.87.39-2.79.68-.38.13-.94.33-1.68.62h-.04l-.06.04.11-.06s-.03.02-.05.03c-.02,0-.04.02-.06.03-.03,0-.05.02-.06.02-1.47.64-2.85,1.45-4.16,2.45l-.11.06.07-.06-.13.13c-.23.17-.49.38-.77.64-.52.44-.96.88-1.33,1.32l-.25.29.07-.09s0,.03-.04.04c-.45.7-.68,1.08-.68,1.11l-.02.07.06-.13c-.05.11-.09.23-.11.34-.1.27-.15.45-.15.56l-.02.07v-.09s.02.04.02.11c0,.1,0,.17-.02.23v.13l-.02-.11.04.11-.06-.09c-.05-.13-.13-.23-.25-.32l-.32-.07v-.02l.04.02h.11s-.04-.02-.11-.02l-.02.04.07-.02s.09-.02.17-.06c.07-.04.13-.06.15-.06h-.02l-.11.07c.66-.33,1.3-.71,1.91-1.15l.07-.06v.02l-.07.06.25-.21c.55-.5.96-.89,1.21-1.17l.4-.47s.02-.04.05-.06.05-.06.05-.06v.02l-.07.09.06-.09c.11-.11.33-.45.67-1.01.33-.56.55-1,.67-1.3l-.06.13.06-.11c.24-.68.4-1.21.5-1.61.09-.4.15-.64.16-.71s.02-.15.02-.21v.09c.04-.39.06-.78.07-1.17,0-.4-.02-.7-.06-.88,0,0,.02.04.02.06s0,.06.02.06v-.04s-.09-.18-.11-.41c0-.03,0-.05-.02-.07s-.02-.05-.03-.06c0,0-.02-.05-.03-.09l.06.11-.15-.29s-.06-.06-.06-.09l-.02-.02s.06.03.06.09l-.06-.09-.25-.23s.02,0,.02,0,.03.03.09.06c-.03,0-.06-.02-.09-.05-.04-.03-.07-.06-.11-.07s-.09-.04-.17-.06l.13.06s-.03,0-.05-.02c-.02,0-.05-.02-.07-.03s-.06,0-.07-.02c-.02,0-.04-.02-.05-.03l-.11-.02s-.06,0-.07-.02c-.29,0-.45,0-.49.02h-.09l.11-.02s-.06.02-.08.02-.18.04-.46.11l-.09.04c-.23.08-.54.28-.96.56,0,0-.03,0-.04.02,0,0-.03.03-.04.04h-.02l-.02.02-.15.13c-1,.83-2.04,1.92-3.11,3.29.03-.04.05-.06.06-.07h.02-.02v.02s-.04.06-.07.09c-.09.09-.17.19-.23.3-1.1,1.47-2.06,3.14-2.86,4.99-.21.44-.6.66-1.15.66-.18,0-.37-.04-.54-.11-.31-.14-.54-.35-.68-.64-.1-.2-.15-.4-.15-.62,0-.11,0-.23.04-.34.89-3.79,1.91-7.56,3.07-11.28,1.07-3.39,2.44-6.65,4.12-9.79.31-.62.75-1.4,1.33-2.34,1.13-1.79,2.44-2.91,3.92-3.33.3-.08.6-.13.88-.13.59,0,1.17.17,1.73.52,1.1.8,1.66,1.92,1.66,3.37,0,1.13-.5,2.47-1.49,4.01-2.38,3.66-5.38,6.45-8.98,8.37-.24.11-.47.17-.7.17-.11,0-.28-.03-.5-.08-.22-.06-.44-.25-.67-.57-.13-.2-.18-.41-.18-.64,0-.55.23-.96.68-1.21,1.1-.59,2.15-1.26,3.15-2.02l-.06.06h-.02l.17-.13h.02c.79-.63,1.6-1.38,2.43-2.26.42-.48.83-.96,1.21-1.44l-.04.06.04-.07.23-.29c.76-1.06,1.34-2.01,1.73-2.84.05-.07.07-.13.07-.15v.06l-.04.06v-.06c.09-.17.17-.44.25-.83l.02-.11h.02v.07l-.02.02s-.02-.11-.02-.21l.02-.13c0-.06-.02-.14-.02-.23v.06l-.13-.4s.02,0,.02.02c0,0,0,.04.04.07-.06-.13-.13-.25-.21-.36l.06.09-.18-.23.02.02s.03.03.05.05.04.03.05.03c-.15-.07-.24-.13-.27-.15v-.02l.09.04v.02h-.04c-.09-.04-.17-.06-.27-.06h.15l-.09.02h-.21l.04.02s.06,0,.07-.02h.02s0-.02-.02-.02c0,0-.04.03-.08.04-.05,0-.09.03-.14.05-.05.02-.1.04-.15.05l.11-.06h.02l-.04.02c-.17.08-.36.19-.54.32-.04.04-.06.06-.07.06s-.02.02-.02.03l.09-.09c-.09.09-.15.15-.18.17-.11.1-.23.21-.34.34l-.47.52.06-.07s0,.04-.04.06-.05.06-.07.11-.05.08-.07.1c-1.32,1.93-2.53,4.2-3.64,6.78l-.13.3s.04-.05.04-.06,0-.03.02-.04c0,0-.02.03-.02.05s-.02.05-.06.08c-.3.75-.58,1.48-.85,2.22-1.25,3.39-2.59,8.03-3.99,13.92l-2.47-1.06c.9-2.07,2.05-3.99,3.44-5.76,1.65-2.17,3.26-3.69,4.84-4.56.78-.37,1.56-.54,2.37-.54.27,0,.74.05,1.43.15.68.1,1.36.65,2.02,1.66.46.83.7,1.74.7,2.73v.83c0,.52-.14,1.25-.38,2.16-.42,1.77-1.2,3.39-2.32,4.85-1.11,1.46-2.48,2.62-4.09,3.5-.78.44-1.47.66-2.07.66l-.03.05Z"/>
    <path class="st3" d="M165.15,60.76c-.76,0-1.53-.15-2.3-.43-1.42-.55-2.44-1.52-3.05-2.9-.42-.94-.64-1.92-.64-2.94,0-.44.04-.89.11-1.35.48-2.67,1.76-4.89,3.84-6.63,1.06-.87,2.22-1.51,3.49-1.91.7-.21,1.43-.32,2.16-.32,2.14,0,3.42.64,3.82,1.92.06.2.09.4.09.63,0,.59-.21,1.2-.63,1.83-1.87,2.83-4.97,4.53-9.3,5.1-.37.05-.7.07-.99.07-1.33,0-2-.5-2-1.51,0-.27.05-.57.15-.92.31,0,.75-.03,1.3-.09l.54-.07c1.32-.17,2.6-.5,3.84-.96l.45-.17c.87-.34,1.59-.74,2.18-1.21v-.02l-.09.09c.6-.48,1.06-.93,1.37-1.35l-.07.07.13-.18c.2-.27.32-.46.36-.58v.04h-.02l.02-.02v-.06s.02-.03.03-.06c0-.03,0-.06,0-.09l-.02.15v-.11c0,.11.06.25.17.4l.02.02-.06-.02s.06,0,.09.04l-.83-.18s.09,0,.11.02c-.21-.03-.43-.04-.66-.04-.31,0-.55,0-.72.02l.07-.02s-.02.02-.05.02-.07,0-.12.02c-.74.19-1.15.31-1.24.36,0,0-.04.02-.07.02l.07-.02-.04.02c-.48.21-1.01.53-1.62.96l.11-.09c-.66.54-1.2,1.06-1.58,1.56l-.06.06.04-.06c-.47.65-.84,1.27-1.11,1.87,0,.03-.02.05-.03.06,0,.02,0,.04,0,.05-.2.46-.37,1.07-.51,1.8l-.02.09c-.03.09-.04.48-.04,1.17,0,.28,0,.43.04.47v.04l-.04-.15s.02.06.02.09c0,.15.08.44.25.87,0,.05.03.08.04.09,0,0-.02,0-.02-.02v-.06l-.02-.02c.13.28.27.52.41.74,0,0,.02,0,.02.02v-.03s-.03-.03-.06-.06l.54.52h-.02l-.07-.07h.02s.05.05.15.11c.25.17.47.3.66.38l-.13-.06h.04c.06.06.34.15.83.27.06,0,.13.02.21.02l-.15-.02h.09l.02.02h.96s.08-.04.17-.04l-.02.02-.07.02h-.04s0-.02.04-.02c.07,0,.13,0,.15-.04.59-.08,1.22-.37,1.91-.83l.29-.2-.06.06v-.02c.24-.14.65-.55,1.24-1.24l.02-.02-.02.04c.24-.28.48-.68.72-1.22l.06-.11v.04s0-.03,0-.06c0-.03,0-.05.02-.06,0-.02,0-.03.02-.03s.06-.19.16-.57l.13-.54c0,.09,0,.13-.02.13l.02-.85c0-.08,0-.14-.02-.15,0,0,.02.03.02.05s0,.04.02.05v.06l-.17-.64s.02.03.02.04v.06s.02.04.03.04l-.29-.49h.02l.07.07v.02s-.12-.06-.21-.17c-.03-.04-.06-.06-.09-.09l1.92-1.92.41.34.27.23c.05.2.36.52.92.98l.11.07.07.02c.94.42,2.13.67,3.54.74,1.31.05,1.99.36,2.05.92.11.9-.53,1.35-1.94,1.33-1.33,0-2.52-.12-3.58-.36-1.11-.27-2.37-1.06-3.76-2.37-.27-.25-.39-.54-.38-.88v-.32c0-.19.13-.41.38-.69s.54-.4.88-.39h.32c.18,0,.41.13.68.4.96.9,1.44,2.08,1.44,3.52,0,.7-.2,1.56-.59,2.56-.4,1-1.07,1.97-2.01,2.9-1.01,1-2.2,1.71-3.56,2.11-.6.17-1.21.27-1.81.27l.05-.03Z"/>
    <path class="st3" d="M177.5,61.18c-.17,0-.35-.04-.51-.11-.55-.24-.83-.65-.83-1.24,0-.11,0-.23.04-.36l3.41-14.54c.1-.37.31-.64.64-.81.23-.11.46-.17.7-.17.52,0,.91.23,1.15.68.11.23.17.46.17.7,0,.17-1.15,5.12-3.44,14.86l-2.48-1.04c.97-2.2,2.04-4.33,3.22-6.41,1.08-1.91,2.37-3.65,3.87-5.24,1.41-1.51,2.7-2.43,3.88-2.77.25-.07.51-.11.77-.11.51,0,1.01.15,1.53.43.63.4,1.03.96,1.22,1.68.06.3.1.6.13.9l.04.32-.02-.07.02.17c.1.38.17.59.18.65.03.06.04.1.04.14l-.02-.07.27.52.29.41-.07-.09c.34.34.54.53.6.58l.04.06-.02-.02s0-.02-.03-.03c-.02,0-.03,0-.04-.02s-.02,0-.03,0v-.02h.02s0,.02.04.03.06.04.08.06.29.18.76.46c.3.17.46.25.47.25h.04l-.04-.04s-.08-.02-.13-.02c.04,0,.07,0,.1.03.03.02.06.03.08.03.17.06.32.11.49.13l.23.06h.06c-.06,0-.1,0-.11-.02h-.02.06c.51.05,1,.07,1.49.07.39,0,.71.15.97.41s.39.6.39,1c0,.35-.13.65-.4.9s-.58.39-.96.4h-.38c-.86,0-1.69-.11-2.52-.34-2.16-.75-3.59-2.09-4.3-4.01-.25-.72-.38-1.39-.38-2.03v.13l-.04-.23v-.11l.02.11-.06-.09.02.02.13.09-.17-.11.13.06-.18-.06h.15-.02s-.05.02-.09.02c0,0-.03,0-.05,0-.02,0-.05,0-.09,0s-.06,0-.06-.02h.17l-.45.11s.03-.04.09-.04l-.04.02s-.08.07-.23.15c-.14.07-.29.17-.45.3l.07-.06-.02.02s-.06.05-.11.07l-.06.06c-1.02.82-1.93,1.74-2.73,2.77l-.17.18c-.03.07-.06.13-.09.15l-.06.04s.02,0,.03-.02c0,0,0-.02.02-.03,0,0,.02-.02.03-.05l-.92,1.3c-1.35,2.04-2.8,4.77-4.32,8.17-.23.45-.63.68-1.19.68l-.02.03Z"/>
    <path class="st3" d="M196.39,76.85c-.63,0-1.23-.17-1.83-.49-1.21-.68-1.8-1.75-1.8-3.2.37-2.56,3.49-7.03,9.38-13.41,2.01-2.03,5.04-4.47,9.11-7.31.25-.11.48-.17.7-.17.44,0,.82.23,1.13.68.14.2.21.42.21.66,0,.55-.23.94-.68,1.17-3.34,1.65-6.52,4.24-9.53,7.8-3.02,3.56-5.19,6.22-6.51,7.98l.07-.09v-.02l-.07.07c-.17.18-.46.71-.88,1.56l.06-.11s-.06.09-.07.15c-.14.39-.21.68-.21.87h-.02l.02-.15-.02.43c0,.1,0,.16.02.17l-.02-.17c.03.15.05.24.06.26s.03.08.06.2h-.02l-.06-.13s.02,0,.03.02c0,0,.02.03.03.05,0,.02.02.04.03.05,0,0,.04.06.08.13l-.07-.09v-.02s.02,0,.02,0c0,0,0,.02.02.03.03.06.05.1.06.1s.03,0,.03.02c0,0,.02.02.05.05.03.03.06.05.08.06.03,0,.04.03.04.04l-.13-.07s.04,0,.06.04c.03.03.06.05.11.06.05,0,.06.04.06.07,0,0-.04-.02-.06-.03-.04,0-.05-.02-.05-.05l.04.02c.13.05.23.07.32.07h-.15s0-.02.02-.02h.2c.19,0,.3,0,.36,0h-.11c.37-.07.66-.17.88-.27l-.09.04s.09-.07.21-.13c.49-.27.8-.44.92-.54h.02l-.11.07c.06-.04.12-.08.17-.13.7-.59,1.37-1.3,2.02-2.13l-.07.09.07-.11c.59-.82,1.15-1.77,1.69-2.86.03-.05.05-.1.07-.14.03-.05.05-.08.06-.12s.03-.06.04-.07l-.04.11.04-.13c.35-.86.62-1.74.79-2.66.03-.14.06-.28.09-.41l-.02.07v.04c.05-.39.07-.8.07-1.24,0-.14,0-.26-.02-.37,0-.11-.02-.2-.02-.29l-.02-.02v-.15s.02.06.02.09c-.04-.04-.06-.11-.07-.2-.05-.28-.11-.54-.18-.81,0,0-.03-.02-.04-.06s-.03-.08-.04-.1l.02.02c-.15-.33-.35-.65-.58-.98,0,0,.03.05.07.09t0,0c-.07-.07-.12-.13-.13-.15-.25-.25-.44-.42-.57-.52l.07.07h.02l-.04-.02c-.14-.14-.33-.27-.56-.4-.05-.03-.12-.05-.2-.06v-.02l.13.06c-.17-.06-.33-.12-.51-.17-.05,0-.11-.02-.17-.02l-.02-.02s-.02,0-.02.02h.11c-.72,0-1.19-.29-1.41-.85-.06-.17-.09-.32-.09-.49,0-.32.13-.64.4-.96l5.38-6.44c.37-.42.64-.84.83-1.24l-.02.07.04-.07c.07-.18.13-.46.15-.81,0,.03.02.06.02.09l-.13-.45c.42.34.86.67,1.3.99-.78-.05-1.56-.07-2.34-.07-1.49,0-2.79.11-3.88.34s-1.91.96-2.42,2.2c-.42,1.01-.88,1.83-1.37,2.45-.14.19-.32.29-.54.29-.49,0-.88-.23-1.19-.7-.14-.2-.18-.4-.13-.63.23-.89.48-1.76.76-2.6s.57-1.54.87-2.09c.57-1,1.71-1.58,3.45-1.75,1.53-.15,2.99-.23,4.39-.23.8,0,1.61.03,2.41.09,1,.09,1.51.86,1.51,2.3,0,1.31-.81,2.88-2.43,4.73l-4.77,5.42c-.31-.78-.64-1.55-.96-2.32,1.21.08,2.25.5,3.14,1.21s1.55,1.64,1.99,2.74c.37.93.54,1.89.54,2.86,0,1.4-.29,2.85-.87,4.37-.73,1.93-1.75,3.7-3.06,5.29-1.45,1.79-3,2.9-4.63,3.35-.39.1-.77.15-1.15.15l-.03-.04Z"/>
    <path class="st3" d="M209.23,77.96c-.38,0-.75-.06-1.11-.17-1.03-.41-1.64-1.1-1.82-2.07-.08-.42-.13-.86-.13-1.28,0-.54.07-1.09.21-1.64.55-2.34,1.78-4.49,3.67-6.48,1.76-1.83,3.64-3.51,5.67-5.02s4.08-2.98,6.16-4.4c2-1.35,3.96-2.75,5.89-4.2.2-.14.41-.2.64-.2.52,0,.92.23,1.21.7.13.21.18.43.18.66,0,.45-.23.85-.68,1.19-1.3,1-3.66,2.69-7.1,5.04-2.27,1.56-3.84,2.71-4.71,3.41-.04,0-.07.04-.1.06s-.06.06-.1.08l.06-.06h.02l-.27.21c-2.02,1.51-3.86,3.18-5.5,5.04l-.29.34v.02c-.06.06-.09.1-.09.11h-.02l.06-.07v.02l-.07.09c-.49.65-.92,1.35-1.3,2.11-.13.25-.19.4-.2.45l.04-.07-.09.2c-.19.49-.35,1.02-.49,1.6-.03.2-.05.34-.07.41v.07h-.02l.02-.11-.02.72c0,.14,0,.23.02.29,0,0-.02-.03-.02-.07l-.02-.07h.02v.07l.02.06c.05.13.07.21.07.27,0,0-.02,0-.03-.02,0,0,0-.03-.02-.05,0-.02,0-.06,0-.1l.11.2h-.02s-.06-.06-.08-.09c-.02-.03-.03-.05-.03-.06,0,0,.03,0,.04.02,0,0,.03.03.05.04s.04.03.05.06c0,0-.03,0-.05-.03s-.05-.04-.08-.06l-.06-.04s.06.03.08.05c.02.02.04.04.06.05.03,0,.04.02.05.02s0,0,0,.02l-.18-.07v-.02s.05.02.07.03c.03,0,.06,0,.09.02s.07,0,.1.02c.04,0,.05.02.05.03l-.02-.02-.23-.02h.56s-.08.02-.17.02h-.04c.06,0,.12,0,.17-.04.08,0,.29-.05.58-.15l.15-.06.18-.09c.29-.13.66-.35,1.13-.66,0,0,0-.03.04-.05.03-.02.05-.04.07-.05s.05-.03.06-.04h-.02c-.06.06-.1.09-.1.09,0,0,0,0,0,.02l.49-.43c.56-.56,1.1-1.16,1.58-1.79l-.04.06.38-.51c.84-1.2,1.67-2.63,2.47-4.32.2-.42.35-.75.43-.96l.02-.04s0-.05.02-.07c0-.03.03-.05.04-.06l-.04.07.09-.2s0-.05.02-.06c1.08-2.71,2.58-7.2,4.48-13.45.44-1.45.89-2.91,1.35-4.37.98.42,1.8.77,2.47,1.03-.83,1.9-1.87,3.66-3.13,5.29-1.44,1.9-2.8,3.29-4.1,4.18-.96.64-1.98.96-3.06.96-.79,0-1.54-.24-2.22-.72-.9-.72-1.42-1.61-1.53-2.67-.04-.38-.06-.75-.06-1.11,0-.69.06-1.38.18-2.07.31-1.99.96-3.85,1.92-5.6.24-.44.63-.66,1.17-.66.24,0,.46.06.68.17.44.24.66.63.66,1.17,0,.24-.06.47-.17.68-.24.42-.45.87-.64,1.32l-.07.17c-.44,1.18-.72,2.2-.85,3.07l-.07.4.02-.04v-.04s-.02.06-.02.11c-.06.55-.09,1.1-.09,1.62,0,.29,0,.49.02.58l-.02-.11.11.43s.02.03.02.06l-.04-.11s.02.08.06.13l.02.02s.02.06.05.08c.03.04.05.06.05.06l-.09-.09v-.02h.02s0,0,0,.02c0,0,.04.04.1.1,0,0,0,.03.04.05s.05.03.06.03v.02l-.13-.07s.05.03.07.05.05.04.07.05.05.02.06.03c.02,0,.04.02.06.03.03,0,.05.02.06.03,0,0,.02.02.02.03l-.02-.02s-.06-.03-.13-.04c.27.08.43.14.51.15l.11.02s-.06,0-.07-.02c-.06,0-.09,0-.09-.02.05.03.11.04.17.04.07,0,.15,0,.2-.02h.09l.2-.04c.19-.04.38-.09.57-.17l-.09.04.06-.04s.06-.04.09-.04c.27-.13.52-.29.77-.49,0,0,.02,0,.03,0l.06-.06-.07.06s.1-.1.18-.15c.15-.13.3-.27.45-.41,2.31-2.21,4.11-4.79,5.4-7.76.21-.44.6-.66,1.17-.66s.95.25,1.22.75c.08.17.13.37.13.56s-.23.98-.68,2.37l-2.71,8.64c-.65,2.14-1.37,4.28-2.16,6.39-.84,2.27-1.92,4.43-3.24,6.46-.56.87-1.2,1.71-1.89,2.5-1.34,1.55-2.83,2.53-4.45,2.97-.38.11-.75.17-1.13.17h.06Z"/>
    <path class="st3" d="M228.53,60.99c-.46,0-.84-.19-1.11-.58-.15-.2-.23-.45-.23-.75.47-4.75,1.43-9.4,2.88-13.95,1.17-3.83,2.32-6.87,3.44-9.11l.09-.18c.38-.8.84-1.58,1.39-2.33.55-.75,1.28-1.22,2.18-1.44.2-.04.4-.06.58-.06.68,0,1.27.26,1.79.77.5.63.77,1.35.81,2.16,0,.78-.08,1.47-.25,2.07l-.02.06c-.55,2.44-1.51,4.87-2.86,7.31-1.76,3.06-3.82,5.91-6.19,8.53-.25.27-.55.4-.9.4-.03,0-.13,0-.32-.02-.18,0-.41-.14-.68-.38-.27-.24-.4-.52-.4-.85v-.34c0-.2.14-.44.38-.74.7-.79,1.48-1.72,2.34-2.79.03-.05.06-.09.09-.13v.02l-.07.07s.31-.39.87-1.15c1.66-2.3,2.95-4.56,3.9-6.76l-.02.07s0-.06.04-.1c.03-.05.05-.09.06-.15.02-.06.04-.12.06-.19.6-1.49,1-2.85,1.21-4.09,0-.15.03-.28.07-.38-.04.07-.06.14-.06.18l.04.02c0-.15,0-.25.02-.29l-.02-.43.02.02v.11s-.02-.06-.03-.11c0-.05-.02-.11-.05-.17-.03-.06-.05-.13-.06-.19,0,.07.02.12.03.13,0,0,.02.03.05.06l-.02-.07h-.02c-.05-.1-.07-.17-.07-.19l.11.13v.04s-.04-.02-.07-.06l-.06-.06.18.15s-.06-.05-.06-.06v-.02h.04l.07.06s.02,0,.02.02l-.09-.02h.15s.02,0,.02.02h-.15l.07-.04h.09s-.12.06-.29.09l.11-.04s-.03.02-.05.03c-.02,0-.04,0-.05,0l-.18.13v-.02l.09-.06s-.03,0-.06.04c-.03.03-.05.04-.06.05,0,0-.02.02-.02.03-.07.06-.14.13-.18.21,0,0,0-.03.02-.04,0,0,.02-.03.03-.04,0,0,.02-.03.03-.04,0,.03-.03.07-.07.13-.68,1.03-1.28,2.11-1.8,3.24-.23.52-.35.8-.36.82s-.02.04-.02.06l-.02.04h-.02l.06-.09s-.02.03-.02.06c-.68,1.66-1.31,3.41-1.89,5.26-1.13,3.38-1.95,6.53-2.47,9.45-.35,1.9-.6,3.6-.74,5.11-.78-.31-1.55-.64-2.32-.96l1.47-1.62c2.72-2.97,4.76-5.25,6.1-6.8,1.08-1.27,2.19-2.49,3.33-3.67.94-1.04,1.88-1.61,2.81-1.71.86,0,1.56.26,2.14.78.58.52.87,1.15.87,1.88,0,.17,0,.33-.04.49-.24,1.13-.68,2.17-1.32,3.14-.64.96-1.4,1.81-2.28,2.55-1.79,1.49-3.8,2.56-6.05,3.2l.81-2c.3.52.63,1.01.98,1.51l-.02-.02c.08.08.22.25.4.47.18.2.39.39.6.56l.07.07s-.04,0-.06-.03c-.03-.02-.04-.04-.04-.05l.47.3s.03,0,.04.02c0,0,.03.02.04.02s.06.03.13.07l-.07-.06.04.02c.07.04.13.06.16.06s.06.02.06.03c.14.04.28.06.41.07-.05,0-.09,0-.11-.02h.13l.07.02c.14,0,.21,0,.23-.02h.07l.09-.02s.09,0,.12-.02c.03,0,.06-.02.1-.02.24-.07.47-.16.7-.25l-.07.04.13-.06c.84-.39,1.68-.92,2.54-1.58l.15-.13c.49-.38,1-.83,1.55-1.34.54-.52.99-1.02,1.35-1.5.03,0,.05-.03.06-.06,0-.03.03-.05.05-.06s.04-.04.05-.05v.02h-.02l-.06.09v-.02l.4-.57c.32-.42.7-.64,1.13-.64.23,0,.46.06.72.17.45.24.68.64.68,1.21,0,.23-.06.44-.18.64-1.37,2.03-3.27,3.85-5.71,5.44-1.4.89-2.71,1.37-3.94,1.44-1.35-.03-2.5-.49-3.44-1.4-.94-.9-1.73-1.91-2.36-3.01-.13-.23-.18-.45-.18-.68,0-.66.33-1.1.99-1.32.54-.15,1.07-.33,1.58-.52,0,0,0-.02.02-.02,0,0,.03,0,.05,0,.02,0,.04,0,.05-.02,0,0,.03-.02.04-.03h-.02l-.04.04h-.04l-.02.02.15-.07c.24-.08.58-.26,1.03-.51.59-.31,1.17-.68,1.73-1.11l.04-.02h-.02s-.02.03-.03.04c0,0-.02.02-.03.02l-.02.02.2-.17c.59-.48,1.12-1,1.6-1.58l.13-.18v.02l.18-.27c.3-.47.53-.87.7-1.22l.04-.07c.15-.34.27-.68.36-1.03l.02-.07s0-.08.04-.13v-.02s-.02.03-.02.07v.09s.02.11.06.18v-.02l-.06-.07s0,.04.04.06l.04.04s-.04,0-.05-.03c0-.02,0-.04,0-.05h-.04v-.02s.02,0,.02,0c0,0,0,.02.03.04s.04.03.05.03h-.03s-.02,0-.03-.02c0,0-.02-.02-.02-.03h-.02s-.02-.02-.03-.03-.04-.02-.08-.03l.13.04-.23-.07h.04s.05.02.09.02h-.19c.06,0,.11,0,.15-.02h.09l-.11.02.15-.07-.02.02-.15.07-.38.27.09-.07-.13.09-.07.07c-.48.44-.92.9-1.33,1.39-.37.37-1.99,2.18-4.86,5.46-1.24,1.38-2.49,2.75-3.75,4.1l-1.55,1.69c-.24.25-.56.38-.96.38h.08Z"/>
  </g>
  <g>
    <g>
      <g>
        <path class="st0" d="M127.88,32.76c7.88,11.46,7.46,25.96,4.09,38.91-.25.95,1.22,1.35,1.46.4,3.47-13.31,3.86-28.29-4.24-40.08-.55-.8-1.86-.04-1.31.77h0Z"/>
        <path class="st0" d="M128.42,33.12c1.85-.16,2.7-2.05,3.39-3.55.86-1.88,1.42-3.86,1.68-5.91.53-4.08-.18-8.22-2.02-11.89-.44-.87-1.75-.11-1.31.77,1.54,3.06,2.18,6.48,1.94,9.89-.12,1.67-.46,3.32-1.01,4.9-.28.81-.62,1.6-1.02,2.36-.33.63-.82,1.85-1.65,1.92-.97.08-.97,1.6,0,1.52h0Z"/>
        <path class="st0" d="M128.31,32.02c-7.47,4.55-15.53-1.36-20.73-6.56-.69-.69-1.76.38-1.07,1.07,3.09,3.09,6.49,6.05,10.65,7.58,3.86,1.42,8.34,1.4,11.91-.78.83-.51.07-1.82-.77-1.31h0Z"/>
        <path class="st0" d="M129.4,32.47c.62-3.64-.32-7.74-1.46-11.2s-2.94-6.96-5.22-9.98c-.58-.77-1.9-.02-1.31.77,2.12,2.82,3.81,5.94,4.95,9.28s2.16,7.27,1.57,10.73c-.16.95,1.3,1.37,1.46.4h0Z"/>
        <path class="st0" d="M128.29,31.43c-7.93-.25-15.56-4.27-20.2-10.72-.57-.79-1.88-.03-1.31.77,4.97,6.9,13.01,11.2,21.51,11.47.98.03.98-1.49,0-1.52h0Z"/>
        <path class="st0" d="M128.68,31.23c-4.56-3.46-8.16-8.17-10.31-13.48-.36-.89-1.83-.5-1.46.4,2.31,5.71,6.1,10.66,11.01,14.38.78.59,1.53-.73.77-1.31h0Z"/>
        <path class="st0" d="M129.19,33.01c1.54.13,2.78-.85,3.91-1.76,1.21-.98,2.32-2.02,3.1-3.38.74-1.29,1.23-2.73,1.72-4.13.55-1.6.98-3.27.81-4.97-.1-.96-1.62-.97-1.52,0,.15,1.45-.17,2.83-.63,4.21-.42,1.26-.86,2.55-1.47,3.73s-1.44,2.1-2.44,2.95-2.11,1.95-3.47,1.84c-.97-.08-.97,1.44,0,1.52h0Z"/>
        <path class="st0" d="M127.92,32.66c-.21,1.22-1.14,1.97-2.22,2.44-1.27.55-2.71.91-4.07,1.19-2.89.6-5.7-.03-8.46-.9-.93-.3-1.33,1.17-.4,1.46,3.26,1.03,6.48,1.58,9.85.77,2.56-.61,6.24-1.48,6.77-4.56.16-.95-1.3-1.37-1.46-.4h0Z"/>
      </g>
      <g>
        <path class="st5" d="M130.99,12.76c.59-1.11,1.04-2.09.95-3.34-.04-.5-.45-1.56-.7-1.99-.29-.5-.78-.85-1.27-1.15-.33-.2-.68-.4-1.06-.43-.74-.05-1.37.53-1.82,1.13-.33.44-.63.92-.72,1.47-.19,1.1.5,2.17,1.32,2.92.9.83,2.08,1.45,3.3,1.4"/>
        <path class="st1" d="M128.06,7.25c.35-.19.74-.31,1.14-.33.22-.01.49.02.6.22.1.17.04.4-.06.57-.29.49-.84.76-1.38.91-.28.07-.63.1-.83-.12-.14-.16-.14-.39-.07-.59s.21-.36.34-.52"/>
      </g>
      <g>
        <path class="st5" d="M107.7,21.27c.19-1.24.27-2.32-.23-3.47-.2-.46-.95-1.32-1.33-1.64-.44-.38-1.02-.53-1.59-.66-.38-.08-.77-.15-1.14-.04-.72.2-1.11.97-1.33,1.68-.16.53-.28,1.08-.18,1.62.19,1.1,1.2,1.87,2.23,2.3,1.13.48,2.45.67,3.58.2"/>
        <path class="st1" d="M103.08,17.08c.26-.3.59-.54.96-.69.21-.09.47-.14.64,0,.15.13.17.36.13.56-.11.56-.53,1-.99,1.32-.24.17-.56.31-.82.17-.18-.1-.27-.32-.27-.53s.07-.41.14-.6"/>
      </g>
      <g>
        <path class="st5" d="M137.88,19.15c.94-.52,1.71-1.03,2.22-1.97.2-.37.39-1.33.41-1.76.02-.49-.17-.97-.39-1.41-.14-.3-.3-.6-.57-.79-.51-.38-1.23-.24-1.83-.02-.44.16-.88.38-1.19.72-.64.7-.64,1.79-.39,2.71.27,1.01.83,2,1.74,2.52"/>
        <path class="st1" d="M138.3,13.84c.34.02.67.12.97.29.17.09.34.24.33.43,0,.17-.15.3-.31.38-.43.22-.95.17-1.41.02-.24-.08-.5-.22-.54-.47-.03-.17.08-.35.22-.46s.31-.16.48-.22"/>
      </g>
      <g>
        <path class="st5" d="M122.36,12.06c.49-.9.85-1.71.78-2.73-.03-.41-.37-1.28-.57-1.63-.24-.41-.64-.69-1.04-.94-.27-.17-.55-.33-.87-.35-.61-.04-1.12.44-1.49.93-.27.36-.51.76-.59,1.2-.15.9.41,1.77,1.08,2.39.74.68,1.7,1.19,2.7,1.14"/>
        <path class="st1" d="M119.96,7.55c.28-.16.61-.25.93-.27.18-.01.4.02.49.18.08.14.03.32-.05.46-.24.4-.68.63-1.13.74-.23.06-.52.08-.68-.1-.11-.13-.12-.32-.06-.48s.17-.29.28-.42"/>
      </g>
      <g>
        <path class="st5" d="M117.84,18.49c.42-.77.73-1.46.67-2.33-.02-.35-.32-1.09-.49-1.39-.2-.35-.54-.59-.89-.81-.23-.14-.47-.28-.74-.3-.52-.04-.96.37-1.27.79-.23.31-.44.65-.5,1.02-.13.77.35,1.51.92,2.04.63.58,1.45,1.02,2.31.98"/>
        <path class="st1" d="M115.79,14.64c.24-.13.52-.21.79-.23.16,0,.34.02.42.15.07.12.03.28-.04.4-.2.34-.58.53-.97.63-.2.05-.44.07-.58-.08-.1-.11-.1-.27-.05-.41s.14-.25.24-.36"/>
      </g>
      <g>
        <path class="st5" d="M113.03,36.2c-.21-.85-.44-1.57-1.08-2.18-.25-.24-.97-.59-1.3-.7-.38-.12-.8-.07-1.2,0-.26.05-.54.11-.75.28-.41.32-.46.92-.41,1.44.04.38.11.77.32,1.1.42.66,1.27.89,2.05.89.86,0,1.76-.22,2.36-.83"/>
        <path class="st1" d="M108.92,34.72c.09-.26.24-.51.43-.7.11-.11.26-.22.41-.17.13.04.21.19.23.32.08.39-.07.79-.29,1.12-.11.17-.28.35-.48.33-.14-.02-.26-.13-.31-.27s-.06-.28-.07-.43"/>
      </g>
      <g>
        <path class="st5" d="M108.18,26.79c-.11-.87-.25-1.61-.81-2.29-.22-.27-.89-.71-1.2-.85-.37-.17-.79-.17-1.19-.14-.27.02-.55.04-.78.18-.45.27-.57.86-.58,1.38-.01.38.01.78.18,1.13.34.7,1.16,1.04,1.93,1.13.85.11,1.77,0,2.45-.54"/>
        <path class="st1" d="M104.28,24.83c.12-.25.3-.47.52-.65.12-.1.29-.18.43-.12.13.06.18.21.19.35.03.39-.17.77-.42,1.08-.13.16-.32.31-.52.27-.14-.03-.24-.17-.28-.3s-.03-.29-.02-.43"/>
      </g>
    </g>
    <g>
      <g>
        <path class="st0" d="M147.86,24.41c-6.99,5.37-12.06,12.94-14.28,21.48-.25.95,1.22,1.35,1.46.4,2.11-8.13,6.91-15.45,13.58-20.57.76-.59,0-1.9-.77-1.31h0Z"/>
        <path class="st0" d="M147.6,25.47c1.03,2.3,3.44,3.51,5.76,4.14,3.08.84,6.34,1.02,9.49.6.95-.13.97-1.65,0-1.52-2.89.38-5.82.27-8.65-.43-2.11-.52-4.34-1.45-5.29-3.56-.4-.89-1.71-.12-1.31.77h0Z"/>
        <path class="st0" d="M147.85,25.22c4.31,3.18,10.03,1.74,13.99-1.25.77-.58.01-1.9-.77-1.31-3.56,2.69-8.55,4.14-12.46,1.25-.79-.58-1.54.74-.77,1.31h0Z"/>
        <path class="st0" d="M149.14,24.86c.54-1.4,1.66-2.48,2.74-3.48s2.33-1.99,3.59-2.86c2.48-1.7,5.18-3.05,8.02-4.02.92-.31.52-1.78-.4-1.46-3.13,1.07-6.1,2.55-8.8,4.46-2.52,1.78-5.48,3.98-6.61,6.95-.35.91,1.12,1.31,1.46.4h0Z"/>
        <path class="st0" d="M148.9,24.21c-.62-1.94-.95-3.95-.94-5.99,0-.98.07-1.96.23-2.93.11-.71.18-2.06.85-2.49.82-.53.06-1.84-.77-1.31-.89.58-1.17,1.53-1.38,2.52-.25,1.16-.39,2.36-.44,3.55-.09,2.39.26,4.79.99,7.07.3.93,1.76.53,1.46-.4h0Z"/>
        <path class="st0" d="M148.97,25.15c0-4.34,3.08-7.74,6.52-9.98.81-.53.05-1.85-.77-1.31-3.89,2.54-7.27,6.4-7.27,11.29,0,.98,1.52.98,1.52,0h0Z"/>
        <path class="st0" d="M148.97,25.6c2.41-.84,4.84-1.61,7.29-2.3.94-.26.54-1.73-.4-1.46-2.45.69-4.88,1.46-7.29,2.3-.39.14-.64.52-.53.93.1.38.54.67.93.53h0Z"/>
        <path class="st0" d="M148.05,24.19c-1.45-.05-2.61-2.18-3.19-3.31-.67-1.29-1.09-2.74-1.2-4.19-.23-3.02.82-6.01,2.83-8.27.65-.73-.42-1.8-1.07-1.07-2.45,2.75-3.68,6.43-3.19,10.1.24,1.79.85,3.52,1.81,5.05.9,1.44,2.17,3.14,4.01,3.2.98.03.98-1.49,0-1.52h0Z"/>
      </g>
      <g>
        <path class="st2" d="M162.25,29.54c.79.91,1.51,1.65,2.66,2,.46.14,1.55.13,2.03.06.55-.08,1.03-.41,1.47-.74.29-.22.59-.47.75-.8.3-.65,0-1.41-.39-2.02-.28-.45-.61-.88-1.07-1.15-.92-.55-2.11-.3-3.07.17-1.06.52-2.02,1.36-2.39,2.48"/>
        <path class="st4" d="M168.19,28.81c.05.38.02.77-.1,1.13-.07.21-.19.43-.4.46-.19.03-.37-.1-.49-.25-.34-.43-.4-1.01-.34-1.55.03-.28.13-.6.39-.7.19-.07.4,0,.55.14s.25.31.35.48"/>
      </g>
      <g>
        <path class="st2" d="M162.9,13.84c1.03.62,1.96,1.09,3.16,1.06.48-.01,1.52-.36,1.94-.58.49-.25.85-.71,1.16-1.17.21-.3.41-.63.46-1,.08-.71-.45-1.34-1-1.8-.41-.34-.86-.64-1.37-.76-1.04-.23-2.1.38-2.86,1.13-.84.83-1.49,1.93-1.49,3.11"/>
        <path class="st4" d="M168.31,11.28c.17.34.26.72.26,1.1,0,.22-.05.47-.24.57-.17.09-.38.02-.54-.09-.45-.3-.69-.84-.81-1.37-.06-.28-.07-.61.15-.79.16-.12.38-.12.57-.05s.33.21.48.35"/>
      </g>
      <g>
        <path class="st2" d="M145.61,8.34c1.19-.19,2.2-.42,3.11-1.21.36-.32.93-1.25,1.12-1.69.22-.51.2-1.09.14-1.64-.03-.37-.09-.75-.29-1.06-.39-.6-1.21-.74-1.92-.73-.53,0-1.07.06-1.54.3-.95.49-1.37,1.64-1.47,2.7-.11,1.17.1,2.43.85,3.34"/>
        <path class="st4" d="M148.12,2.9c.35.15.66.39.91.68.14.16.27.39.18.59-.07.18-.28.26-.47.28-.54.06-1.07-.19-1.5-.53-.22-.17-.45-.43-.39-.7.04-.19.22-.34.41-.4s.39-.05.59-.04"/>
      </g>
      <g>
        <path class="st2" d="M148.16,12.67c.81.04,1.5.02,2.2-.37.28-.16.78-.7.96-.96.21-.31.28-.69.32-1.06.03-.25.04-.5-.05-.73-.18-.45-.69-.65-1.16-.74-.35-.07-.71-.11-1.05-.01-.69.19-1.12.89-1.33,1.57-.23.75-.27,1.61.11,2.3"/>
        <path class="st4" d="M150.54,9.44c.21.15.38.34.51.57.07.13.12.29.04.41-.07.11-.22.13-.35.12-.36-.03-.67-.27-.91-.55-.12-.14-.24-.34-.16-.51.05-.12.19-.19.32-.21s.26.02.39.05"/>
      </g>
      <g>
        <path class="st2" d="M161.07,23.63c.76.27,1.43.46,2.21.28.31-.07.95-.44,1.2-.64.29-.23.46-.58.61-.92.1-.23.19-.47.17-.72-.04-.48-.47-.82-.9-1.04-.31-.17-.65-.31-1-.31-.72-.01-1.33.53-1.73,1.12-.44.66-.72,1.46-.56,2.24"/>
        <path class="st4" d="M164.28,21.22c.16.2.27.44.32.69.03.14.03.31-.08.4-.1.08-.25.06-.37.02-.34-.14-.57-.46-.71-.79-.08-.17-.13-.39,0-.54.09-.1.23-.13.37-.11s.25.1.36.16"/>
      </g>
      <g>
        <path class="st2" d="M155.78,22.59c.46.39.89.7,1.49.78.24.03.78-.06,1.01-.14.27-.09.48-.29.67-.49.13-.13.26-.28.31-.46.1-.35-.12-.7-.36-.97-.18-.2-.38-.39-.62-.49-.5-.2-1.07.02-1.51.34-.48.35-.89.84-.98,1.43"/>
        <path class="st4" d="M158.67,21.75c.06.18.07.38.04.57-.02.11-.06.23-.16.26-.09.03-.19-.02-.26-.09-.2-.18-.28-.47-.29-.74,0-.14.01-.31.14-.38.09-.05.2-.03.29.02s.15.13.21.21"/>
      </g>
      <g>
        <path class="st2" d="M154.75,14.72c.59.14,1.1.23,1.68.03.23-.08.67-.4.85-.57.2-.2.3-.47.38-.74.05-.18.1-.37.07-.55-.07-.35-.42-.58-.75-.71-.25-.1-.51-.18-.77-.16-.54.05-.95.5-1.2.97-.28.52-.42,1.15-.25,1.72"/>
        <path class="st4" d="M156.97,12.67c.13.14.23.31.29.49.03.1.05.23-.03.31-.07.07-.18.07-.27.04-.26-.07-.46-.3-.59-.53-.07-.12-.13-.28-.05-.4.06-.08.17-.12.27-.11s.19.05.28.09"/>
      </g>
    </g>
  </g>
</svg>