<?xml version="1.0" encoding="UTF-8"?>
<svg id="Layer_1" xmlns="http://www.w3.org/2000/svg" version="1.1" viewBox="0 0 400 400">
  <!-- Generator: Adobe Illustrator 30.2.1, SVG Export Plug-In . SVG Version: 2.1.1 Build 1)  -->
  <defs>
    <style>
      .st0 {
        fill: #9b89c4;
        isolation: isolate;
        opacity: .7;
      }
    </style>
  </defs>
  <path class="st0" d="M338.64,107.32c-5.29-23.01-23.38-41.44-46.76-46.82-6.31-27.82-31.13-48.7-60.83-48.7H74.86c-34.45,0-62.47,28.02-62.47,62.47v156.18c0,29.69,20.87,54.52,48.68,60.83,5.4,23.38,23.83,41.47,46.84,46.76,6.43,27.99,31.5,48.6,60.66,48.6h156.18c34.45,0,62.47-28.02,62.47-62.47v-156.18c0-29.16-20.62-54.24-48.59-60.66v-.02h.01ZM277.9,74.27v37.75l-77.12,77.12-36.78-36.78,40.84-40.84h0l64.3-64.3c5.45,7.65,8.75,16.96,8.75,27.07l.02-.02s-.01,0-.01,0ZM206.31,277.31h-10.11l-30.75-30.75,81.7-81.7,30.75,30.75v8.23l-71.59,73.47ZM277.9,226.24v4.22c0,25.83-21.02,46.86-46.86,46.86h-2.91l49.76-51.07h.01ZM174.12,277.31h-39.41l19.71-19.71,19.71,19.71h-.02.01ZM258.19,153.81l19.71-19.71v39.42l-19.71-19.71ZM106.58,187.67l-36.78-36.78,81.68-81.7,36.8,36.8-81.7,81.68h0ZM231.05,27.41c10.11,0,19.41,3.28,27.07,8.75l-58.79,58.79-36.8-36.8,30.74-30.75h37.77l.02.02h0ZM171.2,27.41l-66.07,66.07-34.83-34.83,31.24-31.24h69.67-.02.01ZM28.01,74.27c0-25.83,21.02-46.86,46.86-46.86h4.58l-51.43,51.43v-4.58h-.01ZM28.01,100.93l31.24-31.24,34.83,34.83L28.01,170.6v-69.67ZM28.01,230.45v-37.77l30.75-30.75,36.78,36.78-58.79,58.79c-5.45-7.65-8.75-16.96-8.75-27.07v.02h.01ZM47.8,268.56l64.3-64.3h.02v-.02l40.83-40.83,36.78,36.78-77.11,77.12h-37.77c-10.11,0-19.41-3.3-27.07-8.75l.02-.02s0,.02,0,.02ZM121.72,324.16c-20.04,0-37.61-12.95-44.12-31.24h153.45c34.45,0,62.47-28.02,62.47-62.47V77c18.29,6.51,31.24,24.08,31.24,44.12v156.18c0,25.83-21.02,46.86-46.86,46.86H121.72ZM371.61,324.16c0,25.83-21.02,46.86-46.86,46.86h-156.18c-20.04,0-37.61-12.95-44.12-31.24h153.45c34.45,0,62.47-28.02,62.47-62.47V123.86c18.3,6.51,31.24,24.08,31.24,44.12v156.18h0Z"/>
</svg>