<?xml version="1.0" encoding="UTF-8"?>
<svg id="Layer_1" xmlns="http://www.w3.org/2000/svg" version="1.1" viewBox="0 0 400 400">
  <!-- Generator: Adobe Illustrator 30.2.1, SVG Export Plug-In . SVG Version: 2.1.1 Build 1)  -->
  <path d="M317.35,106.12h-7.82v-54.76c0-21.56-17.54-39.12-39.12-39.12h-140.82c-21.56,0-39.12,17.56-39.12,39.12v54.76h-7.82c-38.82,0-70.41,31.59-70.41,70.41v93.88c0,38.82,31.59,70.41,70.41,70.41h7.82v7.82c0,21.56,17.56,39.12,39.12,39.12h140.82c21.58,0,39.12-17.56,39.12-39.12v-7.82h7.82c38.82,0,70.41-31.59,70.41-70.41v-93.88c0-38.82-31.59-70.41-70.41-70.41ZM106.12,51.36c0-12.94,10.53-23.47,23.47-23.47h140.82c12.94,0,23.47,10.53,23.47,23.47v54.76H106.12v-54.76ZM293.88,348.64c0,12.94-10.53,23.47-23.47,23.47h-140.82c-12.94,0-23.47-10.53-23.47-23.47v-78.23c0-12.94,10.53-23.47,23.47-23.47h140.82c12.94,0,23.47,10.53,23.47,23.47v78.23ZM372.11,270.41c0,30.2-24.57,54.76-54.76,54.76h-7.82v-54.76c0-21.56-17.54-39.12-39.12-39.12h-140.82c-21.56,0-39.12,17.56-39.12,39.12v54.76h-7.82c-30.2,0-54.76-24.57-54.76-54.76v-93.88c0-30.2,24.57-54.76,54.76-54.76h234.7c30.2,0,54.76,24.57,54.76,54.76v93.88ZM309.53,176.53c0,4.32-3.5,7.82-7.82,7.82h-46.94c-4.32,0-7.82-3.5-7.82-7.82s3.5-7.82,7.82-7.82h46.94c4.32,0,7.82,3.5,7.82,7.82Z"/>
</svg>