<?xml version="1.0" encoding="UTF-8"?>
<svg id="Layer_4_Image" data-name="Layer 4 Image" xmlns="http://www.w3.org/2000/svg" viewBox="0 0 531.07 531.07">
  <path d="M361.71,20.5c1.33,1.72,4.02.65,5.81,1.23,4.42,1.43,5.89,6.07,6.77,9.96.43,1.91,1.83,3.52.49,5.77.42.35.81,1.03.87,1.39-.67,1.89-.02,3.49.27,5.24l.71,4.29c.23,1.41-.6,3.02,0,4.18.23-1.26,1.21-.88.86,0l.08,9.78c.02,2.31-.28,4.78-.11,7.15.11,1.49-.59,2.37-1.39,3.03,1.02,1.23.87,2.39.69,3.87-.56,4.71-.85,9.26-1.89,13.88-.51,2.27-.39,4.62-1.15,7.04s-.18,5.23-2.01,7.47c.33,2.45-.06,5.02-1.72,7.08.76,1.9-.35,3.42-.62,4.87-.56,2.98-1.16,5.66-2,8.64l-2.8,9.86-2.51,8.28-4.78,13.69-4.79,11.63c-1.09,2.65-1.83,5.28-3.46,7.86s-2.7,5.1-3.47,8.19c-.17.7-1.56,1.6-.86,2.85-4.15,4.17-5.39,9.96-4.89,15.85l1.21,5.4.54,4.37c.47,3.86.64,7.23,2.06,11.03.43,1.16.08,2.99,1.5,3.98,1.08.75.65,2.09,1.19,2.89l3.87,5.73c.66.97,3.55,1.84,4.56,1.14,4.47-3.1,7.4-7.42,9.84-12.03l3.6-6.8c.63-1.2.63-2.59,2.08-3.43.28-.16.5-.87.39-1.08-.07-.14-.17-.29-.5-.59,1.59-1.83,1.84-4.27,1.55-6.73l2.59-.74c-1.41-1.9.71-3.91.68-5.4-.03-2.31.38-3.56.77-5.24l.82-3.55c.44-1.89.3-3.04,1.01-4.79.36-.88-.41-2.58.67-3.81l.97-3.19c1.54.55,3.52.45,4.66.21l1,.71c.16.11.8-1.91,2.62-1.89.57,0,1.77.46,1.69,1.22l-.74,7.15-.9,11.88-.04,11.5c0,2.43.8,4.57,1.18,6.78.48,2.8,1.23,4.35,4.35,4.79.59.08,1.81,1.1,2.3.27l1.11-1.89c.29-.49,2.18-.58,2.17-1.41l-.02-2.08c.69.78,1.39,1.47,2.11,1.37.87-1.94,2.54-1.87,4.12-2.16.76-.14,1.65-1.81,3.25-1.08-1.08-2.08-.91-3.78-.68-6,1.74-16.59,10.67-36.62,28.47-36.44,4.35.04,8.46,0,12.57,2.11.69.35,2.32-.34,2.69-.95.85-1.39,2.49-.84,3.47-1.11,1.49-.41,2.49-1.25,4.13,0,.72.55,2.25.92,3.13.52,1.72-.79,2.56.95,3.4,1.11,1.65.3,3.06.09,4.61,1.34,5.28,4.26,2.35,14.25-1.43,20.89-.39.69-1.92.64-2.7.56.18.69,1.01.8,1.65.37.71-.03.8.86-.07.75.39,2.24-1.9,3.07-2.5,4.32-.85,1.8-1.3,3.08-2.5,4.81l-3.21,4.65c.69,3.66,2.55,7.59,6.28,8.85,2.24.76,4.51-.82,6.14-2.1l7.45-5.8c1.82-1.42,3.12-4.12,5.87-3.6-.4-1.19.08-1.67.7-1.78.35-.06,1.21-.05,1.18.57l-.04,1.04c.76.87,1.36-.22,1.71-.23l2.56.22c.24.96.91,1.4,1.72,1.45.1,1.37-2.3,5.28-3.95,7.29l-2.41,2.93c-2.11,2.57-3.92,4.69-6.75,6.5-.68.43-2.01,1.62-2.38,2.34-1.01,1.95-2.85,1.74-4.47,2.29-1,.34-1.87.87-3.1.73-.57.23-1.06,1.32-2.52,1.27l-4.71-.15c-.37-1.98-1.3-3.31-3.09-3.59-.09,1.21-.06,1.91-.42,2.63-.9-.78-.59-1.25-.69-1.77-.16-.77-.43.36-1.38.74l-5.44-5.16-1-2.7c-1.86.33-2.77,2.03-4.12,3.16-3.22,2.67-3.84,4.59-5.27,3.89-1.01,2.04-3.03,2.75-5.02,3.88l-3.12,1.78c-.44.25-1.09-.55-1.19-.89-.29.72-.65,1.4-1.04,1.35l-1.33-.17c-.48-.06-1.19.73-1.54.62-.26-.08-.53-.68-1.02-.53-4.4,1.35-5.65-3.85-7.76-.75-.82-3.17-3.13-4.9-5.45-6.71-.77-.6-1.05-2.1-2.6-2.05.23-.7.19-1.23-.16-1.65-3.41-4.19-1.4-6.57-3.27-8.83.33,2.26-.98,2.92-1.65,4.39l-2.41,5.29c.77.35.55,1.16-.57.8-.27,2.9-2.67,6.29-5.2,6.42-3.25,3.18-8.17,4.52-12.41,1.8.91-.44,2.06-.65,2.73-.67,9.44-.35,7.42-3.3,7.21-3.15l-.8.6c-1.37.21-2.55.23-3.87,1.17-.83-1.75-2.2-2.06-3.71-2.09-2.59-2.85-4.18-.3-7.11-4.17l-2.55-3.36c-.8-1.06-.01-2.8-1.51-3.99l-3.68,7.4c-3.48,6.99-9.33,15.23-15.66,19.87.45-1.99,2.22-2.56,3.48-4.2-1.63-.43-2.5,1.3-3.67,1.59-1.47.36-2.25.74-2.94,1.85-.61-.8-1.19-1-1.82-1.31.59-.37,1-.8,1.09-1.1.06-.19-.3-.63-.85-.88l-1.52,2.6c-.32.55-1.25.29-1.36-.03-.1-.3.26-.55.36-1.5-2.72,1.12-3.78-2.33-5.62-.09-.53-1.09-2.12-1.68-2.94-2.68-3.91-4.77-6.07-10.5-7.47-16.5l-1.65-7.07c-.44-1.9-.25-3.85-1.97-5.51-2.69,4.95-5.69,9.22-8.99,13.55l-9.69,12.69-6.79,6.83c-2.2,2.22-4.93,3.62-6.89,6.02l-1.02-2.02c1.21-.22,2.43-.58,2.93-1.98l-6.28,3.16c-1.22-.71-2.65-.7-4.2-.62l-3.52.18c-.48-2.51-4.3-3.1-5.28-3.7l-2.77-1.69c.12-1.03-.1-1.92-.65-2.87l-4.01-6.98-5.73,3.53c-4.86,2.15-9.71,3.76-14.9,2.61l-1.11-2.36c2.56.73,5.24-.2,5.05.85-.04.21-.29.79.5,1.11.91-2.09,2.26-1.59,4.06-2.33.3-.12.56-.58-.09-.69-.2-.04-.81-.46-1.04-.34-3.55,1.72-7.47-.42-11.06-3.12-1.12,1.87,0,3.09.17,4.47.06.45-1.41.72-2.02.08-.42,2-1.71,2.95-2.6,4.45-1.87,3.17-3.82,5.89-6.09,8.66-1.91,2.32-3.79,5.55-6.37,4.29.27,1.11-.07,1.49-.43,1.78-.61.5-1.6.63-1.81.18l-.79-1.69c-.27-.58-1.42.18-1.31.64l.4,1.73-3.51-.09c-.02-.67-.18-1.23-.47-1.42-.65-.42-2.91,1.22-2.32-.15.09-.2.13-.69,0-1.25-1.95.79-2.42-1.69-5.86-3.15-5.07-2.14-8.17-6.32-10.26-11.28-.77-1.83-2.32-3.45-2.22-5.85.02-.51-.89-1.57-1.07-2.16-2.02-6.44-2.87-12.79-3.98-19.29l-6.59,15.58c.19.04.49.2.59.58.32-.63.44-1.43,1.58-2.07.91,2.18-.61,3.86-1.27,5.6-1.57,4.15-4.88,10.08-8.26,12.69-2.12,1.64-4.61,4.48-7.62,4.59-2.71-2-7.23-2.55-7.21-.51-2.75-3.05-9.1-8.61-10-11.57l-2.86-9.38-4.76,3.38c-3.24,2.98-6.89,5.25-10.97,6.77-8.45,3.15-8.83-.31-9.11-.28-.83.08-1.42,1.18-2.17.89s.59-1.19-.31-1.9c-.25-.2-.53-.08-.54.1-.02.27.08.76-.36,1.27-1.43-2.64-3.75-4.61-5.8-6.85-2.92-3.19-2.99-7.58-3.25-11.62-.13-2.07.93-3.82.98-5.39.1-3.03.74-4.8,1.62-7.46,2.46-7.36,5.66-14.65,11.49-20.03,6.7-6.19,15.47-9,24.31-7.08l2.71,1.47c1.3-1.72,1.88-4.52,3.62-5.68,1.22-.82,2.36-1.22,2.89-2.74,2.67-2.04,3.57-2.42,6.8-1.02.71-2.01,1.95-1.31,3.33-1.34,1.95-.05,3.72-.41,5.05.54,2.93,2.09,3.13,5.09,2.98,8.99-.64.17-1.27.75-1.09,1.03.13.2.73.88.66,1.14l-1.44,5.24c-.58-.18-1.15-.34-1.41-.25s-.06,1.08-.16,1.49c-3.44,13.92-12.14,22.61-13.42,26.3-1.11,3.21.39,6.58.62,9.73.21,2.89.88,5.18,2.23,7.7,1.01,1.89,1.2,4.31,3.51,5.45,3.64-2.17,6.83-5.21,9.57-8.46.68-.81,1.35-1.58,2.45-1.93l2.72-9.11c.33-.22,1.57.75,2.15.62.57-.92-.78-1.6-1.45-1.15-.59-2.16.99-3.64,1.39-5.32.95-4.05,1.95-9.11,4.17-9.06.49-.86-.15-1.54-1.34-.82.98-4.28,2.81-8.45,2.75-13.1l-.28-20.43c-.02-1.48.38-2.69.15-4.45-.46-3.59-.08-7.32-.01-10.8l.14-6.7c-.4-6.7.2-13.12.25-19.48l-7.58,2.54c-.33.11-.51.74-1.02.45-.24-.13-.58-.84-.18-.97,2.78-.93,4.93-2.08,7.62-3.41.38-.19,1.46.16,1.39-1.12-.02-.34-.12-.83-.69-.34l-7.94,2.86c-8.32,3-20.07,9.08-27.81,8.97-1.67-.03.73-5.54,4.14-6.97l21.85-9.21,10.97-5.6c-.37-4.72.18-8.58.41-12.85l.55-10.35,1.99-24.75c.18-2.26.78-4.25,1.14-6.42.46-2.81.55-5.6,2.12-7.95-.12-2.78,2.11-8.47,4-10.03.68-.56,6.31-.82,9.59-.25,3.64-1.89,6.16,3.49,7.17,8.62-3.99-1.52-2.19-7.27-5.24-6.3,1.15,2.19,2.49,4.76,2.11,7.18-.24,1.53-.1,1.65.61,2.83,1.43,2.36,1.03,5.37,1.87,8.38,1.22-3.66.96-7.41-1.16-11.41,1.96-.15,2.38,1.57,2.61,2.97.65,3.97,1.14,7.62,1.1,11.52l-.05,4.71c-.02,1.92-.46,3.75-.43,5.29.03,2.22.66,4.26.1,6.98-.42,2.04,1.1,4.93-1.19,6.45l-.3-2.82c-.78,1.24-1.33,3.2-.48,4.52.18.28,1.17.45,1.21.7.03.17-.55.63-.78.68-.13-.12-.3-.48-.35-.69-.19-.74-1.13.54-1.1.82.39,3.65-.16,6.68-.58,10.48l3.85-2.38c1.09-.67,2.55-1.06,3.33-1.49,1.54-1.49,3.32-1.77,4.94-2.65l10.54-5.76,7.7-4c1.91-1,4.66-1.24,6.4-3.37.47-.58,2.51-.55,2.89.05.6.96-.98,2-1.32,2.45.42,1.24,1.44,2.3,1.63,3.23.76,3.76-6.53,6.62-10.14,8.64-1.24.7-1.91,1.97-3.69.87.19,1.91,1.66,1.61,2.4,1.09,1.71-1.21,6.19-2.2,8.47-4.62l3.04-3.24c2.07,3.38-5.3,7.12-10.49,9.53-1.03.48-2.06,1.91-3.33,1.91-.24,0-.61-.76-.84-.82s-.3,1.24-.51,1.34c-1.62.79-3.56,1.99-4.95,2.81-2.67-2.38,3.49-1.89,6.67-6.33-2.1-.5-3.51,1.14-4.99,1.83l-3.62,1.7c-1.46,1.25-2.78.77-3.96,1.29-1.03.45-2.03,2.1-3.83,1.39-.25-.1-1.17.25-1.18.51s.19.71.21,1.35c-3.22-1.62-3.97,2.13-5.08,2l-1.64-.19-2.07,3.51c1.86-.22,3.38-1.07,5.06-1.92.67-.14,1.11.71.89,1.01-.19.26-.96.41-1.21.56l-6.81,4.01c.74.68,1.19-.18,1.48-.13.32.05.35,1.18.29,1.56l-2.44,13.72-2.84,13.19-1.96,8.94c-1.31,5.96-2.5,11.66-4.24,17.52-1,3.35-1.94,6.79-2.05,10.33-.06,1.88-.15,3.01-1.86,4.21.99.12,1.69.08,2.19.41.24.15-.47.96-.36,1.3.95,3.08.55,6.04.85,9.09.21,2.16.44,4.02.55,6.17l.26,4.98,1.88,11.92c.66,4.19,3.4,6.98.7,8.6-1.03-1.25-1.45-.36-1.75.36-.39.94-.04,1.18.88,2.02.82.75.34,3.05,2.45,3.42-.64-2.12-1.66-4.48-.01-6.43,1.01,5.02,4.95,9.01,3.83,12.04l-3.95-5.05c-.49-.28-1.24,1.35-.87,2.13.23.49.62.82,1.74.81.17.82.37,1.9.89,2.4,1.21.69,2.38,1.09,3.11,2.27.74-1.19-.36-1.47-.65-1.96s1.03-1.31,1.6-.83l1.34,1.13c1.57,2.09,3.7,3.44,6.35,2.91.96-1.44,1.48-3.26,2.75-4.38.24-.09,1.23-.29,1.31-.53.05-.14-.39-.43-.73-.58,2.86-4.14,5.52-8.37,7.36-13.23l1.42-.83c-2.73-4.24-2.66-9.15-2.6-13.98.03-2.81.48-5.17,2.4-7.32-1.64-1.06-.97-2.06-.75-3.12.85-4.03,2.05-7.41,4.18-11.13.28-.5.18-1.95,1.42-1.87.28.02.73.05.97-.22.12-.13.06-.65-.16-.65h-.98s4.41-6.22,4.41-6.22c.66-.94,2.18-1.31,3-1.8.67-1.86,1.74-3.14,3.4-4.04-.04,1.03.37,1.67,1.07,1.78.38-1.28,1.38-1.96,2.17-2.3.48-.2,1.08.7,1.99.84l.6-3.11c.58.65,1.15.94,1.47.77l1.16-.64c.36.41,1.29,1.19,1.73.85.53-.4.82-1.17.99-2.19,1.68,1.6,4.69-.06,5.91-.06l8.08-.03c2.57-.01,5.21,2.6,7.45,1.43.25-.13.87-.21,1,0,.11.19,0,.78.15.91l2.77-1.61,2.02,1.06,1.86-.82c1.99.33,3.95.44,6.1-.4,3.57,3.38,4.77,8.32,3.05,12.8-.49,0-.89.13-.84.31l.36,1.29-2.29,6.37c-1.16,3.24-2.18,6.73-4.52,9.45-.68.79-1.59,1.69-1.51,2.83.17,2.22-1.89,2.69-2.57,3.87-.91,1.56-.73,3.58-2.63,4.68-2.13,1.23-3.57,5.41-4.91,6.99-1.96,2.32-2.03,4.46-1.41,7.34,1.07,5.02,2.09,10,7.14,11.78,2.38.84,5.22-.41,6-2.93,1.36.59,2.46-1.47,3.22-2.29,3.16-2.63,5.77-5.45,8.28-8.7l5.68-7.35c.42-.55,1.48-.95,1.6-1.47.15-.68-.28-1.63-.38-2.23.49-.11,1.9-.3,1.82-.98s-.1-1.4.23-1.99c.19-.35,1.13-.17,1.59-.31,1.09-1.27,1.45-3.39,1.83-4.74l1.22.02c.81.01-.51-3.28,2.07-4.31,1.7-.68,1.3-2.2,1.78-2.99,1.24-2.07,1.4-3.97,1.51-6.59l.22-5.31c-.41-1.93-.21-2.95.26-4.71.21-.79-.37-1.85,1.27-2.67-.95-.35-1.87-.77-1.74-1.18l.53-1.8c-.39-2.77-.2-5.32-.11-8.02l.26-7.91c.09-2.63.06-4.51.31-7.06.44-4.44-.29-10.14,1.01-14.41-.34-1.07-.05-2.45.01-3.72l.32-6.5c.16-3.31.04-6.54,1.44-9.92-.69-1.85-.62-3.98.16-6.14-.1-2.34-.07-4.56.87-6.78,1.03-2.44-.73-6.17,1.46-7.39-1.4-.99-.57-1.95-.32-3,.29-1.22.25-2.21,1.36-2.96-.59-.35-.87-.77-.93-1.09-.07-.34.24-.98.91-1.29-.6-2.9,0-5.76.61-8.73l-.28-1.18c-.1-.41.72-.62.8-.11.05.34.35.7.54.63.12-1.43-.86-2.11.7-3.21-1.21-1.34-.52-2.46-.22-4l.7-3.6.9-1.34c.17-.25-.57-.9-.76-1.26,1.31-1.13,1.89-2.72.92-4.23,1.03.02,1.35-.44,1.52-.84.26-.61.13-1.52-.91-1.91l1.52-4.7c3.23-4.07.1-8.04,2.29-7.35l3.8-12.23-.92-.08c-.36-.03-.11-.91.21-.89.21.01.64-.08,1.07-.23-.43-1.22-.37-2.6.53-3.62.25.72,1.13,1.16,1.23.84l.37-1.08c.08-.24-.31-.64-.7-1.01.9-3,2.69-6.26,5.14-8.12.68-.51,1.39-1.23,1.74-2.17,1.56-.17,3.57-.43,3.93-2.08h1.56ZM348.75,154.09c-.51-.4-1-1-.98-1.45,1.43-1.13,1.18-3,1.73-4.5l3.34-9.15,3.04-9.93c.18-.59,1.71-1.12,1.88-1.71.26-.93.16-1.68-.9-2.49.66-.76,1.43-1.15,2.73-1.52l-1.88-2.09c.94-1.09,2.09-1.7,2.43-2.93-.44-.11-.75-.03-.92,0-.32.05-.39-.53-.24-.54s.86-.42.81-.61c-.38-1.22.84-3.49.96-4.68.28-2.78,2.03-5.96,1.98-8.79-.02-1.25-.24-1.66.42-3.41.46-1.2-.25-3.49,1.76-4.26-1.31-.97-.64-1.82-.44-3.05l1.79-10.94c.47.87,1.37,1.14,1.61.68l-1.56-1.59.19-1.81c.25-2.35,1.11-5.41,1.24-8.23.11-2.34.53-4.48.6-6.91l.24-8.95c.03-1.16-.75-2.9.33-4.25-.34-7.25-1.56-14.2-4.27-20.82.46-.51.23-.96-.14-1.26-.13-.1-.37-.34-.5.07-.41,1.35-2.18-.64-3.24.1-.52.37-1.42,1.05-1.82,1.79l-3.87,7.2-.93,2.66c-3.19,6.35-3.7,13.45-5.39,20.02-.93,3.64-1.25,7.01-1.75,10.56-.24,1.72-.91,3.26-1.01,5.11-.05.99-.88,1.71-.49,3.22.73,2.9-1.23,6.61-1.25,6.51.07.43.33,1.09,1.07,1.57-1.34,1.34-.83,2.68-.86,4.2-.03,1.65-.98,3.39-1.13,5.13l-.41,4.58c.44,2.42,0,4.41-.53,6.74.25.78.47,2.06.39,3.11l-.62,7.6-.55,11.46-.72,9.94c-.26,3.59-.05,6.88-.63,10.43-.19,1.15.38,2.77-.58,3.85.73,1.9.88,5.03-.23,6.28.97,1.2.95,2.84.29,4.09.8,1.59-.34,3.32.44,4.07,1.27,1.22,1.27-2.39,3.85-4.98-.41-.42-.68-.79-.5-1.02l.74-.99c.8-1.08.75-2.32,2.07-3.03-.33-.2-.97-.71-.93-1.07-.03.35,1.74-2.81,3.32-4ZM375.22,50.96c.3-3.78-.06-8.53-1.36-11.81.71-.9.06-1.42-.98-.7-.17,2.07.08,4.55.69,6.75.99,3.55-.46,5.36,1.64,5.75ZM345.3,67.06c.18.13.41.33.42.32,1.13-3.07,1.43-6.34,1.89-9.53l-.43-.33-1.88,9.54ZM212.6,109.46c.43-4.65,1.24-8.75,1.39-13.23l.21-6.28c.33-9.94.84-19.62-.38-29.62-2.03,5.13-2.48,13.07-2.91,18.97l-1.01,13.83-.83,18.35c1.23-.05,3.42-.78,3.53-2ZM341.98,87.22c.22.24.46.35.79.03l2.04-16.05c-.06-.03-.35-.12-.52.23l-2.31,15.78ZM224.02,85.84c1.31-2.89,1.15-4.73.07-7.08-.59,2.46-.75,4.86-.07,7.08ZM207.71,99.36c.9-2.96.27-5.07.58-7.48l.66-5.19c.06-.46-.85-1.14-1.14-1.3-.21-.11-.71.47-.74.72s.04.66.16.95c1.2,2.86-1.03,7.69.47,12.3ZM208.76,133.83c.07.01.31-.08.44-.29l1.77-8.94c-1.2-.27-1.94.39-2.23.91s.09,1.33.09,1.95l-.06,6.37ZM206.43,141.19c.89-1.05.26-2.3.25-3.7l-.05-6.66c-.22,0-.49-.2-.59-.3l-.21,6.04c-.06,1.81-.31,3.37.35,4.87l.25-.25ZM206.7,141.5l-.4.22c-1.22,1.5-1.26,4.12-.08,5.87.44-1.57.18-2.8,1.12-3.85l-.65-2.24ZM181.65,183.08c1.82-2.2,1.63-4.72-.47-6.3-.15,2.53.02,4.02.47,6.3ZM269.14,225.95l-1.16-2.05,3.16-2.62c.63-9.21,1.25-18.55,4.97-27.24.48-1.12.46-2.05.9-3.41l1.27-3.86c.07-.22,1.26-.71,1.1-.91-.11-.14-.54-.39-.56-1.16-2.4.53-5.34.17-7.89.02-.41-.02-1.18.95-1.54.85-.27-.07-.77-.62-.7-.91.49-.88,1.28-1.75,2.8-1.91l-2.66-1.21-1.14,4.61c-1.87-1.15-2.14,1.41-5.56,1.21-.21,2.14-1.68,2.85-3.07,4.04-2.87,2.45-5.48,8.98-6.65,13.27l-1.4,5.15c-.49,4.94.88,9.92,1.96,14.69,2.5,3.27,4.86,3.11,6.6,4.68.52-1.21,1.12-1.69,1.88-1.99s1.69.19,2.69.33l-.32-1.3c-.06-.26.5-.44.66-.35,2.08,1.18,2.68-.77,4.65.05ZM174.67,191.88l1.57-6.85c.24-1.05-.38-2.2-1.31-2.76.09,4.15-2.15,7.79-1.51,9.36.16.4,1.13.77,1.25.24ZM172.01,188.04c.66-.81.38-1.54.22-2.37.77-.85,1.73-2.05.24-3.18-2.96,3.83-3.56,7.72-4.17,12.81,2.18-1.88,1.86-5.01,3.7-7.27ZM434.76,220.48c2.41-2.66,5.04-4.89,8.12-7.17.42-1.83,1.37-4.6.93-6.88-1.01-5.23-.53-9.96.28-14.89l1.16-7.05c-2.9-1.29-5.76-.83-8.78-.15s-5,3.92-7.04,6.29c-1.58,1.83-2.21,3.27-2.78,5.56-.92,3.71-2.33,7.1-2.38,11.17-.86-.19-1.05-.51-2.27-.42,2.07,2.04,1.21,3.93,1.16,6.3-.09,4.03-.11,8.86,2.49,12.05,1.39,1.19,6.93-2.41,9.12-4.81ZM289.95,196.42c2.19-2.76.48-4.8,3.12-3.92.03-2.46.17-4.89,1.59-4.97-.78-.44-1.08-1.18-1.36-2.26l-2.56,1.81c-.47.33-.5.91-.19.99.17.05.46,0,.93-.05-.4.93-.85,2.12-1.91,2.78l-1.16-.12c.34.03-2.83,7.17-2.45,11.39,2.01-1.44,2.55-3.84,3.99-5.66ZM469,188.58c1.2.04,1.13.99,1.46,1.4.04-1.48.62-2.45.04-3.96-.14.4-.72,1.28-1.06,1.06l-1.53-.96c.17,1.74.77,3.24-.28,4.66-.37.51.22,1.55.95,1.28,1.24-.47,1.05-2.49.42-3.48ZM134.84,231.72c2.49.41,4.67-1.72,6.31-2.95,4.98-3.74,9.37-7.62,13.24-12.55.11-8.14,1.12-15.79,2.74-23.7-.05-1.15-1.13-2.83-1.62-3.93-2.88-.89-5.55.02-7.92,1.28-9.12,4.86-12.17,11.21-15.12,20.46-2.34,7.36-2.86,20.52,2.37,21.38ZM420,215.22c.87-1.01,1.21-2.12.98-3.67l.98-3.41c.31-1.08-1.21-1.53-1.79-1.13-.38.26-.34.84-.96,1.61,1.97,2.56-1.46,5.8.52,6.91l.27-.31ZM420.53,215.49l-.62.32c-2.41,1.47.31,7.34,2.71,11.32.92.38,1.59-.65.48-.99.43-1.25-.53-1.86-.86-2.61-.39-.87-.4-1.56-1.64-1.83.91-2.17.59-4.4-.06-6.21ZM344.77,236.97c.35.38.59,1.02,2.07.28-4.13-6.27-5.78-13.69-8-21.57-.75,4.92,3.83,17.79,4.25,17.99,2.39,1.15.43,1.94,1.68,3.3ZM211.3,226.5c-3.17-5.43.48-8.36-2.73-9.29l.65,5.37c.3,2.46.57,4.72,1.82,7.15,1.04-.83,1-1.95.25-3.23ZM386.59,223.42c-.11-.59.64-1.1.42-1.37-1.99-2.38-.69-3.67-2.45-4.36.27,2.35.5,4.76,1.57,6.67,1.02.87,1.93-.37.46-.94ZM129.93,229.93c.17-3.01-.25-4.6-.5-6.87-1.89,1.98-1.94,5.68.5,6.87ZM169.41,240.28c.21.2.99-.71.92-1-.07-.28-.58-.56-.82-1-2.31-4.14-2.91-8.67-3.48-13.51-2.16,1.47-1.08,3.77-.86,5.57.19,1.56.17,1.79,1.01,3.19,1.18,1.97,1.28,4.94,3.23,6.74ZM354.86,245.87c3.05-2.29,5.74-4.11,7.27-6.94l-6.29,4.08c-1.05.32-2.59,1.77-.98,2.86ZM293.34,249.59c3.71-1.45,6.64-3.01,9.11-5.76l-7.17,3.4c-.91.43-2.31.87-1.94,2.36Z"/>
  <path d="M42.2,247.71c1.37-3.1,1.08-5.81,1.9-7.23.9-1.55.76-3.96,1.35-5.65l6.42-18.43c-2.86-.48-1.58,4.32-4.11,4.43l2.38-5.77c1.14-2.76,2.32-5.33,2.2-8.18.62.31.81.61.96.81.28.39.53.13.6-.07.22-.62-.6-.98-.77-1.21-1.44-1.95-.56-4.73-.75-6.85-.21-2.44-.85-4.42-.62-6.95l-.55-4.17c2.8-.25.59,2.81,1.6,5.77,1.48,4.32-.19,8.01,1.32,11.21,1.08-2.7.23-5.46.06-8.4l-.33-5.9-1.21-5.95c-.35-1.74-.51-2.9,1.24-3.96-.74-1.17-1-2.26-1.33-3.27l-.76.06.92,2.84c.12.37-.69.87-1.33.52-.51,3.25,1.78,5.54-.2,6.45-.31-3.26-1.14-5.96-2.01-9.3-2.84-1.88-7.54,3.44-10.83,7.98-4.43,6.08-7.45,12.91-9.79,20.1l-1.18.79c-.27.18.22.8.7,1.18-1.67,5.66-2.88,11.59-4.03,17.47-.25,1.26-.95,2.57-1.08,3.8-.27,2.44,1.15,4.97-.09,7.41.72.54.89,1.03.95,1.63-1.99-.66-1.6-3.16-2.34-4.39-1.16-1.92-.12-3.23-.36-4.51-.37-1.98.12-3.5.2-5.4.38-8.21,3.22-23.79,6.68-30.48.75-1.44.91-3.13,1.67-4.4-.72.03-1.17-.02-1.33-.21-.04-.05.81-3.74,2.73-5.35l.94.8c1.5-1.09,2.07-3.24,2.62-4.92.13-.4,1.4-.6,1.6-.94.21-.39.1-1.15-.1-1.71,2.15-2.44,4.51-4.87,7.88-5.85,1.36-.39,2.77-2.36,4.86-1.52.28.35.52,1.23,1,1.49.3-.67.45-1.03.74-1.43.2-.28,1.02.13.97,1.02,3.09.28,4.75,3.04,5.02,5.62,3.45,5.48,2.8,12.15,4.6,17.71,4.13-5.22,7.53-10.59,12.9-14.03,2.91-1.87,5.7-3.6,8.85-4.83,3.79-1.48,8.66-.31,10.13,3.35l4.08,6.98c1.09,1.87,1.06,3.73,1.63,5.58,2.63,8.58,2.3,21.31,2,30.68l-.33,10.21-.66,8.66c-.21,2.75-.36,5.08-.48,7.81l-.55,12.43c-.05,1.16-.25,3.09-1.57,2.6-.66-.25-1.21-2.46-1.92-2.51-2.12-.07-3.75-.64-5.13-1.94l-1.93-.57c-.58-.17-.7-1.38-.62-2.24-.67-2.21-.9-4.32.31-6.03-1.49-2.27.36-4.71.21-6.43-.26-2.99.44-5.53.63-8.45l1.63-24.97c.48-7.44-.4-20.52-4.36-26.21-10.13,3.91-17.66,17.51-23.02,27.18-1.15,2.08-1.48,4.34-1.16,6.75l-.5,3.21c-.34,2.2-.1,4.22-.24,6.53l-1.09,18.64c-.14,2.43-.86,5.55-.56,9.19.1,1.22-.52,2.93-.7,4.33-.85,6.69-2.1,13.17-4.5,19.46l-3.22,5.16c-1.12-1.35-2.66-.8-3.37-1.2-1.2-.68-1.64-1.19-3.23-.91-1.02,0-2.88-.97-3.97-1.63-2.6-1.58-3.63-5.5-2.04-8.09.78,2.59.32,4.89,1.61,6.84,1.25-1.04.36-2.08.12-3.03-.72-2.91-.8-5.58,1.47-8.04-.9-.68-1.41-.3-2.5.19.67-4.46.25-9.23,1.13-13.31.56-2.58.83-5.55,1.93-8.03ZM92.22,238.63l-.44-5.39.39-8.94c.12-2.84,1.33-5.6-.03-8.37l-.7,11.66-1.12,8.11c-.26,1.88-.56,3.62.34,5.14.26-1.21,1.08-1.75,1.56-2.21ZM48.82,271.39l2.33-13.3,1.11-4.55c.68-2.8-.54-5.83.98-8.8.67.58,1.02,1.47,1.99.99-.71-.98-1.46-1.22-1.76-1.73-.15-.27-.11-5.24.88-8.41.18-.56-1.63-.81-1.49.12.18,1.14-.72,2.4-.71,3.14.04,1.59-.45,2.58-.85,4.11-.38,1.43.58,3.42-.31,4.58-.64-.19-1.11-.09-1.31.09-.31.28-.05.66.12.62,2.9-.72.24,6.3-.06,10.31-.18,2.38-.19,4.02-.99,6.26-.4,1.13.15,2.99-.64,4.35-.38.66-.74,1.81.7,2.24ZM90.42,254.63c-.6-2.29-.2-4.14-.29-6.67-1.76,1.72-1.14,3.69-1,5.61.02.33-.51,1.19-.45,1.48.06.28,1.01.4,1.74-.42ZM48.15,259.4c.53-2.63.97-4.43.75-6.93-1.75,1.29-1.93,5.11-.75,6.93Z"/>
  <path d="M423.16,143.24l-8.15,6.36c-3.81,2.98-7.44,5.62-11.85,7.68l-9.62,4.51c-1.67.78-3.71.45-5.29.16.68-.74,1.25-.44,1.83-.48l-1.34-.91c-.41-.28.29-2.21-.63-2.75-.32-.19-1.54-.41-1.59-.12l-.3,1.77c-1.04,1.31-1.57-.81-2.32-1.17-1.43-.69-2.48-2.89-3.31-4.7-4.55-9.94-3.92-13.49-4.63-22.29-.2-2.41.5-3.68,1.12-5.75.36-1.2.27-3.4,1.8-4.1.07-.58.09-1.45.5-1.8.5-.43,1.3-.02,1.83-.23l1.97-.78c.53-.21,2.44,1.45,4.82,2.51,1.89-.07,3.88-.19,5.46.92.13.34.27,1.04.56,1.04l1.46.03c1.52.03,2.36,4.13,4.2,4.6,1.44.37,3.33-2.57,6.36-.79.11-1.84,1.54-2.34,2.99-2.41l4.5-.23c2.82-.14,5.63-.01,7.28,2.81.88-1.14,2-1.53,2.64-1.27.6,1.77,2.73,1.94,4.42,2.48,1.46.46,3.29,3.76,2.83,5.28-1.25,4.12-4.55,6.66-7.56,9.65ZM386.97,148.96c-.16-6.4-1.07-11.94.28-17.7l-1.58-1.29c.36,1.8-.86,3.22-1.28,4.43.39.53.15,1.46-.04,1.96,1.06,4.15.05,8.84,2.62,12.59ZM408.94,137.64c-3.83.89-7.27,2.83-10.89,5.09-1.42.88-2.44,2.16-4.72,1.16.5-.5.76-1.37.25-1.91-.53.49-1.42.61-1.74.35.7.57-1.26-3.08-.83-5.75-1-.25-2.22-1-2.65-2.18-.37-.02-1.1.54-1,.79l.56,1.32.84,12.04,4.14-1.38,9.47-4.45c.18-.08,1.07.36,1.03.17-.02-.13-.07-.65.08-.73l5.04-3.06c.32-.2,1,.15,1.17-.08s-.36-1.49-.76-1.39Z"/>
  <path d="M39.92,250.86c.22,1.85-.64,3.76-.9,5.5-.37,2.45.78,5.54-1.92,7.51.25-9.43,2.73-18.31,4.99-27.08,1.45,2.34-1.49,5.75-1.13,11.02-.78.81-1.22,1.57-1.04,3.05Z"/>
  <path d="M183.4,135.31c-6.24,2.2-11.83,5.04-18.7,5.37,4.32-1.94,8.74-2.81,13.33-4.28l6.72-3.01c.72-.32,1.87-.26,1.78.69-.09.83-2.23.91-3.12,1.23Z"/>
  <path d="M37.11,264.05c1.76-.12,1.4,4.78,1.03,8.56-1.46-2.91-1.31-5.57-1.03-8.56Z"/>
  <path d="M294.6,253.33c-2.28,1.1-4.48,2.46-6.9.72,5.57.03,8.54-3.87,8.07-.75-.04.27-.44.36-1.18.03Z"/>
  <g>
    <path d="M340.73,435.1c1.64-.49,1.51-2.29,2.14-3.52.94-1.85,2.41-3.38,2.47-5.7,1.41-.32,2.21-1.1,1.84-2.41,1.63-.61,1.99-1.97,1.93-3.55,1.77-.85,2.67-2.67,2.59-4.41,2.11-1.57,2.9-3.86,4.06-5.95l3.34-6,4.65-8.02c-.46-.44-1.36-.59-2.05-.94l.11-.68,2.47.88c.87-.83.7-1.67.3-2.58.59-.07,1.45-.34,1.71-.62.01-.02.29-2.95.26-3-.28-.45-.9-.43-1.31-.4-.75.06-.88.66-1.11,1.49-.29,1.02-1.27.42-1.53.06-.3-.42-.83-1.32-.72-1.76.13-.53,1.34-.74,1.84-.95-.45-2.13,1.49-3.55,2.37-5.26l1.83-3.58c.91-1.78,2.01-2.99,2.91-4.81l2.12-4.31,1.72-8.62c.36-1.8.26-3.2,1.31-4.86.36-.57-1.18-2.15-1.41-1.66l-.67,1.43c-1.4.46-2.23,1.82-3.02,2.93-1.07,1.5-3.65,2.39-4.92,3.52l-.79-.52c-.23-.15-.63.45-.83.65-1.06,1.05-5.35.71-6.65.21-.49-.19-.59-1.03-.79-1.74l-3.42-.33c-.69-1.92-1.97-3.04-3.55-4.37-.99.63-1.25,1.91-1.13,3.23.18,2.07-1.56,3.68-1.98,5.44-.45,1.9-.11,3.93-1.33,5.74l-2.23,7.38c-.55,1.82-3.95,5.88-3.54,8.18-.97.08-1.17,1.52-1.5,1.98-1.2.31-1.43,1.37-2.27,2.18-4.3,4.19-5.41,3.99-10.34,4.98-.79.16-2.7-.07-3.42-.35l-3.55-1.39-8.53-4.41c-1.06-.55-2.85-.19-3.72-1.39-.15-.2-.11-.79-.28-.93s-.97.34-1.25.22l-9.61-3.95c-.45-.18-1.83.44-2.03-.55-.12-.6.82-2.14-.12-2.54l-2.08-.9-.54-2.08-1.88-1.04c-.54-.3-.33-1.39.06-2.45-.99-.72-2.12-.65-3.09-1.95,1.94-.42,3.98.29,5.74.7.19-1.47,1.1-2.33,2.23-3.2.67-.52.68-2.6,2.51-1.75l1.19-4.29c.82.19,1.53.15,1.98,0s.37-1.44.41-1.97c1.08-.59,1.87-1.94,2.08-3.03,1.78-.82,3.05-1.56,4.15-3.47l2.77-4.82c.97-1.68,2.63-2.74,1.12-5.22,1.11.42,1.06.75,1.64,1.21,1.23-6.01,5.39-12.27,2.24-17.88l-1.59,6.93c-.08.34-.71.96-.73,1.27-.02.28.39.51.62,1.12-1.58,1.6-1.63,3.66-2.11,5.86-1.22-.36-1.68-2.87-1.07-3.55,2.09-2.35,4.06-10.36,1.6-13.47-6.27,1.26-11.22,5.02-14.63,10.39-.48.76-1.72,1.48-1.71,2.49,0,1.58-1.31,2.14-1.93,3.09-2.91,4.42-4.4,9.39-6.48,14.19l-1.88,5.81c-1.01,3.12-2.15,6.65-2.18,9.73-.66-.1-.89-.15-1.11,0-.48.34-.47,1.14-.57,1.73l-1.13,6.6c-.31,1.77-.74,3.03-1.06,4.63-.62,3.05-.59,6.22-2.64,8.93.37.82.59,1.31.48,2.27l-.96-1.12c.24,1.35-.78,3.67-1.99,3.52-2.87-.36-.72-5.35-2.13-5.66-.25-.05-.62,1.1-.81,1.47-2.36-.21-4.81-2.86-5.14-5.39-1.1.35-1.73.19-2.11-.12-.55-.45-1.04-1.24-.93-2.07l1.24-9.19c.34-2.54.09-4.82.43-7.2l.61-4.23c.63-4.36-.17-8.47.8-13.05,1.78,3.43,1.02,6.61.25,9.92l.23,2.54c.18,2.01-.33,4.19-.03,6.15-.36.23-.73.55-.73.74,0,.21.85.62,1.11.32,1.18-1.32.66-3.24.96-4.68l1.08-5.15v-13.4c.78-2.14,1.28-5.15-1.91-6.54.24,1.6.47,2.71-.11,4.25-.64,1.68,1.11,3.82.18,5.27-.36.55-1.02.79-1.75.42.3-1.74.83-3.77.38-5.46-.74-2.82,1.3-6.93-.42-12.34-4.45,4.93-12.28,12.45-17.09,13.55l-9.24,2.1-4.69-.91c-1.13-.22-2.25.44-2.78,1.38-.41.72-1.01,1.86.35,2.68-.52.23-.93.42-1.27.8-.3.34-.08,1.21.04,1.75-1.08.96-1.51,2.34-.95,3.95l-1.79,2.17c.42,1.22-.77,2.07-.92,2.7-.46,1.95-4.31,9.7-5.39,11.12l-2.37,3.13c-3.44,5.85-8.52,11.49-15.6,12.29-2.54.29-4.99-2.91-6.35-4.56-2.18-.31-3.59-1.03-3.92-3.15-2.38-1.09-2.85-3.15-3.71-5.16-.58-1.36-2.09-2.14-1.64-4.1.21-.88-.61-2.19-.84-3.2,2.97-.14.84,3.49,3.39,4.29l-.28-3.39c-.11-1.3-1.72-4.74-.7-7.18,0-.71-.69-1.98-.88-3.24-1.92,3.27.51,5.87-1.18,7.73-.6-.42-.96-1.01-1.05-1.51-.07-.35-.03-.82.66-1.35-1.18-.83-.46-2.06-.58-3.07-.54-4.69.35-7.94.35-8.95l.02-4.7c.48-.25,1.33-.43,1.46-1.11-2.79.02-3.96,2.57-5.98,3.84-1.47.92-2.91,2.61-4.42,3.11-1.3.42-1.77,1.09-2.69,1.6-3.19,1.76-5.24,3.81-5.99,7.43l-2.87,6.37c-1.17,2.59-1.99,4.91-3.69,7.5-.58.88-.73,2.32-1.68,3.39-.78.88-1.51,1.43-2.04,2.38l-2.25,4.07c-1.57,1.27-2.06,2.18-2.81,3.94-.47,1.11-2.05,2.28-2.73,3.17-1.14,1.49-1.7,2.6-3.5,3.74-2.29,1.45-4.16,3.92-6.75,4.74-3.32,1.05-6.82.61-8.79-2.08-2.19.28-1.53-2.69-5.38-3.58-.88-.2-1.3-1.43-1.77-2.04l-.82.84c-.17.17-.4-1.1-.65-1.26-3.56-2.29-6.85-10.88-7.1-15.33l.47-1.36c.06-.18-.53-.18-1.06-.11.41-1.07.85-2.22.11-3.3-.45-.66-1.26-1.65-2.08-1.66-2.25,5.44-5.46,9.69-8.88,13.95-.59.74-.59,1.67-1.15,2.03-.89.57-2.13.75-3.35.61,1.01,2.55-.99,2.29-.69,4.38.04.27-.75.59-1.04.34-.19-.17-.08-.9-.36-.83l-1.24.31c-.26.07-.8-.34-.85-.63-.05-.27.74-.64.89-.98,2.77-6.06,6.62-11.2,9.62-16.93l6.22-11.84c.93-1.77.38-3.31-.4-4.83,1.64-3.48.86-7.19.87-10.81l.02-13.55.1-2.03.23-8.51c.09-3.37.23-6.39.63-9.77l1.92-16.44c.87-7.45,3.05-14.26,6.25-21.09,1.62-3.46,2.55-7.14,5.85-9.83,1.8-2.88,5.73-3.74,9.14-3.14,3.17-2.47,6.53-2.19,10.21-.26,3.52,4.27,3.03,13.3,1.92,19.76-.75,4.36-.82,9.19-2.79,13.53.06,3.04-2.07,7.49-2.85,10.7-.42,1.74-.24,3.37-.94,5.21-1.11,2.94-2.55,5.84-3.41,8.7-1.09,3.64-2.67,6.72-4.37,9.97l-1.47,4.22-4.4,9.75c-.94,2.08-1.74,3.82-3.09,5.79l-.59,5.27c-.04.38-.76.47-.94.47-.37,0-.68.6-.16,1,.21.16.48.32,1.19.16.42.17.11,1.35-.74,1.56,1.35,1.41,1.59,4.38,1.31,4.87-.22.38-.72.64-1.57,1.23.98.39,1.76.89,1.84,1.7.1.93-.36,1.76-1.37,2.54,3.3,2.1,2.44,6.94,3.93,12l-.96.72c-.07.05.45.73,1.31.36,1.73,2.87.58,5.24,1.65,6.99.65-.4,1.1-.35,1.41-.39.71-.09.9.92,1.18,1.23,1.44,1.65,3.48.89,4.57-.51l3.11-3.98c.85-1.09,2.03-1.99,3.21-1.46-2.31,2.6-.62,2.76,2.78-.5.17-1.29.65-1.54,1.77-2.37l3.5-5.53c1.87-1.5,2.87-3.07,2.44-5.31l2.33-3.64c.85-1.33,2.17-1.99,2.42-3.65-2.21.18-4.49.68-4.71,2.09l-2.79-2.68c-.52.58-1.07,1.2-1.69,1.45-.91.36-2.07-.9-2.75-1.05-2.36.27-3.63-.83-4.92-2.94-.73-1.2-2.76-2.36-3.94-3.44-.73-.67-2.5-.6-2.45-2.54.03-1.09-1.28-1.71-1.57-2.31-1.55-4.8-.1-6.97.57-10.16.86-4.06,3.02-7.95,6.32-10.95.48,3.42-5.43,8.11-5.7,11.78l-.42,5.69c1.53-.55,1.69-2.04,1.3-3.4.43-.22,1.15-.72,1.2-1.04-.19-2.01.48-3.6,2.54-4.41-.47-1.14-.48-1.94-.25-2.71.19-.67,1.41-.95,1.74-1.47,1.8-2.81,3.61-5.57,6.34-7.57.53-.39.83-.62.79-1.17-.03-.52-1.31-1.13-1.48-.74-.57,1.37-1.5,2.17-2.66,3-.17.07-.75-.38-.7-.64s.34-.92.63-1.15l5.65-4.48c.45,1.09-.36,1.53-.33,1.82.05.4,1,.4,1.29.37.35-.05,1.21-.52.82-.86l-1.1-.97c.56-.71,1.91-2.16,2.88-2.3,5.63-.76,9.67-4.51,15.95-1.64.44,2.54,2.21,5.41,2.46,6.86.36,2.16.44,3.81,1.88,5.59,1.14,3.19-.54,6.33.11,9.86,1.19-.27,2.24.13,3.41.3.78.11,1.39-.94,1.22-1.37s-.72-1.45-.76-2.02c.94-1.59,2.53-2.48,3.85-3.82-.11,1.44-.39,2.38.39,3.31l4.11-3.63c-1.23-1.35-1.78-3.13-.19-4.05.05,1.3-.32,2.11.14,3.49,1.49-.89,1.66-2.24,2.49-3.67l.64-1.09c.12-.21-.57-.8-.74-1.05.16-.75,1.35-1.96,2.39-1.78.57.1.5,1.58-.02,1.77,1.71,1.02,2.2-.87,2.92-1.19,1.76-.76,2.7-1.29,3.9-2.94,1.12.46,2.7,2.12,2.62,3.14l-.56,6.89-.71,4.63c-.52,3.41-1.56,6.36-1.63,9.91l-.22,10.49.07,6.36c.01,1.04-1.19,1.61-.74,3,.31.94.77,1.86,1.84,2.6-.28,2.06,1.35,4.55,3.31,5.08.96.26,1.18-1.16,1.16-1.65,1.73-.8,4.08-.58,6.01-.47.66-2.12,1.49-3.65,3.27-4.79,1.6-1.03,2.48-3.65,3.69-5.08-.57-.73-.57-1.38-.2-2.17.25-.54.78-.69,1.7-.62-1.11-2.41-.29-4.12,1.68-5.01l.78-3.52c2.75-2.94,4.24-7.66,1.36-9.8-.33.85-.28,1.38-.3,2.12-.48-.28-1.22-.62-1.21-.92l.04-1.52-4.1-4.63-.68-1.2c-.28-.49-1.17.04-1.53-.02-1.49-.23-1.48-2.57-2.13-3.28-.77-.85-1.78-1.29-2.47-2.38l-1.46-2.31c-.82-1.3-2-1.72-2.69-3.25-1.61-3.57-3.05-6.75-3.33-10.87-.16-2.4,0-6.15,1.97-7.81.92-.77,2.1-.73,2.59-1.94,3.38-1.35,4.66,1.72,4.61-.49,3.17-1.71,5.97-1.01,7.83-2,2.92.73,4.31,2.14,6.69,3.85.71.51.83,2.25,1.78,2.85.83.52,1.71.34,2.89.29.05,1.01-.49,1.78-.68,1.71-.16-.06-.36-.35-.61-1.04-.29.18-.48,1.08-.3,1.48s1.16.56,1.87.75c-.16,1.92.48,3.85,1.1,5.72l-.13,1.07c-.02.15.42.22.92.27-.22.51-.7,1.7-.32,2.21.15.2.98-.23,1.2-.12.23.11.32.68.38,1.12l.18,1.4c.06.44-1,.62-1.16.68,1.97,5.83-.9,11.66,3.36,11.02,1.81,1.02,3.95.37,5.56-1.15,2.37.56,4.9-.01,6.96-1.64,1.93.14,2.72-1.84,3.87-2.56,2.08-1.31,3.51-2.42,5.07-3.91l5.74-5.44c.44-.42.2-1.82.61-1.88l2.24-.33c1.48-1.18,4.56-3.25,6.5-1.72,3.86,6.78,4.29,14.8,4,22.75,1.15-.56,1.07-2.26,3.17-2.46l-1.27,7.3c-.21,1.22-.35,2.55,1.09,3.63,1.79-6.49,4.79-11.92,8.26-17.38,2.97-4.67,4.77-7.29,9.27-11.03l2.94-2.44c4.17-3.46,8.88-5.75,14.51-5.06,3.81.47,6.23,3.85,7.56,7.4.75,2,1.02,4.2,1.46,6.24l.58,2.67-.84,9.55c-.64,7.22-4.61,13.76-7.88,20.11-.72-.17-.54.44-.4.44.23,0,.85.21.84.87-.88-.16-1.76-.22-1.94.33l-.79,2.4c-.94,2.86-3.87,3.44-3.94,5.73l-2.72,2.21c-.72.59-.83,2.7.05,2.81,2.75.36,4.88,1.91,7.37,2.6,1.93.54,4.02.38,5.1,2.53l4.3-.33c2.01-.16,3.32-1.63,3.46-3.79,3.7,1.81-1.65,1.74-.6,4.49,1.46,3.83,9.44-4.1,9.11-11.04l.89-3.12c.94.13,1.44-.28,1.4-.61l-.23-2.01c.64-1.16.99-3.1,1.27-4.23l.89-3.55c.47-1.89,1.28-3.52-.28-5.05.12-.46.85-.66,1.44-.09l.43-4.18c.37-3.61.62-7.33-1.04-10.63.35,1.43-.8,2.43-.87,3.13-.43,4.44,0,9.91-1.81,13.69,1.36,1.44.49,2.81-.91,3.57.37,2.76-.88,4.73-1.56,7-1.36,4.53-2.35,8.89-5.88,12.28l.52-4.96,2.11-.39c-.48-.36-.88-.76-.98-1.17-.08-.35.81-1.12.88-1.49.33-1.76.52-3.2,2.16-4.38l.16-4.07c1.97-1.7,2.55-4.1,1.56-6.45,1.32-.66,1.33-1.57,1.46-2.66l1.06-8.49c.39-3.11.65-5.98.84-9.28l.42-7.09c.09-1.6-.05-3.22,1.12-4.69,1.02,1.65.95,2.95,1.18,4.81.57-.7.85-1.18,1.87-1.72.42.98.64,2.05,1.66,2.73.44-2.68,1.31-4.95,3.6-6.91.46,1.56.68,2.98,1.61,3.96,1.4,1.47,1.16,2.86,1.44,4.6.78,4.83.92,9.26.59,14.18l2.06,5.02c.76-.39,1.59-1.23,2.06-1.14.65.13.62,1.61.85,2.04.68,1.05,2.58,1.48,3.42,2.04l3.35-2.8c.23-.19.35-.71.5-.76.23-.08.93.71.75.95-.47.62-.72,1.31-.83,1.87-.18.9.44,1.2,1.44,1.42.52-1.32,1.86-2.07,3.05-2.41l.58-1.86c.21-.68,3.41-.93,3.31-1.97l-.16-1.66c2.24-.29,2.38-2.57,3.3-3.85,1.15-1.6,5.51-4.16,6.14-12.18.06-.73.85-1.49.05-2.81,1.33.57,1.21,1.56,1.23,2.67l3.74.39c-.13-1.96,3.45-4.2,4.4-2.66,1.55,2.51.3,6.1-.03,8.89,1.85-.94,2.6-4.62,5.4-7.07.13,4.51-3.32,6.18-2.32,8.74.09.26-.76.66-1.08.77-.43,1.9-.62,4.2-1.83,6.16.71.05,2.07-.12,2.61-.92l-.34-1.86,1-1.08c.5-.54.48-1.41,1.32-1.75-.11-1.45-.36-3.19.42-4.48.54.5.8.76,1.24.97l3.64-9.91c.66-1.79.43-3.32,1.84-4.9,1.94-2.18,2.2-5.32,2.7-8.14l.84-1.04c.17-.22-.26-.66-.65-.81.64-.15,1.24-.34,1.47-.65.58-.79-1.79-3.57.83-2.52l3.48-11.35,1.73-10.32c-1.37.8-1.02,2.29-2.21,3.7-.79-2.13,1.09-3.58,1.4-5.28.2-1.1-.16-2.05.54-3.14.61-.95.45-2.35.76-3.37l1.86-6.08c.99.64,1.27,1.5.91,3.17,1.09-.42,2,.24,2.75.75l3.36-3.65c1.91,2.41.04,4.97,1.07,6.12.24.27.62.09.61-.1l-.11-1.61c.58-.4.91.32.82.61l-.51,1.68c-.16.54.11,1.24-.07,1.53s-1.01.48-1.28.57c.67.35.92.94.73,1.23-.24.37-.34.79-1.14,1.25,1.46,1.07-.14,2.1-.26,2.93-.27,1.9.3,3.61-.64,5.55-.77,1.6-.37,3.45-.66,5.01-.31,1.66-1.86,3.36-1.04,5.37.21.51,1.02,1.22.53,1.79l-1.33,1.56c.52.32,1.1-.17,1.34-.3.21-.12.47.87.27,1.14-.18.25-.51.24-1.27.27-.01.69.1,1.51-.34,2.04-1.07.6.26,1.39.73.5.68-.48,1.07.14.67.58-.45,1.22-.46,2.18-.38,3.5-.75-.36-1-.76-1.46-1.34-.35,1.63.76,2.04,1.51,2.76l-1.83.3c-1.17.19,1.19,2.92-1,5.59.85.41,1.36.79,1.57,1.2.36.68-.85,1.14-1.05,1.55-.36,1.11-.61,2.91-1.87,4.08l1.53.53c.51.18.63,1.4.14,1.76-2.58-1.59.09,1.44-1.92,3.8l1.67,2.33c-1.46-.19-1.94.2-2.12.74-.36,1.08.4,2.19.9,2.71-.57.59-1.4,1.38-1.5,2.1-.15,1.02.12,1.82,1.36,2.13.15,1.02.61,2.06,0,3.06-.42-.18-.23-1.66-.53-1.6-.41.08-.83.35-1.1.52-.83.52,1.28,2.88-.79,2.37.06,1.03.85,1.79,2.22,2.12l-1.49,1.18,1.48,3.96c.72-1.17.42-2.23,1.99-2.84.09,2.25-.57,4.56-2.87,5.49l-.09,3.36c1.32-.16,1.89-.06,2.44-.85.85-1.21-.64-2.6-.06-3.46.23-.34,1.26-.32,2.01.08l1.97-4.46c.13-.29,1.15-.38,1.37-.57.3-.25.35-1.01-.2-1.75.49-.21.66-.04.9-.07.43-.06.78-.68.76-1.39l-.04-1.27c0-.28.89-.02,1.4.36l4.18-5.4c1.01-1.31,1.9-2.26,1.63-3.88,2.89-1.03,4.28-3.56,5.47-6.11l5.52-6.77c.77.48,1.39.04,1.36-.07l-.35-1.41,4.75-4.08c1.26-1.08,1.43-2.88,3.69-3.26l3.01-2.98c.66-.66,1.48-.75,2.35-1.23l7.6-4.14c-1.09-.66-1.93-1.08-2.02-2.2,2.45-.6,4.64,1.22,6.73,1.18,3.09-.06,5.39,0,7.54,2.73.65.83,2.06,1.49,1.56,3.09-.51-.3-.92-.33-1.24-.35-.35-.02-.9.43-.81.85l.81,3.94c-.42.45-.67.84-.63,1.17.1.95,2.26,2.56.65,2.39-.4-.04-1.2-.49-1.63-.24-.49.28-1.1,1.44-.72,2.01.1.15.72-.21.83-.35.28-.33.96.32.49.7-1.52,1.23-2.18,2.9-1.68,4.77l-2.02.67c-.45.15-.48,1.13-.17,1.91-1.52.68-2.14,2.14-2.99,3.38l-3.59,5.19-1.67,2.11-4.72,5.2c-.46.44-1.23,1.01-2.02,1.76l-3.56,3.4c.75.22.66.68.39.91-1.72-.36-2.25.47-2.85,1.64l-2.56,2.09c-.49,1.53-1.82,1.49-2.43,2.1-2.42,2.4-4.91,4.11-7.7,5.97-1.35.91-2.11,1.77-3.69,2.49-1.35.62-3.54,1.66-4.78,2.61-1.91,1.46.8,4.32,2.2,4.93,1.5.66,1.79,1.86,1.61,2.84,1.59-.14,4.04,2.68,4,2.94l-.33,2.28c.97-.68,1.68-.69,2.65-.45,1.06.26.53,1.75.98,2.23,1.82.99,2.31,3.63,4.78,5.67.48-1.12,1.42-1.05,1.38-.07-.19.65.21,1.39.49,1.52s.68.11,1.49-.22c.02.73-.43,1.38,0,2.54.98-.4,2.4-.16,2.82.68.63,1.26,1.6.65,2.26.89,3.32,1.21,6.44,2.09,10,2.16l10.24.21,8.79-1.01c.21-.02,2.88,1.04,3.46-.93.22-.75,1.59.78,2.46.68,1.19-.14,2.6-2.49,2.34-.75,1.62,1.66,3.52-.77,4.75-.8,1.52.38,2.63.63,4.48.37l10.97-1.56c.46,2.27-1.12,3.64-.44,6.33-.61.61-2.13,1.32-2.16,2.44l-.34.42c.53.57,1.32,1.17,2.21.99-.12,2.05-1.73,1.47-2.31,1.8-2.08,1.19-4.16,1.19-6.24,1.83-4.5,1.38-8.91,3.13-13.64,3.63l-4.92,1.06-5.66,1.15c-1.07.22-2.12-.15-3.11.1-4.6,1.17-9.27,1.1-14.17.83s-9.27-1.94-12.99-4.87c-1.27-1-2.65-1.34-3.41-3.18-.24-.58-1.76-.97-2.22-1.42l-5.82-5.75c-2.46-2.43-3.28-4.42-5.03-6.37l-6.11-6.85c-1.07-1.19-1.2-2.52-2.56-3.42-1.56-1.04-2.73-3.14-4.18-5.14l-3.15,2.03c.78,2.07-1.54,3.54-1.78,4.76-.48,2.47-1.72,3.87-2.51,5.88l-2.63,6.73-2.35,6.36c-1.18,3.18-2.04,5.9-3.58,9.07-1.05,2.15-.78,5.59-3.69,6.69-.74.28-.76-1.78-1.03-2.41-.59-1.36-1.69-2.93-1.53-4.77-1.61.61-1.09,1.78-1.16,2.63-1.6-.72-1.38-1.94-2.1-2.79-.25-.1-1.19-.37-1.26-.63-.08-.32.65-.79.94-.91l-1.92-.34c-.55-.1-.53-1.23-.27-1.98l6.12-17.81,1.55-6.04c1.2-4.7,1.65-9.41,3.81-13.91-.92-2.4-.41-4.58.66-6.55l.5-3.86,1.19-8.92c2.64.89.36-1.35.73-2.65.12-.42.81-.67,2.16-.74-.53-1.03-1.36-1.1-2.16-1.71.71-2.05,1.02-3.6-.25-5.49l-2.45,5.85-1.13,2.82c-.68,1.7-.95,3.83-2.38,5.26-.97.96-.42,2.49-.69,3.26-1.37,2.51-2.2,5.11-4.21,7.55.08,2.27-.7,4.46-2.82,6.19.07,4.06-2.14,8.04-2.61,5.64-.75.68-.5,1.8-.57,2.85-.33.72-2.4,1.31-2.13,2.67.34,1.67-.4,2.66-.94,4.23s.4,3.82-1.27,5.42c-.11-.23-.36-.94-.97-1.22-.91,1.54,1.06,2.93.92,4.15l-.91,7.86c-.03.3-.62.77-.77.65-.28-.22-.34-1.08-.26-2.01-1.51.84-.4,2.47-.47,3.42-.06.77-1.24,2.31-.07,3.01.31.18,1.17.58,1.05.82l-.53,1.08c-.18.37-1.29-.29-1.43-.33-.39.95.7,1.75,1.91,1.39-.11,1.38-.95,1.83-1.79,2.66.82.38.75,1.13-.33.93-.78,1.38-.92,3.94.2,5.23l1,.48c.18.09-.01.71-.28.79-.2.06-.73-.19-1.18-.38-.72,2.19,1.46,3.73-1.41,5.08,1.46.57,1.29.86,1.33,1.6.05.85-.12,1.05-1.61,1.2l1.99,2.26c-.7.12-2.08.39-2.12,1.31-.03.55,1.56.5,2.1-.09l-.8,7.15-.89,10.96c-.91.22-1.41-.4-1.54.16-.11.44.36.66.47.8,1.74,2.22.04,4.86-.23,6.99l-1.07,8.65-1.75,11.62c-.29,1.91-.71,2.78-1.44,4.45-.56,1.29.93,4-1.01,5.32.69,3-.62,5.5-2.3,7.67.04,2.46-1.41,4.54-2.78,6.52.78,1.31-.62,1.74-.95,2.46-1.77,3.87-4.14,7.8-8.16,9.86-.69.36-1.72.48-2.1,1.01l-3.01.37c-3.86-.36-9.48-3.24-9.42-5.27,0-.3-.44-.39-.58-.09-.08.17-.34.79-.48.91-1.36,1.12-1.8-1.43-2.58-1.62-1.3-.26-2.15-1.63-2.87-2.11-5.85-3.88-8.6-9.47-9.56-16.94l-.72-5.63.06-5.41c.03-2.75-.12-5.21.45-7.9l2.6-12.22c.35-1.67,1.27-3,1.93-4.32.36-.71-.51-2.75,1.09-3.11.25-.06.63-.21.85-.41.18-.16.07-.7-.19-.68l-.99.08,1.87-5.07c.48-1.3,1.45-2.24,1.46-4.01l2.23,1.49-2.15,1.58c1.59,1.06.23,2.43.68,3.85l-1.29.7c-.69.38,0,1.88-.21,2.32l-1.23,2.58,1.68.25c.75-1.47,1.36-3.31,1.12-4.9l1.11.26c1.38.32.15-2.72.55-3.54.79-1.64,1.77-3.57,1.72-5.34.32-.14.94-.29,1.02-.53.08-.25-.06-.79-.21-.99l-.42-.24c-1,.9-2.1,1.84-3.47,1.9.06-4.81,3.22-5.41,3.28-5.54.19-.46-.18-1.33-1-1.61.59-.84,1.69-.88,2.65-1.01-.5-1.19-.81-1.63-.75-2.25.07-.76,2.12-1.57,2.13-2.08l.03-2.01c0-.46.84-1.07,1.64-1.25-.35-1.21-.07-2.19.46-3.11,1.96,2.85-.67,4.93-.02,5.55l.95.92c-1.98-.02-2.66.95-3.22,2.42-.98,2.56-2.15,4.92-2.38,7.6l.33.37ZM132.6,315.83c0-1.33-.65-2.57.71-4.08l2.03-4.94c.19-.47,2.09.06,1.96-1.11-.23-2.09-2.09-1.9-1.51-3.6.11-.32.74-.21,1.42,0l-.41-3.83c-.05-.44.3-.59.4-.74.25-.37.63-.09.58.09-.09.33-.24,1.01.48,1.28-.26-2.14-.28-4.26-.26-6.53,0-1.31.46-1.29.86-2.18.85-1.87.75-4.4.79-7.02-1.83.94-.85,3.09-1.13,4.36-.53,2.44-1.92,4.35-1.68,7.19-.67-.28-1.58-.78-1.57-1.17l2.17-11.35c.42-2.17.74-3.83-1.34-5.31.11,2.2-.48,3-1.43,4.22-2.74,3.51-3.46,7.97-5.02,12-.42,1.09-1.32,1.22-1.06,2.82.45,2.8-1.22,5.78-1.5,8.52-.52,5.01-1.32,9.53-1.5,14.54-.07,1.89-1.14,3.87-.05,5.59l1.93-3.67c.45-.86.57-1.81,1.34-2.42-.4-1.67.14-3.2.76-4.89l1.96-5.36c1.41-3.86,1.43-8.24,4.3-12.28.63,2.32-.25,4.2-1.39,5.99l-.84,4.85c-1.04,1.78-1.23,3.36-1.86,5.3l-3.6,11.17c4.23-.68.98-5,4.45-7.43ZM122.83,282.14c.45.25,1.16.4,1.29.19.12-.19.11-.84-.11-1.1-.14-.17-.82.09-.78-.13.13-.6.39-1.15.29-1.45-.13-.44-.89-.94-1.25-.34l-.55.91-1.16,3.48c-.84.78-1.32.97-1.44,1.88-.15,1.12.76,2.18,1.6,1.85.55-1.78.95-4.04,2.11-5.29ZM205.31,310.08c.71-.73,1.1-1.06,1.12-1.64s-1.07-1.28-1.48-.76c-1.11,1.39-2.19,2.87-2.08,4.9l2.44-2.51ZM116.05,318.44c.61-2.16.23-3.99-.87-5.93-.36,1.87-1.25,4.38.87,5.93ZM431.32,352.55c-.55-.03-1.64-.16-1.82.3-.15.37.16.94.39,1.95.75.3,1.33-.98,2.1-1.38l6.3-3.36c.14-.27.35-1.31.61-1.32l1.12-.05c.81-.87,1.45-2.55,2.8-3.13,1.09.05,3.31-.59,3.63-2,.11-.48-.5-1.75.34-1.77l1.51-.05c1.96-.06,2.64-2.61,3.73-3.72.56-.57,1.76-.79,2.07-1.5.33-.77.04-1.39-.12-2.15.72.26,1.41.54,1.68.43s.23-.94.5-1.38l1.87-2.97c1.84-.44,2-1.78,3.04-3.14l2.77-3.62c1.04-1.36,1.98-2.57,2.47-4.18.19-.63,1.83-1.13.97-2.74.82-.11,1-.08,1.18-.36.31-.48-.06-1.92-.41-1.75-1.79.89-2.02,2.94-2.98,4.11l-5.21,6.32c.49.66.18,1.05-.06,1.34s-.4.15-.56.02c-1.84-1.59,2.33-4.48,2.87-5.55l2.84-5.59c-3.08-.11-4.6,1.96-6.53,3.2s-3.43,2.18-5.08,4.04l-2.5,2.82c-1.64,1.86-4.2,3.15-5.29,5.69-.11.26-.19,1.07-.45,1.22-.22.12-.51.18-1.06.08l-4.7,5.9c.02.32.19,1,.01,1.09l-1.14.56-6.91,9.22,1.58.35c-1.42.96-1.15,2.15-1.58,3.05ZM222.22,322.63c.03-.79-.75-1.15-1.1-1.93l-2.2-4.97c-.53-1.2-4.66-.78-4.82.53-.04,1.46.48,3.27.11,4.42,4.74,4.07,2.82,6.87,3.36,7.14l1.99.99c.64.32,1.03.74,1.57.41.39-.24.46-4.68-.37-6.74-.18-.43.8-.93.94-.42l.24.83.27-.27ZM226.41,322.98c-.33-.81.54-2.54-1.48-3l1.81,12.53c2.05-3.32.83-6.61-.33-9.52ZM222.5,322.89c-.05.09-.1.17-.23.27l.19,3.97c.02.45-.25.81-.01,1.24.21.39.6.56.97.22l.93-.88c.14,1.33-.77,2.47.23,3.72.82-2.59.29-4.87.1-7.27l-2.18-1.28ZM162.67,347.83l2.04-3.16c.44-.69,1.33-1.29,1.25-2.03s-.78-1.3-1.44-1.95c.79-.61,1.11-.53,2.67-.69-2.38-1.92-1.09-3.03-.82-4.92.13-.94-1.42-2.59-.02-3.85-1.02-.26-1.23-.23-2.19-.08.47,2.26.93,5.08-.49,7.2-1.29-2.96-.39-5.44-.81-8.74l-3.49,1.24c-2.59.92-4.13,3.5-6.89,4.42-1.93,2.65-4.18,5.12-6.71,7.63l-2.12,5.53c-.68,1.78-.25,3.68.9,4.9,2.25,2.37,6.31.97,9.72.55,7.28-.9,4.89-7.03,7.91-10.24-.12-.49-.23-.95-.13-1.17.19-.41.54-.54.83-.27.99.93-.93,3.06-.22,5.63ZM270.41,335c.73-2.17.41-4.1-.57-5.69-1.37,1.6-.75,3.41-.33,5.13-.75.89.28,1.41.89.57ZM265.94,339.38c2.12-.2,1.03-1.77,1.23-2.34.58-1.73.92-3.27-.2-5.24-1.37,1.59-.68,2.69-.81,4.48l-.22,3.1ZM114.54,339.86c.74-1.9.46-4.29-.39-5.58-.84,1.64-.37,3.15-.47,4.78-1.27.83.3,1.95.86.8ZM251.75,342.05c.77-.71-.22-2.05-1.11-1.15-1.36-.3-1.97,1.46-2.64,1.68l-4.18,1.34c-2.87.92-5.41,1.77-8.64,1.4,2.71,3.61,13.53-.46,16.57-3.26ZM270.55,351.26l.14-8.44c.38-1.09-1.26-1.34-1.28-.08l-.23,15.05c.11-.05.35-.26.63-.27.44-1.84.69-3.94.73-6.25ZM114.28,351.21c.81-2.8,1.22-5.49.04-8.37-1.27,1.33-.42,2.93-.63,4.42s-.9,2.6.59,3.95ZM187.28,361.49c1.34-1.99,1.27-4.19.29-5.8.73-.1,1.19-.23,1.4-.36.15-.09.05-.65-.18-.65h-.8c-.07-2.05-.08-5.36,1.08-7.22.3-.48,1.85-1.38.69-2.18-3.89,1.37-1.37,4.88-3.29,8.01.32.59.88,1.62.58,2.15-.22.39-1.08,1.15-.96,1.58l1.2,4.46ZM340.29,362.25c.2-2.3,2.01-4.62,1.19-7.3,1.14-2.7,2.22-5.67.69-9.06-1.33,2.27-.91,4.49-1.07,6.65-.1,1.44-.65,2.58-.61,4.35.02,1.33-2.49,3.57-.2,5.36ZM370.24,384.81l.55-4.49c.08-.68,1.34-1.82.48-3-1.04.55-.92,2.66-1.71,3.37-1.07.97-1.64,1.46-2.19,3.08.53.75,2.04,1.33,2.87,1.04ZM368.89,387.36c.09-2.5-1.4-2.78-2.3-2.2-.63.41-1.5,1.58-.8,2.39.71.22,2.58.21,3.09-.19ZM333.4,387.17c1.07.45,1.25-.73.17-.73-1.21-.51-1.87,1.08-2.36,1.82-1.75.18-3.84.3-4.29,2.27-.85-.83-1.58-.61-1.7-.31-.95,2.37,4.58,1.9,8.19-3.05ZM508.89,398.35c.08-.03.01-1.14-.29-1.29.7.35-3.62.77-4.31,2.61-.53-.89-.97-.91-1.5-.77-.65.17-1.4.77-1.02,1.07,2.21,1.82,4.09-.77,6.74-1.25l.39-.37ZM375.04,405.82c.17-1.3-.12-2.06-.79-3.11.53.17.7.24.9.15.32-.15.3-.62.15-.74-.18-.15-.61-.33-1.44-.24l-1.04,10.98c-.26,2.79-1.59,5.66.19,8.25l2.02-15.28ZM347.84,494.58c1.49.65,2.22-1.83,2.63-2.58,5.2-9.54,7.45-19.85,9.56-30.38.53-1.06.54-1.56.75-3.09l2.03-14.66c.22-1.58.14-2.81,1.51-3.56-.64-.42-.83-1.14-.76-1.58.05-.36.43-.88.87-1.4-1.29-1.83.25-3.79.48-5.37.58-4.06.37-7.79,1.43-11.75.27-1-.66-2.69,1.18-3.6,2.02,4.71-.97,8.67.16,12.59l1.67-.84c-.46-.2-1.08-.8-.95-1.11l.64-1.57c-.29-1.95-.42-4.47,1.11-6.21,1.02-4.23-1.62-5.81.24-7.33-.2,1.13-.32,1.83.55,2.37-.09-3.1.24-5.61.99-8.46.15-.55-1.18-1.23-1.34-.82-1.38,3.6-1.85,7.29-2.05,10.89-1.02.34-1.51-.32-1.14-.94.08-.55-.41-.98-1.32-1.01.85-.47,1.42-1.29.96-2.49-1.42.68-1.79,2.19-2.43,3.42l-3.36,6.5-2.23,3.69c-.7,2.36-2.34,4.3-3.26,6.49s-1.66,4.03-2.61,6.19l-4.2,9.51-4.07,11.12c-.46,1.25-.51,1.86-.93,3.23l-1.38,4.57-1.86,8.55c-.19.88.09,1.91-.68,2.72,1.84,2.06.11,5.47,2.46,9.34-.65.51-1.23,1.1-.73,2.12.04-.38.65-1.05.96-.82,1.26,2.14,2.56,5.16,5.1,6.27ZM368.2,438.23l-.55-8.31c-1.55,2.83-.86,5.34-1.36,7.92l1.91.39ZM363.86,466.91c-1.07-2.51,0-5.22.88-7.33-.1-1.07-.9-2.76-.21-4.31-1.81.96-.59,3.23-1.07,4.23-1.65,3.41-1.99,7.56.41,7.41ZM332.19,463.69l-.23-4.25c1.07-.84,1.57-1.62,1.8-3.55-.67.35-1.49.42-2.35.12l-.45,3.98c-1.67,3.26-1.55,7.81-.03,6.13.15-.16.19-.5-.05-.87-.39-.88.71-1.29,1.32-1.57ZM329.85,468.35c-.93-.74-1.26,2.46-1.03,5.92,1.76-.81,1.26-5.73,1.03-5.92ZM361.98,468.84c-1.45,1.48-1.43,3.42-1.66,4.95,2.49.75,1.66-.92,1.66-4.95ZM329.37,481.5c.6-2.25.81-4.47-.12-6.99-1.52.55-.44,1.74-.6,2.22-.48,1.36-.5,3.05.72,4.77ZM357.5,483.59c.35.1.72.08,1.03-.26l1.5-4.91c-.8-1.02-1.15-.48-1.45.39l-1.08,4.78Z"/>
    <path d="M214.85,358.08c-.05.52.14,1.45-.06,1.78-.24.39-.81.7-1.69,1.08.19-.98-.12-2.53.44-3.67l1.85-3.74c1.04-2.1,1.93-3.71,2.15-6.03.55,1.07,1.34,1.53,1.21,1.8l-.71,1.5c.07,1.89-.99,3.17-1.44,4.63-.31,1.02-.46,2.19-1.76,2.65Z"/>
    <path d="M293.22,364.85c-.48.05-1.17-1.06-1.27-1.42.19.69,2.65-4.47,5.45-4.37l.41,1.15c.07.21-.39.77-.68,1.04l-3.92,3.6Z"/>
    <path d="M460.75,304.58l-7.23,2.89c1.62-3.36,5.07-3.74,7.67-4.92.59.93.27,1.75-.45,2.04Z"/>
    <path d="M443.72,316.44c-.48-3.48,4.01-4.08,5.73-7.05.69.6.67,1.23.45,1.98l-6.18,5.08Z"/>
    <path d="M366.34,344.47c.12.54.28.96.04,1.12-.34.24-1.03.33-1.21.12-.26-.29-.41-1.17-.1-1.52l2.6-2.83c.38-.42.5-.66.83-.84.23-.13.95.11,1.12.53.14.36-.54.83-.91,1.06l-.58,1.64c-.22.62-.83.77-1.78.71Z"/>
    <path d="M407.41,296.99c-.74,1.55-.4,3.61-2.49,4.87l2.31-7.68c1.61,1.07.57,1.98.18,2.81Z"/>
    <path d="M401.32,313.93c.48.55.25.76.1,1.02-.39.69-.73.81-1.03.62-.53-.34-.68-4.01,1.5-5.16.32,1.08.04,2.28-.58,3.52Z"/>
    <path d="M299.84,357.19c-.25.94-1.11,1.08-1.43.88-1.39-.88,1.04-2.36,1.5-4.73,1,1.22.25,2.58-.08,3.84Z"/>
    <path d="M149.53,376.94c.13.47-1.28-.33-1.5-1.31,1.22-.95,1.68-2.25,2.49-3.78.87,1.87-.39,2.58-.99,5.09Z"/>
    <path d="M424.41,339.68l-2.1,3.41c-.35-2.19,1.18-4.76,3-5.37.5.55.02,1.43-.9,1.96Z"/>
    <path d="M453.15,333.38c-.73-2.76,4.09-5.82,4.25-6.66.09-.44.4-.86.82-.33.27.34.83.9.41,1.32l-5.49,5.66Z"/>
  </g>
</svg>